ISO-10303-21;
HEADER;
/* Generated by software containing ST-Developer
 * from STEP Tools, Inc. (www.steptools.com) 
 */
/* OPTION: using custom renumber hook */

FILE_DESCRIPTION(
/* description */ ('STEP AP242 Edition 2',
'CAx-IF Rec.Pracs.---Representation and Presentation of Product Manufa
cturing Information (PMI)---4.0---2014-10-13',
'CAx-IF Rec.Pracs.---3D Tessellated Geometry---0.4---2014-09-14','2;1',
'CAx-IF Rec.Pracs.---User Defined Attributes---1.5---2016-08-15'),
/* implementation_level */ '2;1');

FILE_NAME(
/* name */ 'Part Studio 1 - Part 2',
/* time_stamp */ '2026-06-15T23:30:40Z',
/* author */ (''),
/* organization */ (''),
/* preprocessor_version */ 'ST-DEVELOPER v20',
/* originating_system */ 'ONSHAPE BY PTC INC, 1.216',
/* authorisation */ '  ');

FILE_SCHEMA (('AP242_MANAGED_MODEL_BASED_3D_ENGINEERING_MIM_LF { 1 0 10303 442 3 1 4 }'));
ENDSEC;

DATA;
#10=SHAPE_REPRESENTATION_RELATIONSHIP('','',#1260,#11);
#11=ADVANCED_BREP_SHAPE_REPRESENTATION('',(#1258),#2113);
#12=CONICAL_SURFACE('',#1361,0.0015,0.785398163397449);
#13=CONICAL_SURFACE('',#1363,0.0015,0.785398163397448);
#14=CONICAL_SURFACE('',#1365,0.001,0.785398163397447);
#15=TOROIDAL_SURFACE('',#1336,0.004,0.0015);
#16=TOROIDAL_SURFACE('',#1337,0.004,0.0015);
#17=TOROIDAL_SURFACE('',#1340,0.002,0.001);
#18=TOROIDAL_SURFACE('',#1344,0.002,0.001);
#19=TOROIDAL_SURFACE('',#1350,0.002,0.001);
#20=TOROIDAL_SURFACE('',#1354,0.002,0.001);
#21=ELLIPSE('',#1303,0.00353553390593274,0.0025);
#22=ELLIPSE('',#1304,0.00353553390593274,0.0025);
#23=ELLIPSE('',#1316,0.00353553390593274,0.0025);
#24=ELLIPSE('',#1318,0.00353553390593274,0.0025);
#25=ELLIPSE('',#1357,0.00141421356237309,0.001);
#26=ELLIPSE('',#1358,0.00141421356237309,0.001);
#27=B_SPLINE_CURVE_WITH_KNOTS('',3,(#1783,#1784,#1785,#1786),
 .UNSPECIFIED.,.F.,.F.,(4,4),(-2.27254371875773E-7,0.00182291893850544),
 .UNSPECIFIED.);
#28=B_SPLINE_CURVE_WITH_KNOTS('',3,(#1912,#1913,#1914,#1915),
 .UNSPECIFIED.,.F.,.F.,(4,4),(0.00107315974725618,0.00288776951162431),
 .UNSPECIFIED.);
#29=B_SPLINE_CURVE_WITH_KNOTS('',3,(#1932,#1933,#1934,#1935),
 .UNSPECIFIED.,.F.,.F.,(4,4),(0.00107315974725618,0.00288776951162429),
 .UNSPECIFIED.);
#30=B_SPLINE_CURVE_WITH_KNOTS('',3,(#1943,#1944,#1945,#1946),
 .UNSPECIFIED.,.F.,.F.,(4,4),(-2.27254371878158E-7,0.00182291893850545),
 .UNSPECIFIED.);
#31=B_SPLINE_CURVE_WITH_KNOTS('',3,(#2048,#2049,#2050,#2051,#2052),
 .UNSPECIFIED.,.F.,.F.,(4,1,4),(0.,0.0008093276926435,0.001618655385287),
 .UNSPECIFIED.);
#32=B_SPLINE_CURVE_WITH_KNOTS('',3,(#2054,#2055,#2056,#2057,#2058),
 .UNSPECIFIED.,.F.,.F.,(4,1,4),(0.,0.000809327692643487,0.00161865538528697),
 .UNSPECIFIED.);
#33=PLANE('',#1270);
#34=PLANE('',#1277);
#35=PLANE('',#1278);
#36=PLANE('',#1283);
#37=PLANE('',#1284);
#38=PLANE('',#1285);
#39=PLANE('',#1286);
#40=PLANE('',#1287);
#41=PLANE('',#1294);
#42=PLANE('',#1295);
#43=PLANE('',#1302);
#44=PLANE('',#1305);
#45=PLANE('',#1306);
#46=PLANE('',#1307);
#47=PLANE('',#1308);
#48=PLANE('',#1309);
#49=PLANE('',#1310);
#50=PLANE('',#1311);
#51=PLANE('',#1312);
#52=PLANE('',#1313);
#53=PLANE('',#1314);
#54=PLANE('',#1315);
#55=PLANE('',#1317);
#56=PLANE('',#1319);
#57=PLANE('',#1320);
#58=PLANE('',#1321);
#59=PLANE('',#1322);
#60=PLANE('',#1323);
#61=PLANE('',#1324);
#62=PLANE('',#1359);
#63=PLANE('',#1360);
#64=PLANE('',#1362);
#65=PLANE('',#1364);
#66=PLANE('',#1366);
#67=PLANE('',#1367);
#68=PLANE('',#1368);
#69=PLANE('',#1369);
#70=PLANE('',#1370);
#71=PLANE('',#1371);
#72=PLANE('',#1374);
#73=CIRCLE('',#1263,0.0017);
#74=CIRCLE('',#1264,0.0017);
#75=CIRCLE('',#1265,0.0017);
#76=CIRCLE('',#1267,0.0017);
#77=CIRCLE('',#1268,0.0017);
#78=CIRCLE('',#1269,0.0017);
#79=CIRCLE('',#1271,0.001);
#80=CIRCLE('',#1272,0.001);
#81=CIRCLE('',#1273,0.001);
#82=CIRCLE('',#1274,0.003);
#83=CIRCLE('',#1275,0.002);
#84=CIRCLE('',#1276,0.002);
#85=CIRCLE('',#1279,0.0025);
#86=CIRCLE('',#1280,0.0025);
#87=CIRCLE('',#1281,0.0015);
#88=CIRCLE('',#1282,0.0015);
#89=CIRCLE('',#1288,0.001);
#90=CIRCLE('',#1289,0.001);
#91=CIRCLE('',#1290,0.001);
#92=CIRCLE('',#1291,0.003);
#93=CIRCLE('',#1292,0.002);
#94=CIRCLE('',#1293,0.002);
#95=CIRCLE('',#1297,0.003);
#96=CIRCLE('',#1298,0.003);
#97=CIRCLE('',#1300,0.003);
#98=CIRCLE('',#1301,0.003);
#99=CIRCLE('',#1331,0.0025);
#100=CIRCLE('',#1332,0.0025);
#101=CIRCLE('',#1334,0.0025);
#102=CIRCLE('',#1335,0.0025);
#103=CIRCLE('',#1339,0.001);
#104=CIRCLE('',#1341,0.001);
#105=CIRCLE('',#1343,0.001);
#106=CIRCLE('',#1345,0.001);
#107=CIRCLE('',#1347,0.001);
#108=CIRCLE('',#1349,0.001);
#109=CIRCLE('',#1351,0.001);
#110=CIRCLE('',#1353,0.001);
#111=CIRCLE('',#1355,0.001);
#112=CIRCLE('',#1372,0.003);
#113=CIRCLE('',#1375,0.003);
#114=ORIENTED_EDGE('',*,*,#468,.T.);
#115=ORIENTED_EDGE('',*,*,#469,.T.);
#116=ORIENTED_EDGE('',*,*,#470,.T.);
#117=ORIENTED_EDGE('',*,*,#471,.F.);
#118=ORIENTED_EDGE('',*,*,#472,.F.);
#119=ORIENTED_EDGE('',*,*,#473,.T.);
#120=ORIENTED_EDGE('',*,*,#474,.F.);
#121=ORIENTED_EDGE('',*,*,#475,.T.);
#122=ORIENTED_EDGE('',*,*,#476,.T.);
#123=ORIENTED_EDGE('',*,*,#477,.F.);
#124=ORIENTED_EDGE('',*,*,#478,.F.);
#125=ORIENTED_EDGE('',*,*,#479,.T.);
#126=ORIENTED_EDGE('',*,*,#480,.F.);
#127=ORIENTED_EDGE('',*,*,#481,.T.);
#128=ORIENTED_EDGE('',*,*,#482,.F.);
#129=ORIENTED_EDGE('',*,*,#483,.T.);
#130=ORIENTED_EDGE('',*,*,#484,.T.);
#131=ORIENTED_EDGE('',*,*,#485,.F.);
#132=ORIENTED_EDGE('',*,*,#486,.T.);
#133=ORIENTED_EDGE('',*,*,#487,.T.);
#134=ORIENTED_EDGE('',*,*,#488,.T.);
#135=ORIENTED_EDGE('',*,*,#489,.T.);
#136=ORIENTED_EDGE('',*,*,#490,.T.);
#137=ORIENTED_EDGE('',*,*,#491,.T.);
#138=ORIENTED_EDGE('',*,*,#492,.T.);
#139=ORIENTED_EDGE('',*,*,#493,.T.);
#140=ORIENTED_EDGE('',*,*,#494,.F.);
#141=ORIENTED_EDGE('',*,*,#495,.T.);
#142=ORIENTED_EDGE('',*,*,#496,.T.);
#143=ORIENTED_EDGE('',*,*,#497,.F.);
#144=ORIENTED_EDGE('',*,*,#498,.F.);
#145=ORIENTED_EDGE('',*,*,#474,.T.);
#146=ORIENTED_EDGE('',*,*,#499,.F.);
#147=ORIENTED_EDGE('',*,*,#500,.T.);
#148=ORIENTED_EDGE('',*,*,#501,.T.);
#149=ORIENTED_EDGE('',*,*,#502,.F.);
#150=ORIENTED_EDGE('',*,*,#503,.T.);
#151=ORIENTED_EDGE('',*,*,#504,.T.);
#152=ORIENTED_EDGE('',*,*,#505,.F.);
#153=ORIENTED_EDGE('',*,*,#506,.T.);
#154=ORIENTED_EDGE('',*,*,#507,.T.);
#155=ORIENTED_EDGE('',*,*,#508,.F.);
#156=ORIENTED_EDGE('',*,*,#509,.T.);
#157=ORIENTED_EDGE('',*,*,#510,.T.);
#158=ORIENTED_EDGE('',*,*,#511,.T.);
#159=ORIENTED_EDGE('',*,*,#512,.T.);
#160=ORIENTED_EDGE('',*,*,#513,.T.);
#161=ORIENTED_EDGE('',*,*,#514,.T.);
#162=ORIENTED_EDGE('',*,*,#515,.T.);
#163=ORIENTED_EDGE('',*,*,#516,.T.);
#164=ORIENTED_EDGE('',*,*,#517,.T.);
#165=ORIENTED_EDGE('',*,*,#518,.T.);
#166=ORIENTED_EDGE('',*,*,#519,.T.);
#167=ORIENTED_EDGE('',*,*,#520,.T.);
#168=ORIENTED_EDGE('',*,*,#521,.T.);
#169=ORIENTED_EDGE('',*,*,#522,.T.);
#170=ORIENTED_EDGE('',*,*,#523,.T.);
#171=ORIENTED_EDGE('',*,*,#524,.F.);
#172=ORIENTED_EDGE('',*,*,#525,.F.);
#173=ORIENTED_EDGE('',*,*,#526,.F.);
#174=ORIENTED_EDGE('',*,*,#527,.T.);
#175=ORIENTED_EDGE('',*,*,#528,.T.);
#176=ORIENTED_EDGE('',*,*,#529,.F.);
#177=ORIENTED_EDGE('',*,*,#530,.F.);
#178=ORIENTED_EDGE('',*,*,#531,.T.);
#179=ORIENTED_EDGE('',*,*,#532,.F.);
#180=ORIENTED_EDGE('',*,*,#533,.F.);
#181=ORIENTED_EDGE('',*,*,#508,.T.);
#182=ORIENTED_EDGE('',*,*,#534,.T.);
#183=ORIENTED_EDGE('',*,*,#518,.F.);
#184=ORIENTED_EDGE('',*,*,#535,.F.);
#185=ORIENTED_EDGE('',*,*,#536,.T.);
#186=ORIENTED_EDGE('',*,*,#537,.T.);
#187=ORIENTED_EDGE('',*,*,#538,.T.);
#188=ORIENTED_EDGE('',*,*,#510,.F.);
#189=ORIENTED_EDGE('',*,*,#539,.T.);
#190=ORIENTED_EDGE('',*,*,#524,.T.);
#191=ORIENTED_EDGE('',*,*,#540,.T.);
#192=ORIENTED_EDGE('',*,*,#512,.F.);
#193=ORIENTED_EDGE('',*,*,#541,.T.);
#194=ORIENTED_EDGE('',*,*,#542,.T.);
#195=ORIENTED_EDGE('',*,*,#543,.F.);
#196=ORIENTED_EDGE('',*,*,#544,.T.);
#197=ORIENTED_EDGE('',*,*,#545,.F.);
#198=ORIENTED_EDGE('',*,*,#546,.T.);
#199=ORIENTED_EDGE('',*,*,#547,.F.);
#200=ORIENTED_EDGE('',*,*,#548,.T.);
#201=ORIENTED_EDGE('',*,*,#549,.T.);
#202=ORIENTED_EDGE('',*,*,#550,.F.);
#203=ORIENTED_EDGE('',*,*,#551,.T.);
#204=ORIENTED_EDGE('',*,*,#552,.T.);
#205=ORIENTED_EDGE('',*,*,#553,.T.);
#206=ORIENTED_EDGE('',*,*,#554,.T.);
#207=ORIENTED_EDGE('',*,*,#555,.T.);
#208=ORIENTED_EDGE('',*,*,#556,.T.);
#209=ORIENTED_EDGE('',*,*,#557,.T.);
#210=ORIENTED_EDGE('',*,*,#558,.T.);
#211=ORIENTED_EDGE('',*,*,#559,.T.);
#212=ORIENTED_EDGE('',*,*,#560,.T.);
#213=ORIENTED_EDGE('',*,*,#561,.T.);
#214=ORIENTED_EDGE('',*,*,#562,.T.);
#215=ORIENTED_EDGE('',*,*,#563,.T.);
#216=ORIENTED_EDGE('',*,*,#564,.T.);
#217=ORIENTED_EDGE('',*,*,#565,.T.);
#218=ORIENTED_EDGE('',*,*,#566,.T.);
#219=ORIENTED_EDGE('',*,*,#567,.T.);
#220=ORIENTED_EDGE('',*,*,#568,.T.);
#221=ORIENTED_EDGE('',*,*,#569,.T.);
#222=ORIENTED_EDGE('',*,*,#570,.T.);
#223=ORIENTED_EDGE('',*,*,#521,.F.);
#224=ORIENTED_EDGE('',*,*,#571,.T.);
#225=ORIENTED_EDGE('',*,*,#567,.F.);
#226=ORIENTED_EDGE('',*,*,#572,.T.);
#227=ORIENTED_EDGE('',*,*,#569,.F.);
#228=ORIENTED_EDGE('',*,*,#573,.T.);
#229=ORIENTED_EDGE('',*,*,#564,.F.);
#230=ORIENTED_EDGE('',*,*,#574,.T.);
#231=ORIENTED_EDGE('',*,*,#575,.T.);
#232=ORIENTED_EDGE('',*,*,#576,.T.);
#233=ORIENTED_EDGE('',*,*,#577,.F.);
#234=ORIENTED_EDGE('',*,*,#578,.T.);
#235=ORIENTED_EDGE('',*,*,#537,.F.);
#236=ORIENTED_EDGE('',*,*,#579,.T.);
#237=ORIENTED_EDGE('',*,*,#580,.T.);
#238=ORIENTED_EDGE('',*,*,#581,.T.);
#239=ORIENTED_EDGE('',*,*,#582,.F.);
#240=ORIENTED_EDGE('',*,*,#583,.F.);
#241=ORIENTED_EDGE('',*,*,#584,.T.);
#242=ORIENTED_EDGE('',*,*,#471,.T.);
#243=ORIENTED_EDGE('',*,*,#585,.T.);
#244=ORIENTED_EDGE('',*,*,#580,.F.);
#245=ORIENTED_EDGE('',*,*,#586,.F.);
#246=ORIENTED_EDGE('',*,*,#530,.T.);
#247=ORIENTED_EDGE('',*,*,#587,.T.);
#248=ORIENTED_EDGE('',*,*,#476,.F.);
#249=ORIENTED_EDGE('',*,*,#588,.F.);
#250=ORIENTED_EDGE('',*,*,#589,.F.);
#251=ORIENTED_EDGE('',*,*,#528,.F.);
#252=ORIENTED_EDGE('',*,*,#590,.T.);
#253=ORIENTED_EDGE('',*,*,#582,.T.);
#254=ORIENTED_EDGE('',*,*,#591,.F.);
#255=ORIENTED_EDGE('',*,*,#473,.F.);
#256=ORIENTED_EDGE('',*,*,#591,.T.);
#257=ORIENTED_EDGE('',*,*,#581,.F.);
#258=ORIENTED_EDGE('',*,*,#585,.F.);
#259=ORIENTED_EDGE('',*,*,#470,.F.);
#260=ORIENTED_EDGE('',*,*,#592,.F.);
#261=ORIENTED_EDGE('',*,*,#593,.T.);
#262=ORIENTED_EDGE('',*,*,#499,.T.);
#263=ORIENTED_EDGE('',*,*,#468,.F.);
#264=ORIENTED_EDGE('',*,*,#584,.F.);
#265=ORIENTED_EDGE('',*,*,#594,.T.);
#266=ORIENTED_EDGE('',*,*,#588,.T.);
#267=ORIENTED_EDGE('',*,*,#475,.F.);
#268=ORIENTED_EDGE('',*,*,#498,.T.);
#269=ORIENTED_EDGE('',*,*,#595,.T.);
#270=ORIENTED_EDGE('',*,*,#596,.F.);
#271=ORIENTED_EDGE('',*,*,#529,.T.);
#272=ORIENTED_EDGE('',*,*,#589,.T.);
#273=ORIENTED_EDGE('',*,*,#594,.F.);
#274=ORIENTED_EDGE('',*,*,#587,.F.);
#275=ORIENTED_EDGE('',*,*,#526,.T.);
#276=ORIENTED_EDGE('',*,*,#597,.F.);
#277=ORIENTED_EDGE('',*,*,#598,.F.);
#278=ORIENTED_EDGE('',*,*,#599,.F.);
#279=ORIENTED_EDGE('',*,*,#600,.F.);
#280=ORIENTED_EDGE('',*,*,#601,.F.);
#281=ORIENTED_EDGE('',*,*,#598,.T.);
#282=ORIENTED_EDGE('',*,*,#576,.F.);
#283=ORIENTED_EDGE('',*,*,#532,.T.);
#284=ORIENTED_EDGE('',*,*,#602,.F.);
#285=ORIENTED_EDGE('',*,*,#600,.T.);
#286=ORIENTED_EDGE('',*,*,#603,.F.);
#287=ORIENTED_EDGE('',*,*,#599,.T.);
#288=ORIENTED_EDGE('',*,*,#601,.T.);
#289=ORIENTED_EDGE('',*,*,#602,.T.);
#290=ORIENTED_EDGE('',*,*,#531,.F.);
#291=ORIENTED_EDGE('',*,*,#586,.T.);
#292=ORIENTED_EDGE('',*,*,#583,.T.);
#293=ORIENTED_EDGE('',*,*,#590,.F.);
#294=ORIENTED_EDGE('',*,*,#527,.F.);
#295=ORIENTED_EDGE('',*,*,#525,.T.);
#296=ORIENTED_EDGE('',*,*,#542,.F.);
#297=ORIENTED_EDGE('',*,*,#604,.T.);
#298=ORIENTED_EDGE('',*,*,#577,.T.);
#299=ORIENTED_EDGE('',*,*,#597,.T.);
#300=ORIENTED_EDGE('',*,*,#533,.T.);
#301=ORIENTED_EDGE('',*,*,#603,.T.);
#302=ORIENTED_EDGE('',*,*,#575,.F.);
#303=ORIENTED_EDGE('',*,*,#605,.T.);
#304=ORIENTED_EDGE('',*,*,#535,.T.);
#305=ORIENTED_EDGE('',*,*,#595,.F.);
#306=ORIENTED_EDGE('',*,*,#501,.F.);
#307=ORIENTED_EDGE('',*,*,#606,.F.);
#308=ORIENTED_EDGE('',*,*,#607,.T.);
#309=ORIENTED_EDGE('',*,*,#593,.F.);
#310=ORIENTED_EDGE('',*,*,#608,.T.);
#311=ORIENTED_EDGE('',*,*,#606,.T.);
#312=ORIENTED_EDGE('',*,*,#500,.F.);
#313=ORIENTED_EDGE('',*,*,#469,.F.);
#314=ORIENTED_EDGE('',*,*,#596,.T.);
#315=ORIENTED_EDGE('',*,*,#607,.F.);
#316=ORIENTED_EDGE('',*,*,#608,.F.);
#317=ORIENTED_EDGE('',*,*,#592,.T.);
#318=ORIENTED_EDGE('',*,*,#543,.T.);
#319=ORIENTED_EDGE('',*,*,#609,.T.);
#320=ORIENTED_EDGE('',*,*,#478,.T.);
#321=ORIENTED_EDGE('',*,*,#610,.T.);
#322=ORIENTED_EDGE('',*,*,#545,.T.);
#323=ORIENTED_EDGE('',*,*,#611,.T.);
#324=ORIENTED_EDGE('',*,*,#482,.T.);
#325=ORIENTED_EDGE('',*,*,#612,.T.);
#326=ORIENTED_EDGE('',*,*,#480,.T.);
#327=ORIENTED_EDGE('',*,*,#613,.T.);
#328=ORIENTED_EDGE('',*,*,#547,.T.);
#329=ORIENTED_EDGE('',*,*,#614,.T.);
#330=ORIENTED_EDGE('',*,*,#548,.F.);
#331=ORIENTED_EDGE('',*,*,#613,.F.);
#332=ORIENTED_EDGE('',*,*,#479,.F.);
#333=ORIENTED_EDGE('',*,*,#609,.F.);
#334=ORIENTED_EDGE('',*,*,#544,.F.);
#335=ORIENTED_EDGE('',*,*,#610,.F.);
#336=ORIENTED_EDGE('',*,*,#483,.F.);
#337=ORIENTED_EDGE('',*,*,#611,.F.);
#338=ORIENTED_EDGE('',*,*,#546,.F.);
#339=ORIENTED_EDGE('',*,*,#612,.F.);
#340=ORIENTED_EDGE('',*,*,#481,.F.);
#341=ORIENTED_EDGE('',*,*,#614,.F.);
#342=ORIENTED_EDGE('',*,*,#511,.F.);
#343=ORIENTED_EDGE('',*,*,#538,.F.);
#344=ORIENTED_EDGE('',*,*,#578,.F.);
#345=ORIENTED_EDGE('',*,*,#604,.F.);
#346=ORIENTED_EDGE('',*,*,#541,.F.);
#347=ORIENTED_EDGE('',*,*,#509,.F.);
#348=ORIENTED_EDGE('',*,*,#536,.F.);
#349=ORIENTED_EDGE('',*,*,#605,.F.);
#350=ORIENTED_EDGE('',*,*,#579,.F.);
#351=ORIENTED_EDGE('',*,*,#539,.F.);
#352=ORIENTED_EDGE('',*,*,#553,.F.);
#353=ORIENTED_EDGE('',*,*,#615,.T.);
#354=ORIENTED_EDGE('',*,*,#559,.F.);
#355=ORIENTED_EDGE('',*,*,#616,.T.);
#356=ORIENTED_EDGE('',*,*,#561,.F.);
#357=ORIENTED_EDGE('',*,*,#617,.T.);
#358=ORIENTED_EDGE('',*,*,#492,.F.);
#359=ORIENTED_EDGE('',*,*,#618,.T.);
#360=ORIENTED_EDGE('',*,*,#491,.F.);
#361=ORIENTED_EDGE('',*,*,#619,.T.);
#362=ORIENTED_EDGE('',*,*,#562,.F.);
#363=ORIENTED_EDGE('',*,*,#618,.F.);
#364=ORIENTED_EDGE('',*,*,#566,.F.);
#365=ORIENTED_EDGE('',*,*,#620,.T.);
#366=ORIENTED_EDGE('',*,*,#554,.F.);
#367=ORIENTED_EDGE('',*,*,#616,.F.);
#368=ORIENTED_EDGE('',*,*,#620,.F.);
#369=ORIENTED_EDGE('',*,*,#565,.F.);
#370=ORIENTED_EDGE('',*,*,#621,.F.);
#371=ORIENTED_EDGE('',*,*,#555,.F.);
#372=ORIENTED_EDGE('',*,*,#621,.T.);
#373=ORIENTED_EDGE('',*,*,#573,.F.);
#374=ORIENTED_EDGE('',*,*,#622,.F.);
#375=ORIENTED_EDGE('',*,*,#556,.F.);
#376=ORIENTED_EDGE('',*,*,#622,.T.);
#377=ORIENTED_EDGE('',*,*,#568,.F.);
#378=ORIENTED_EDGE('',*,*,#623,.F.);
#379=ORIENTED_EDGE('',*,*,#557,.F.);
#380=ORIENTED_EDGE('',*,*,#623,.T.);
#381=ORIENTED_EDGE('',*,*,#571,.F.);
#382=ORIENTED_EDGE('',*,*,#624,.F.);
#383=ORIENTED_EDGE('',*,*,#558,.F.);
#384=ORIENTED_EDGE('',*,*,#520,.F.);
#385=ORIENTED_EDGE('',*,*,#625,.T.);
#386=ORIENTED_EDGE('',*,*,#551,.F.);
#387=ORIENTED_EDGE('',*,*,#549,.F.);
#388=ORIENTED_EDGE('',*,*,#624,.T.);
#389=ORIENTED_EDGE('',*,*,#619,.F.);
#390=ORIENTED_EDGE('',*,*,#490,.F.);
#391=ORIENTED_EDGE('',*,*,#626,.F.);
#392=ORIENTED_EDGE('',*,*,#563,.F.);
#393=ORIENTED_EDGE('',*,*,#626,.T.);
#394=ORIENTED_EDGE('',*,*,#489,.F.);
#395=ORIENTED_EDGE('',*,*,#627,.F.);
#396=ORIENTED_EDGE('',*,*,#574,.F.);
#397=ORIENTED_EDGE('',*,*,#627,.T.);
#398=ORIENTED_EDGE('',*,*,#488,.F.);
#399=ORIENTED_EDGE('',*,*,#628,.F.);
#400=ORIENTED_EDGE('',*,*,#570,.F.);
#401=ORIENTED_EDGE('',*,*,#628,.T.);
#402=ORIENTED_EDGE('',*,*,#487,.F.);
#403=ORIENTED_EDGE('',*,*,#629,.F.);
#404=ORIENTED_EDGE('',*,*,#572,.F.);
#405=ORIENTED_EDGE('',*,*,#484,.F.);
#406=ORIENTED_EDGE('',*,*,#630,.T.);
#407=ORIENTED_EDGE('',*,*,#631,.T.);
#408=ORIENTED_EDGE('',*,*,#522,.F.);
#409=ORIENTED_EDGE('',*,*,#629,.T.);
#410=ORIENTED_EDGE('',*,*,#486,.F.);
#411=ORIENTED_EDGE('',*,*,#523,.F.);
#412=ORIENTED_EDGE('',*,*,#631,.F.);
#413=ORIENTED_EDGE('',*,*,#632,.F.);
#414=ORIENTED_EDGE('',*,*,#513,.F.);
#415=ORIENTED_EDGE('',*,*,#540,.F.);
#416=ORIENTED_EDGE('',*,*,#630,.F.);
#417=ORIENTED_EDGE('',*,*,#493,.F.);
#418=ORIENTED_EDGE('',*,*,#633,.F.);
#419=ORIENTED_EDGE('',*,*,#514,.F.);
#420=ORIENTED_EDGE('',*,*,#632,.T.);
#421=ORIENTED_EDGE('',*,*,#633,.T.);
#422=ORIENTED_EDGE('',*,*,#617,.F.);
#423=ORIENTED_EDGE('',*,*,#634,.F.);
#424=ORIENTED_EDGE('',*,*,#515,.F.);
#425=ORIENTED_EDGE('',*,*,#634,.T.);
#426=ORIENTED_EDGE('',*,*,#560,.F.);
#427=ORIENTED_EDGE('',*,*,#635,.F.);
#428=ORIENTED_EDGE('',*,*,#516,.F.);
#429=ORIENTED_EDGE('',*,*,#635,.T.);
#430=ORIENTED_EDGE('',*,*,#615,.F.);
#431=ORIENTED_EDGE('',*,*,#636,.F.);
#432=ORIENTED_EDGE('',*,*,#517,.F.);
#433=ORIENTED_EDGE('',*,*,#636,.T.);
#434=ORIENTED_EDGE('',*,*,#552,.F.);
#435=ORIENTED_EDGE('',*,*,#637,.F.);
#436=ORIENTED_EDGE('',*,*,#506,.F.);
#437=ORIENTED_EDGE('',*,*,#637,.T.);
#438=ORIENTED_EDGE('',*,*,#625,.F.);
#439=ORIENTED_EDGE('',*,*,#638,.F.);
#440=ORIENTED_EDGE('',*,*,#534,.F.);
#441=ORIENTED_EDGE('',*,*,#507,.F.);
#442=ORIENTED_EDGE('',*,*,#638,.T.);
#443=ORIENTED_EDGE('',*,*,#519,.F.);
#444=ORIENTED_EDGE('',*,*,#502,.T.);
#445=ORIENTED_EDGE('',*,*,#639,.T.);
#446=ORIENTED_EDGE('',*,*,#495,.F.);
#447=ORIENTED_EDGE('',*,*,#640,.F.);
#448=ORIENTED_EDGE('',*,*,#640,.T.);
#449=ORIENTED_EDGE('',*,*,#494,.T.);
#450=ORIENTED_EDGE('',*,*,#641,.F.);
#451=ORIENTED_EDGE('',*,*,#503,.F.);
#452=ORIENTED_EDGE('',*,*,#641,.T.);
#453=ORIENTED_EDGE('',*,*,#497,.T.);
#454=ORIENTED_EDGE('',*,*,#642,.F.);
#455=ORIENTED_EDGE('',*,*,#504,.F.);
#456=ORIENTED_EDGE('',*,*,#505,.T.);
#457=ORIENTED_EDGE('',*,*,#642,.T.);
#458=ORIENTED_EDGE('',*,*,#496,.F.);
#459=ORIENTED_EDGE('',*,*,#639,.F.);
#460=ORIENTED_EDGE('',*,*,#643,.T.);
#461=ORIENTED_EDGE('',*,*,#477,.T.);
#462=ORIENTED_EDGE('',*,*,#643,.F.);
#463=ORIENTED_EDGE('',*,*,#485,.T.);
#464=ORIENTED_EDGE('',*,*,#644,.T.);
#465=ORIENTED_EDGE('',*,*,#472,.T.);
#466=ORIENTED_EDGE('',*,*,#644,.F.);
#467=ORIENTED_EDGE('',*,*,#550,.T.);
#468=EDGE_CURVE('',#645,#646,#758,.T.);
#469=EDGE_CURVE('',#646,#647,#73,.T.);
#470=EDGE_CURVE('',#647,#648,#759,.F.);
#471=EDGE_CURVE('',#645,#648,#74,.T.);
#472=EDGE_CURVE('',#649,#649,#75,.F.);
#473=EDGE_CURVE('',#650,#651,#760,.F.);
#474=EDGE_CURVE('',#652,#651,#76,.T.);
#475=EDGE_CURVE('',#652,#653,#761,.T.);
#476=EDGE_CURVE('',#653,#650,#77,.T.);
#477=EDGE_CURVE('',#654,#654,#78,.F.);
#478=EDGE_CURVE('',#655,#656,#762,.T.);
#479=EDGE_CURVE('',#655,#657,#79,.F.);
#480=EDGE_CURVE('',#658,#657,#763,.T.);
#481=EDGE_CURVE('',#658,#659,#80,.F.);
#482=EDGE_CURVE('',#660,#659,#764,.T.);
#483=EDGE_CURVE('',#660,#656,#81,.F.);
#484=EDGE_CURVE('',#661,#662,#765,.T.);
#485=EDGE_CURVE('',#662,#662,#82,.T.);
#486=EDGE_CURVE('',#662,#663,#766,.T.);
#487=EDGE_CURVE('',#663,#664,#83,.T.);
#488=EDGE_CURVE('',#664,#665,#767,.T.);
#489=EDGE_CURVE('',#665,#666,#84,.T.);
#490=EDGE_CURVE('',#666,#667,#768,.F.);
#491=EDGE_CURVE('',#667,#668,#27,.T.);
#492=EDGE_CURVE('',#668,#669,#769,.F.);
#493=EDGE_CURVE('',#669,#661,#770,.T.);
#494=EDGE_CURVE('',#670,#671,#771,.T.);
#495=EDGE_CURVE('',#670,#672,#772,.T.);
#496=EDGE_CURVE('',#672,#673,#773,.T.);
#497=EDGE_CURVE('',#671,#673,#774,.T.);
#498=EDGE_CURVE('',#652,#674,#775,.T.);
#499=EDGE_CURVE('',#675,#651,#776,.T.);
#500=EDGE_CURVE('',#675,#676,#777,.T.);
#501=EDGE_CURVE('',#676,#674,#778,.T.);
#502=EDGE_CURVE('',#677,#678,#779,.T.);
#503=EDGE_CURVE('',#677,#679,#780,.T.);
#504=EDGE_CURVE('',#679,#680,#781,.T.);
#505=EDGE_CURVE('',#678,#680,#782,.T.);
#506=EDGE_CURVE('',#681,#682,#783,.T.);
#507=EDGE_CURVE('',#682,#683,#784,.T.);
#508=EDGE_CURVE('',#684,#683,#785,.T.);
#509=EDGE_CURVE('',#684,#685,#85,.T.);
#510=EDGE_CURVE('',#685,#686,#786,.T.);
#511=EDGE_CURVE('',#686,#687,#86,.T.);
#512=EDGE_CURVE('',#687,#688,#787,.T.);
#513=EDGE_CURVE('',#688,#689,#788,.T.);
#514=EDGE_CURVE('',#689,#690,#789,.T.);
#515=EDGE_CURVE('',#690,#691,#87,.F.);
#516=EDGE_CURVE('',#691,#692,#790,.T.);
#517=EDGE_CURVE('',#692,#681,#88,.F.);
#518=EDGE_CURVE('',#693,#694,#791,.T.);
#519=EDGE_CURVE('',#694,#695,#792,.T.);
#520=EDGE_CURVE('',#695,#696,#793,.T.);
#521=EDGE_CURVE('',#696,#697,#794,.F.);
#522=EDGE_CURVE('',#697,#698,#795,.F.);
#523=EDGE_CURVE('',#698,#699,#796,.T.);
#524=EDGE_CURVE('',#700,#699,#797,.T.);
#525=EDGE_CURVE('',#701,#700,#798,.F.);
#526=EDGE_CURVE('',#702,#701,#799,.T.);
#527=EDGE_CURVE('',#702,#703,#800,.T.);
#528=EDGE_CURVE('',#703,#704,#801,.T.);
#529=EDGE_CURVE('',#705,#704,#802,.T.);
#530=EDGE_CURVE('',#706,#705,#803,.T.);
#531=EDGE_CURVE('',#706,#707,#804,.T.);
#532=EDGE_CURVE('',#708,#707,#805,.T.);
#533=EDGE_CURVE('',#693,#708,#806,.F.);
#534=EDGE_CURVE('',#683,#694,#807,.T.);
#535=EDGE_CURVE('',#709,#693,#808,.F.);
#536=EDGE_CURVE('',#709,#684,#809,.F.);
#537=EDGE_CURVE('',#710,#711,#810,.F.);
#538=EDGE_CURVE('',#711,#686,#811,.F.);
#539=EDGE_CURVE('',#685,#710,#812,.T.);
#540=EDGE_CURVE('',#699,#688,#813,.T.);
#541=EDGE_CURVE('',#687,#712,#814,.T.);
#542=EDGE_CURVE('',#712,#700,#815,.F.);
#543=EDGE_CURVE('',#713,#714,#816,.T.);
#544=EDGE_CURVE('',#713,#715,#89,.F.);
#545=EDGE_CURVE('',#716,#715,#817,.T.);
#546=EDGE_CURVE('',#716,#717,#90,.F.);
#547=EDGE_CURVE('',#718,#717,#818,.T.);
#548=EDGE_CURVE('',#718,#714,#91,.F.);
#549=EDGE_CURVE('',#719,#720,#819,.F.);
#550=EDGE_CURVE('',#720,#720,#92,.T.);
#551=EDGE_CURVE('',#720,#721,#820,.F.);
#552=EDGE_CURVE('',#721,#722,#821,.T.);
#553=EDGE_CURVE('',#722,#723,#822,.T.);
#554=EDGE_CURVE('',#723,#724,#28,.F.);
#555=EDGE_CURVE('',#724,#725,#823,.T.);
#556=EDGE_CURVE('',#725,#726,#93,.T.);
#557=EDGE_CURVE('',#726,#727,#824,.F.);
#558=EDGE_CURVE('',#727,#719,#94,.T.);
#559=EDGE_CURVE('',#728,#729,#825,.F.);
#560=EDGE_CURVE('',#729,#730,#826,.T.);
#561=EDGE_CURVE('',#730,#731,#827,.T.);
#562=EDGE_CURVE('',#731,#732,#29,.F.);
#563=EDGE_CURVE('',#732,#733,#828,.T.);
#564=EDGE_CURVE('',#733,#734,#829,.F.);
#565=EDGE_CURVE('',#734,#735,#830,.F.);
#566=EDGE_CURVE('',#735,#728,#30,.T.);
#567=EDGE_CURVE('',#736,#737,#831,.T.);
#568=EDGE_CURVE('',#737,#738,#832,.T.);
#569=EDGE_CURVE('',#738,#739,#833,.T.);
#570=EDGE_CURVE('',#739,#736,#834,.F.);
#571=EDGE_CURVE('',#696,#737,#95,.F.);
#572=EDGE_CURVE('',#736,#697,#96,.F.);
#573=EDGE_CURVE('',#738,#734,#97,.F.);
#574=EDGE_CURVE('',#733,#739,#98,.F.);
#575=EDGE_CURVE('',#740,#741,#835,.T.);
#576=EDGE_CURVE('',#741,#742,#836,.F.);
#577=EDGE_CURVE('',#743,#742,#837,.T.);
#578=EDGE_CURVE('',#743,#711,#21,.F.);
#579=EDGE_CURVE('',#710,#740,#22,.F.);
#580=EDGE_CURVE('',#744,#745,#838,.T.);
#581=EDGE_CURVE('',#745,#746,#839,.T.);
#582=EDGE_CURVE('',#747,#746,#840,.T.);
#583=EDGE_CURVE('',#744,#747,#841,.T.);
#584=EDGE_CURVE('',#748,#645,#842,.T.);
#585=EDGE_CURVE('',#648,#745,#843,.T.);
#586=EDGE_CURVE('',#706,#744,#844,.T.);
#587=EDGE_CURVE('',#705,#748,#845,.T.);
#588=EDGE_CURVE('',#749,#653,#846,.T.);
#589=EDGE_CURVE('',#704,#749,#847,.T.);
#590=EDGE_CURVE('',#703,#747,#848,.T.);
#591=EDGE_CURVE('',#650,#746,#849,.T.);
#592=EDGE_CURVE('',#750,#647,#850,.T.);
#593=EDGE_CURVE('',#750,#675,#851,.T.);
#594=EDGE_CURVE('',#748,#749,#852,.T.);
#595=EDGE_CURVE('',#674,#751,#853,.T.);
#596=EDGE_CURVE('',#646,#751,#854,.T.);
#597=EDGE_CURVE('',#742,#701,#855,.F.);
#598=EDGE_CURVE('',#752,#742,#856,.T.);
#599=EDGE_CURVE('',#702,#752,#857,.T.);
#600=EDGE_CURVE('',#753,#741,#858,.T.);
#601=EDGE_CURVE('',#752,#753,#859,.T.);
#602=EDGE_CURVE('',#753,#707,#860,.T.);
#603=EDGE_CURVE('',#708,#741,#861,.F.);
#604=EDGE_CURVE('',#712,#743,#23,.F.);
#605=EDGE_CURVE('',#740,#709,#24,.F.);
#606=EDGE_CURVE('',#754,#676,#862,.T.);
#607=EDGE_CURVE('',#754,#751,#863,.T.);
#608=EDGE_CURVE('',#750,#754,#864,.T.);
#609=EDGE_CURVE('',#714,#655,#865,.T.);
#610=EDGE_CURVE('',#656,#713,#866,.F.);
#611=EDGE_CURVE('',#715,#660,#867,.T.);
#612=EDGE_CURVE('',#659,#716,#868,.F.);
#613=EDGE_CURVE('',#657,#718,#869,.F.);
#614=EDGE_CURVE('',#717,#658,#870,.T.);
#615=EDGE_CURVE('',#722,#729,#99,.T.);
#616=EDGE_CURVE('',#728,#723,#100,.T.);
#617=EDGE_CURVE('',#730,#669,#101,.T.);
#618=EDGE_CURVE('',#668,#731,#102,.T.);
#619=EDGE_CURVE('',#667,#732,#31,.T.);
#620=EDGE_CURVE('',#735,#724,#32,.T.);
#621=EDGE_CURVE('',#725,#734,#103,.T.);
#622=EDGE_CURVE('',#726,#738,#104,.T.);
#623=EDGE_CURVE('',#727,#737,#105,.T.);
#624=EDGE_CURVE('',#719,#696,#106,.T.);
#625=EDGE_CURVE('',#695,#721,#107,.T.);
#626=EDGE_CURVE('',#733,#666,#108,.T.);
#627=EDGE_CURVE('',#739,#665,#109,.T.);
#628=EDGE_CURVE('',#736,#664,#110,.T.);
#629=EDGE_CURVE('',#697,#663,#111,.T.);
#630=EDGE_CURVE('',#661,#755,#25,.F.);
#631=EDGE_CURVE('',#755,#698,#26,.F.);
#632=EDGE_CURVE('',#689,#755,#871,.F.);
#633=EDGE_CURVE('',#690,#669,#872,.T.);
#634=EDGE_CURVE('',#691,#730,#873,.T.);
#635=EDGE_CURVE('',#692,#729,#874,.T.);
#636=EDGE_CURVE('',#681,#722,#875,.T.);
#637=EDGE_CURVE('',#682,#721,#876,.T.);
#638=EDGE_CURVE('',#682,#695,#877,.T.);
#639=EDGE_CURVE('',#678,#672,#878,.T.);
#640=EDGE_CURVE('',#677,#670,#879,.T.);
#641=EDGE_CURVE('',#679,#671,#880,.T.);
#642=EDGE_CURVE('',#680,#673,#881,.T.);
#643=EDGE_CURVE('',#756,#756,#112,.T.);
#644=EDGE_CURVE('',#757,#757,#113,.T.);
#645=VERTEX_POINT('',#1736);
#646=VERTEX_POINT('',#1737);
#647=VERTEX_POINT('',#1739);
#648=VERTEX_POINT('',#1741);
#649=VERTEX_POINT('',#1744);
#650=VERTEX_POINT('',#1747);
#651=VERTEX_POINT('',#1748);
#652=VERTEX_POINT('',#1750);
#653=VERTEX_POINT('',#1752);
#654=VERTEX_POINT('',#1755);
#655=VERTEX_POINT('',#1758);
#656=VERTEX_POINT('',#1759);
#657=VERTEX_POINT('',#1761);
#658=VERTEX_POINT('',#1763);
#659=VERTEX_POINT('',#1765);
#660=VERTEX_POINT('',#1767);
#661=VERTEX_POINT('',#1770);
#662=VERTEX_POINT('',#1771);
#663=VERTEX_POINT('',#1774);
#664=VERTEX_POINT('',#1776);
#665=VERTEX_POINT('',#1778);
#666=VERTEX_POINT('',#1780);
#667=VERTEX_POINT('',#1782);
#668=VERTEX_POINT('',#1787);
#669=VERTEX_POINT('',#1789);
#670=VERTEX_POINT('',#1792);
#671=VERTEX_POINT('',#1793);
#672=VERTEX_POINT('',#1795);
#673=VERTEX_POINT('',#1797);
#674=VERTEX_POINT('',#1801);
#675=VERTEX_POINT('',#1803);
#676=VERTEX_POINT('',#1805);
#677=VERTEX_POINT('',#1808);
#678=VERTEX_POINT('',#1809);
#679=VERTEX_POINT('',#1811);
#680=VERTEX_POINT('',#1813);
#681=VERTEX_POINT('',#1817);
#682=VERTEX_POINT('',#1818);
#683=VERTEX_POINT('',#1820);
#684=VERTEX_POINT('',#1822);
#685=VERTEX_POINT('',#1824);
#686=VERTEX_POINT('',#1826);
#687=VERTEX_POINT('',#1828);
#688=VERTEX_POINT('',#1830);
#689=VERTEX_POINT('',#1832);
#690=VERTEX_POINT('',#1834);
#691=VERTEX_POINT('',#1836);
#692=VERTEX_POINT('',#1838);
#693=VERTEX_POINT('',#1842);
#694=VERTEX_POINT('',#1843);
#695=VERTEX_POINT('',#1845);
#696=VERTEX_POINT('',#1847);
#697=VERTEX_POINT('',#1849);
#698=VERTEX_POINT('',#1851);
#699=VERTEX_POINT('',#1853);
#700=VERTEX_POINT('',#1855);
#701=VERTEX_POINT('',#1857);
#702=VERTEX_POINT('',#1859);
#703=VERTEX_POINT('',#1861);
#704=VERTEX_POINT('',#1863);
#705=VERTEX_POINT('',#1865);
#706=VERTEX_POINT('',#1867);
#707=VERTEX_POINT('',#1869);
#708=VERTEX_POINT('',#1871);
#709=VERTEX_POINT('',#1876);
#710=VERTEX_POINT('',#1880);
#711=VERTEX_POINT('',#1881);
#712=VERTEX_POINT('',#1887);
#713=VERTEX_POINT('',#1891);
#714=VERTEX_POINT('',#1892);
#715=VERTEX_POINT('',#1894);
#716=VERTEX_POINT('',#1896);
#717=VERTEX_POINT('',#1898);
#718=VERTEX_POINT('',#1900);
#719=VERTEX_POINT('',#1903);
#720=VERTEX_POINT('',#1904);
#721=VERTEX_POINT('',#1907);
#722=VERTEX_POINT('',#1909);
#723=VERTEX_POINT('',#1911);
#724=VERTEX_POINT('',#1916);
#725=VERTEX_POINT('',#1918);
#726=VERTEX_POINT('',#1920);
#727=VERTEX_POINT('',#1922);
#728=VERTEX_POINT('',#1926);
#729=VERTEX_POINT('',#1927);
#730=VERTEX_POINT('',#1929);
#731=VERTEX_POINT('',#1931);
#732=VERTEX_POINT('',#1936);
#733=VERTEX_POINT('',#1938);
#734=VERTEX_POINT('',#1940);
#735=VERTEX_POINT('',#1942);
#736=VERTEX_POINT('',#1949);
#737=VERTEX_POINT('',#1950);
#738=VERTEX_POINT('',#1952);
#739=VERTEX_POINT('',#1954);
#740=VERTEX_POINT('',#1964);
#741=VERTEX_POINT('',#1965);
#742=VERTEX_POINT('',#1967);
#743=VERTEX_POINT('',#1969);
#744=VERTEX_POINT('',#1974);
#745=VERTEX_POINT('',#1975);
#746=VERTEX_POINT('',#1977);
#747=VERTEX_POINT('',#1979);
#748=VERTEX_POINT('',#1983);
#749=VERTEX_POINT('',#1989);
#750=VERTEX_POINT('',#1995);
#751=VERTEX_POINT('',#2000);
#752=VERTEX_POINT('',#2006);
#753=VERTEX_POINT('',#2010);
#754=VERTEX_POINT('',#2022);
#755=VERTEX_POINT('',#2079);
#756=VERTEX_POINT('',#2106);
#757=VERTEX_POINT('',#2110);
#758=LINE('',#1735,#882);
#759=LINE('',#1740,#883);
#760=LINE('',#1746,#884);
#761=LINE('',#1751,#885);
#762=LINE('',#1757,#886);
#763=LINE('',#1762,#887);
#764=LINE('',#1766,#888);
#765=LINE('',#1769,#889);
#766=LINE('',#1773,#890);
#767=LINE('',#1777,#891);
#768=LINE('',#1781,#892);
#769=LINE('',#1788,#893);
#770=LINE('',#1790,#894);
#771=LINE('',#1791,#895);
#772=LINE('',#1794,#896);
#773=LINE('',#1796,#897);
#774=LINE('',#1798,#898);
#775=LINE('',#1800,#899);
#776=LINE('',#1802,#900);
#777=LINE('',#1804,#901);
#778=LINE('',#1806,#902);
#779=LINE('',#1807,#903);
#780=LINE('',#1810,#904);
#781=LINE('',#1812,#905);
#782=LINE('',#1814,#906);
#783=LINE('',#1816,#907);
#784=LINE('',#1819,#908);
#785=LINE('',#1821,#909);
#786=LINE('',#1825,#910);
#787=LINE('',#1829,#911);
#788=LINE('',#1831,#912);
#789=LINE('',#1833,#913);
#790=LINE('',#1837,#914);
#791=LINE('',#1841,#915);
#792=LINE('',#1844,#916);
#793=LINE('',#1846,#917);
#794=LINE('',#1848,#918);
#795=LINE('',#1850,#919);
#796=LINE('',#1852,#920);
#797=LINE('',#1854,#921);
#798=LINE('',#1856,#922);
#799=LINE('',#1858,#923);
#800=LINE('',#1860,#924);
#801=LINE('',#1862,#925);
#802=LINE('',#1864,#926);
#803=LINE('',#1866,#927);
#804=LINE('',#1868,#928);
#805=LINE('',#1870,#929);
#806=LINE('',#1872,#930);
#807=LINE('',#1874,#931);
#808=LINE('',#1875,#932);
#809=LINE('',#1877,#933);
#810=LINE('',#1879,#934);
#811=LINE('',#1882,#935);
#812=LINE('',#1883,#936);
#813=LINE('',#1885,#937);
#814=LINE('',#1886,#938);
#815=LINE('',#1888,#939);
#816=LINE('',#1890,#940);
#817=LINE('',#1895,#941);
#818=LINE('',#1899,#942);
#819=LINE('',#1902,#943);
#820=LINE('',#1906,#944);
#821=LINE('',#1908,#945);
#822=LINE('',#1910,#946);
#823=LINE('',#1917,#947);
#824=LINE('',#1921,#948);
#825=LINE('',#1925,#949);
#826=LINE('',#1928,#950);
#827=LINE('',#1930,#951);
#828=LINE('',#1937,#952);
#829=LINE('',#1939,#953);
#830=LINE('',#1941,#954);
#831=LINE('',#1948,#955);
#832=LINE('',#1951,#956);
#833=LINE('',#1953,#957);
#834=LINE('',#1955,#958);
#835=LINE('',#1963,#959);
#836=LINE('',#1966,#960);
#837=LINE('',#1968,#961);
#838=LINE('',#1973,#962);
#839=LINE('',#1976,#963);
#840=LINE('',#1978,#964);
#841=LINE('',#1980,#965);
#842=LINE('',#1982,#966);
#843=LINE('',#1984,#967);
#844=LINE('',#1985,#968);
#845=LINE('',#1986,#969);
#846=LINE('',#1988,#970);
#847=LINE('',#1990,#971);
#848=LINE('',#1991,#972);
#849=LINE('',#1992,#973);
#850=LINE('',#1994,#974);
#851=LINE('',#1996,#975);
#852=LINE('',#1998,#976);
#853=LINE('',#1999,#977);
#854=LINE('',#2001,#978);
#855=LINE('',#2004,#979);
#856=LINE('',#2005,#980);
#857=LINE('',#2007,#981);
#858=LINE('',#2009,#982);
#859=LINE('',#2011,#983);
#860=LINE('',#2013,#984);
#861=LINE('',#2014,#985);
#862=LINE('',#2021,#986);
#863=LINE('',#2023,#987);
#864=LINE('',#2025,#988);
#865=LINE('',#2028,#989);
#866=LINE('',#2029,#990);
#867=LINE('',#2031,#991);
#868=LINE('',#2032,#992);
#869=LINE('',#2034,#993);
#870=LINE('',#2035,#994);
#871=LINE('',#2082,#995);
#872=LINE('',#2084,#996);
#873=LINE('',#2086,#997);
#874=LINE('',#2088,#998);
#875=LINE('',#2090,#999);
#876=LINE('',#2092,#1000);
#877=LINE('',#2094,#1001);
#878=LINE('',#2097,#1002);
#879=LINE('',#2098,#1003);
#880=LINE('',#2100,#1004);
#881=LINE('',#2102,#1005);
#882=VECTOR('',#1381,1.);
#883=VECTOR('',#1384,1.);
#884=VECTOR('',#1391,1.);
#885=VECTOR('',#1394,1.);
#886=VECTOR('',#1401,1.);
#887=VECTOR('',#1404,1.);
#888=VECTOR('',#1407,1.);
#889=VECTOR('',#1410,1.);
#890=VECTOR('',#1413,1.);
#891=VECTOR('',#1416,1.);
#892=VECTOR('',#1419,1.);
#893=VECTOR('',#1420,1.);
#894=VECTOR('',#1421,1.);
#895=VECTOR('',#1422,1.);
#896=VECTOR('',#1423,1.);
#897=VECTOR('',#1424,1.);
#898=VECTOR('',#1425,1.);
#899=VECTOR('',#1428,1.);
#900=VECTOR('',#1429,1.);
#901=VECTOR('',#1430,1.);
#902=VECTOR('',#1431,1.);
#903=VECTOR('',#1432,1.);
#904=VECTOR('',#1433,1.);
#905=VECTOR('',#1434,1.);
#906=VECTOR('',#1435,1.);
#907=VECTOR('',#1438,1.);
#908=VECTOR('',#1439,1.);
#909=VECTOR('',#1440,1.);
#910=VECTOR('',#1443,1.);
#911=VECTOR('',#1446,1.);
#912=VECTOR('',#1447,1.);
#913=VECTOR('',#1448,1.);
#914=VECTOR('',#1451,1.);
#915=VECTOR('',#1456,1.);
#916=VECTOR('',#1457,1.);
#917=VECTOR('',#1458,1.);
#918=VECTOR('',#1459,1.);
#919=VECTOR('',#1460,1.);
#920=VECTOR('',#1461,1.);
#921=VECTOR('',#1462,1.);
#922=VECTOR('',#1463,1.);
#923=VECTOR('',#1464,1.);
#924=VECTOR('',#1465,1.);
#925=VECTOR('',#1466,1.);
#926=VECTOR('',#1467,1.);
#927=VECTOR('',#1468,1.);
#928=VECTOR('',#1469,1.);
#929=VECTOR('',#1470,1.);
#930=VECTOR('',#1471,1.);
#931=VECTOR('',#1474,1.);
#932=VECTOR('',#1475,1.);
#933=VECTOR('',#1476,1.);
#934=VECTOR('',#1479,1.);
#935=VECTOR('',#1480,1.);
#936=VECTOR('',#1481,1.);
#937=VECTOR('',#1484,1.);
#938=VECTOR('',#1485,1.);
#939=VECTOR('',#1486,1.);
#940=VECTOR('',#1489,1.);
#941=VECTOR('',#1492,1.);
#942=VECTOR('',#1495,1.);
#943=VECTOR('',#1498,1.);
#944=VECTOR('',#1501,1.);
#945=VECTOR('',#1502,1.);
#946=VECTOR('',#1503,1.);
#947=VECTOR('',#1504,1.);
#948=VECTOR('',#1507,1.);
#949=VECTOR('',#1512,1.);
#950=VECTOR('',#1513,1.);
#951=VECTOR('',#1514,1.);
#952=VECTOR('',#1515,1.);
#953=VECTOR('',#1516,1.);
#954=VECTOR('',#1517,1.);
#955=VECTOR('',#1520,1.);
#956=VECTOR('',#1521,1.);
#957=VECTOR('',#1522,1.);
#958=VECTOR('',#1523,1.);
#959=VECTOR('',#1538,1.);
#960=VECTOR('',#1539,1.);
#961=VECTOR('',#1540,1.);
#962=VECTOR('',#1547,1.);
#963=VECTOR('',#1548,1.);
#964=VECTOR('',#1549,1.);
#965=VECTOR('',#1550,1.);
#966=VECTOR('',#1553,1.);
#967=VECTOR('',#1554,1.);
#968=VECTOR('',#1555,1.);
#969=VECTOR('',#1556,1.);
#970=VECTOR('',#1559,1.);
#971=VECTOR('',#1560,1.);
#972=VECTOR('',#1561,1.);
#973=VECTOR('',#1562,1.);
#974=VECTOR('',#1565,1.);
#975=VECTOR('',#1566,1.);
#976=VECTOR('',#1569,1.);
#977=VECTOR('',#1570,1.);
#978=VECTOR('',#1571,1.);
#979=VECTOR('',#1576,1.);
#980=VECTOR('',#1577,1.);
#981=VECTOR('',#1578,1.);
#982=VECTOR('',#1581,1.);
#983=VECTOR('',#1582,1.);
#984=VECTOR('',#1585,1.);
#985=VECTOR('',#1586,1.);
#986=VECTOR('',#1599,1.);
#987=VECTOR('',#1600,1.);
#988=VECTOR('',#1603,1.);
#989=VECTOR('',#1608,1.);
#990=VECTOR('',#1609,1.);
#991=VECTOR('',#1612,1.);
#992=VECTOR('',#1613,1.);
#993=VECTOR('',#1616,1.);
#994=VECTOR('',#1617,1.);
#995=VECTOR('',#1688,1.);
#996=VECTOR('',#1691,1.);
#997=VECTOR('',#1694,1.);
#998=VECTOR('',#1697,1.);
#999=VECTOR('',#1700,1.);
#1000=VECTOR('',#1703,1.);
#1001=VECTOR('',#1706,1.);
#1002=VECTOR('',#1711,1.);
#1003=VECTOR('',#1712,1.);
#1004=VECTOR('',#1715,1.);
#1005=VECTOR('',#1718,1.);
#1006=EDGE_LOOP('',(#114,#115,#116,#117));
#1007=EDGE_LOOP('',(#118));
#1008=EDGE_LOOP('',(#119,#120,#121,#122));
#1009=EDGE_LOOP('',(#123));
#1010=EDGE_LOOP('',(#124,#125,#126,#127,#128,#129));
#1011=EDGE_LOOP('',(#130,#131,#132,#133,#134,#135,#136,#137,#138,#139));
#1012=EDGE_LOOP('',(#140,#141,#142,#143));
#1013=EDGE_LOOP('',(#144,#145,#146,#147,#148));
#1014=EDGE_LOOP('',(#149,#150,#151,#152));
#1015=EDGE_LOOP('',(#153,#154,#155,#156,#157,#158,#159,#160,#161,#162,#163,
#164));
#1016=EDGE_LOOP('',(#165,#166,#167,#168,#169,#170,#171,#172,#173,#174,#175,
#176,#177,#178,#179,#180));
#1017=EDGE_LOOP('',(#181,#182,#183,#184,#185));
#1018=EDGE_LOOP('',(#186,#187,#188,#189));
#1019=EDGE_LOOP('',(#190,#191,#192,#193,#194));
#1020=EDGE_LOOP('',(#195,#196,#197,#198,#199,#200));
#1021=EDGE_LOOP('',(#201,#202,#203,#204,#205,#206,#207,#208,#209,#210));
#1022=EDGE_LOOP('',(#211,#212,#213,#214,#215,#216,#217,#218));
#1023=EDGE_LOOP('',(#219,#220,#221,#222));
#1024=EDGE_LOOP('',(#223,#224,#225,#226));
#1025=EDGE_LOOP('',(#227,#228,#229,#230));
#1026=EDGE_LOOP('',(#231,#232,#233,#234,#235,#236));
#1027=EDGE_LOOP('',(#237,#238,#239,#240));
#1028=EDGE_LOOP('',(#241,#242,#243,#244,#245,#246,#247));
#1029=EDGE_LOOP('',(#248,#249,#250,#251,#252,#253,#254));
#1030=EDGE_LOOP('',(#255,#256,#257,#258,#259,#260,#261,#262));
#1031=EDGE_LOOP('',(#263,#264,#265,#266,#267,#268,#269,#270));
#1032=EDGE_LOOP('',(#271,#272,#273,#274));
#1033=EDGE_LOOP('',(#275,#276,#277,#278));
#1034=EDGE_LOOP('',(#279,#280,#281,#282));
#1035=EDGE_LOOP('',(#283,#284,#285,#286));
#1036=EDGE_LOOP('',(#287,#288,#289,#290,#291,#292,#293,#294));
#1037=EDGE_LOOP('',(#295,#296,#297,#298,#299));
#1038=EDGE_LOOP('',(#300,#301,#302,#303,#304));
#1039=EDGE_LOOP('',(#305,#306,#307,#308));
#1040=EDGE_LOOP('',(#309,#310,#311,#312));
#1041=EDGE_LOOP('',(#313,#314,#315,#316,#317));
#1042=EDGE_LOOP('',(#318,#319,#320,#321));
#1043=EDGE_LOOP('',(#322,#323,#324,#325));
#1044=EDGE_LOOP('',(#326,#327,#328,#329));
#1045=EDGE_LOOP('',(#330,#331,#332,#333));
#1046=EDGE_LOOP('',(#334,#335,#336,#337));
#1047=EDGE_LOOP('',(#338,#339,#340,#341));
#1048=EDGE_LOOP('',(#342,#343,#344,#345,#346));
#1049=EDGE_LOOP('',(#347,#348,#349,#350,#351));
#1050=EDGE_LOOP('',(#352,#353,#354,#355));
#1051=EDGE_LOOP('',(#356,#357,#358,#359));
#1052=EDGE_LOOP('',(#360,#361,#362,#363));
#1053=EDGE_LOOP('',(#364,#365,#366,#367));
#1054=EDGE_LOOP('',(#368,#369,#370,#371));
#1055=EDGE_LOOP('',(#372,#373,#374,#375));
#1056=EDGE_LOOP('',(#376,#377,#378,#379));
#1057=EDGE_LOOP('',(#380,#381,#382,#383));
#1058=EDGE_LOOP('',(#384,#385,#386,#387,#388));
#1059=EDGE_LOOP('',(#389,#390,#391,#392));
#1060=EDGE_LOOP('',(#393,#394,#395,#396));
#1061=EDGE_LOOP('',(#397,#398,#399,#400));
#1062=EDGE_LOOP('',(#401,#402,#403,#404));
#1063=EDGE_LOOP('',(#405,#406,#407,#408,#409,#410));
#1064=EDGE_LOOP('',(#411,#412,#413,#414,#415));
#1065=EDGE_LOOP('',(#416,#417,#418,#419,#420));
#1066=EDGE_LOOP('',(#421,#422,#423,#424));
#1067=EDGE_LOOP('',(#425,#426,#427,#428));
#1068=EDGE_LOOP('',(#429,#430,#431,#432));
#1069=EDGE_LOOP('',(#433,#434,#435,#436));
#1070=EDGE_LOOP('',(#437,#438,#439));
#1071=EDGE_LOOP('',(#440,#441,#442,#443));
#1072=EDGE_LOOP('',(#444,#445,#446,#447));
#1073=EDGE_LOOP('',(#448,#449,#450,#451));
#1074=EDGE_LOOP('',(#452,#453,#454,#455));
#1075=EDGE_LOOP('',(#456,#457,#458,#459));
#1076=EDGE_LOOP('',(#460));
#1077=EDGE_LOOP('',(#461));
#1078=EDGE_LOOP('',(#462));
#1079=EDGE_LOOP('',(#463));
#1080=EDGE_LOOP('',(#464));
#1081=EDGE_LOOP('',(#465));
#1082=EDGE_LOOP('',(#466));
#1083=EDGE_LOOP('',(#467));
#1084=FACE_BOUND('',#1006,.T.);
#1085=FACE_BOUND('',#1007,.T.);
#1086=FACE_BOUND('',#1008,.T.);
#1087=FACE_BOUND('',#1009,.T.);
#1088=FACE_BOUND('',#1010,.T.);
#1089=FACE_BOUND('',#1011,.T.);
#1090=FACE_BOUND('',#1012,.T.);
#1091=FACE_BOUND('',#1013,.T.);
#1092=FACE_BOUND('',#1014,.T.);
#1093=FACE_BOUND('',#1015,.T.);
#1094=FACE_BOUND('',#1016,.T.);
#1095=FACE_BOUND('',#1017,.T.);
#1096=FACE_BOUND('',#1018,.T.);
#1097=FACE_BOUND('',#1019,.T.);
#1098=FACE_BOUND('',#1020,.T.);
#1099=FACE_BOUND('',#1021,.T.);
#1100=FACE_BOUND('',#1022,.T.);
#1101=FACE_BOUND('',#1023,.T.);
#1102=FACE_BOUND('',#1024,.T.);
#1103=FACE_BOUND('',#1025,.T.);
#1104=FACE_BOUND('',#1026,.T.);
#1105=FACE_BOUND('',#1027,.T.);
#1106=FACE_BOUND('',#1028,.T.);
#1107=FACE_BOUND('',#1029,.T.);
#1108=FACE_BOUND('',#1030,.T.);
#1109=FACE_BOUND('',#1031,.T.);
#1110=FACE_BOUND('',#1032,.T.);
#1111=FACE_BOUND('',#1033,.T.);
#1112=FACE_BOUND('',#1034,.T.);
#1113=FACE_BOUND('',#1035,.T.);
#1114=FACE_BOUND('',#1036,.T.);
#1115=FACE_BOUND('',#1037,.T.);
#1116=FACE_BOUND('',#1038,.T.);
#1117=FACE_BOUND('',#1039,.T.);
#1118=FACE_BOUND('',#1040,.T.);
#1119=FACE_BOUND('',#1041,.T.);
#1120=FACE_BOUND('',#1042,.T.);
#1121=FACE_BOUND('',#1043,.T.);
#1122=FACE_BOUND('',#1044,.T.);
#1123=FACE_BOUND('',#1045,.T.);
#1124=FACE_BOUND('',#1046,.T.);
#1125=FACE_BOUND('',#1047,.T.);
#1126=FACE_BOUND('',#1048,.T.);
#1127=FACE_BOUND('',#1049,.T.);
#1128=FACE_BOUND('',#1050,.T.);
#1129=FACE_BOUND('',#1051,.T.);
#1130=FACE_BOUND('',#1052,.T.);
#1131=FACE_BOUND('',#1053,.T.);
#1132=FACE_BOUND('',#1054,.T.);
#1133=FACE_BOUND('',#1055,.T.);
#1134=FACE_BOUND('',#1056,.T.);
#1135=FACE_BOUND('',#1057,.T.);
#1136=FACE_BOUND('',#1058,.T.);
#1137=FACE_BOUND('',#1059,.T.);
#1138=FACE_BOUND('',#1060,.T.);
#1139=FACE_BOUND('',#1061,.T.);
#1140=FACE_BOUND('',#1062,.T.);
#1141=FACE_BOUND('',#1063,.T.);
#1142=FACE_BOUND('',#1064,.T.);
#1143=FACE_BOUND('',#1065,.T.);
#1144=FACE_BOUND('',#1066,.T.);
#1145=FACE_BOUND('',#1067,.T.);
#1146=FACE_BOUND('',#1068,.T.);
#1147=FACE_BOUND('',#1069,.T.);
#1148=FACE_BOUND('',#1070,.T.);
#1149=FACE_BOUND('',#1071,.T.);
#1150=FACE_BOUND('',#1072,.T.);
#1151=FACE_BOUND('',#1073,.T.);
#1152=FACE_BOUND('',#1074,.T.);
#1153=FACE_BOUND('',#1075,.T.);
#1154=FACE_BOUND('',#1076,.T.);
#1155=FACE_BOUND('',#1077,.T.);
#1156=FACE_BOUND('',#1078,.T.);
#1157=FACE_BOUND('',#1079,.T.);
#1158=FACE_BOUND('',#1080,.T.);
#1159=FACE_BOUND('',#1081,.T.);
#1160=FACE_BOUND('',#1082,.T.);
#1161=FACE_BOUND('',#1083,.T.);
#1162=CYLINDRICAL_SURFACE('',#1262,0.0017);
#1163=CYLINDRICAL_SURFACE('',#1266,0.0017);
#1164=CYLINDRICAL_SURFACE('',#1296,0.003);
#1165=CYLINDRICAL_SURFACE('',#1299,0.003);
#1166=CYLINDRICAL_SURFACE('',#1325,0.001);
#1167=CYLINDRICAL_SURFACE('',#1326,0.001);
#1168=CYLINDRICAL_SURFACE('',#1327,0.001);
#1169=CYLINDRICAL_SURFACE('',#1328,0.0025);
#1170=CYLINDRICAL_SURFACE('',#1329,0.0025);
#1171=CYLINDRICAL_SURFACE('',#1330,0.0025);
#1172=CYLINDRICAL_SURFACE('',#1333,0.0025);
#1173=CYLINDRICAL_SURFACE('',#1338,0.001);
#1174=CYLINDRICAL_SURFACE('',#1342,0.001);
#1175=CYLINDRICAL_SURFACE('',#1346,0.001);
#1176=CYLINDRICAL_SURFACE('',#1348,0.001);
#1177=CYLINDRICAL_SURFACE('',#1352,0.001);
#1178=CYLINDRICAL_SURFACE('',#1356,0.001);
#1179=CYLINDRICAL_SURFACE('',#1373,0.003);
#1180=CYLINDRICAL_SURFACE('',#1376,0.003);
#1181=ADVANCED_FACE('',(#1084,#1085),#1162,.F.);
#1182=ADVANCED_FACE('',(#1086,#1087),#1163,.F.);
#1183=ADVANCED_FACE('',(#1088,#1089,#1090),#33,.T.);
#1184=ADVANCED_FACE('',(#1091,#1092),#34,.F.);
#1185=ADVANCED_FACE('',(#1093),#35,.F.);
#1186=ADVANCED_FACE('',(#1094),#36,.T.);
#1187=ADVANCED_FACE('',(#1095),#37,.T.);
#1188=ADVANCED_FACE('',(#1096),#38,.F.);
#1189=ADVANCED_FACE('',(#1097),#39,.F.);
#1190=ADVANCED_FACE('',(#1098,#1099),#40,.T.);
#1191=ADVANCED_FACE('',(#1100),#41,.T.);
#1192=ADVANCED_FACE('',(#1101),#42,.T.);
#1193=ADVANCED_FACE('',(#1102),#1164,.T.);
#1194=ADVANCED_FACE('',(#1103),#1165,.T.);
#1195=ADVANCED_FACE('',(#1104),#43,.T.);
#1196=ADVANCED_FACE('',(#1105),#44,.F.);
#1197=ADVANCED_FACE('',(#1106),#45,.F.);
#1198=ADVANCED_FACE('',(#1107),#46,.T.);
#1199=ADVANCED_FACE('',(#1108),#47,.T.);
#1200=ADVANCED_FACE('',(#1109),#48,.T.);
#1201=ADVANCED_FACE('',(#1110),#49,.F.);
#1202=ADVANCED_FACE('',(#1111),#50,.F.);
#1203=ADVANCED_FACE('',(#1112),#51,.F.);
#1204=ADVANCED_FACE('',(#1113),#52,.F.);
#1205=ADVANCED_FACE('',(#1114),#53,.T.);
#1206=ADVANCED_FACE('',(#1115),#54,.T.);
#1207=ADVANCED_FACE('',(#1116),#55,.T.);
#1208=ADVANCED_FACE('',(#1117),#56,.F.);
#1209=ADVANCED_FACE('',(#1118),#57,.F.);
#1210=ADVANCED_FACE('',(#1119),#58,.T.);
#1211=ADVANCED_FACE('',(#1120),#59,.F.);
#1212=ADVANCED_FACE('',(#1121),#60,.F.);
#1213=ADVANCED_FACE('',(#1122),#61,.F.);
#1214=ADVANCED_FACE('',(#1123),#1166,.F.);
#1215=ADVANCED_FACE('',(#1124),#1167,.F.);
#1216=ADVANCED_FACE('',(#1125),#1168,.F.);
#1217=ADVANCED_FACE('',(#1126),#1169,.F.);
#1218=ADVANCED_FACE('',(#1127),#1170,.F.);
#1219=ADVANCED_FACE('',(#1128),#1171,.T.);
#1220=ADVANCED_FACE('',(#1129),#1172,.T.);
#1221=ADVANCED_FACE('',(#1130),#15,.F.);
#1222=ADVANCED_FACE('',(#1131),#16,.F.);
#1223=ADVANCED_FACE('',(#1132),#1173,.T.);
#1224=ADVANCED_FACE('',(#1133),#17,.T.);
#1225=ADVANCED_FACE('',(#1134),#1174,.T.);
#1226=ADVANCED_FACE('',(#1135),#18,.T.);
#1227=ADVANCED_FACE('',(#1136),#1175,.T.);
#1228=ADVANCED_FACE('',(#1137),#1176,.T.);
#1229=ADVANCED_FACE('',(#1138),#19,.T.);
#1230=ADVANCED_FACE('',(#1139),#1177,.T.);
#1231=ADVANCED_FACE('',(#1140),#20,.T.);
#1232=ADVANCED_FACE('',(#1141),#1178,.T.);
#1233=ADVANCED_FACE('',(#1142),#62,.T.);
#1234=ADVANCED_FACE('',(#1143),#63,.T.);
#1235=ADVANCED_FACE('',(#1144),#12,.T.);
#1236=ADVANCED_FACE('',(#1145),#64,.T.);
#1237=ADVANCED_FACE('',(#1146),#13,.T.);
#1238=ADVANCED_FACE('',(#1147),#65,.T.);
#1239=ADVANCED_FACE('',(#1148),#14,.T.);
#1240=ADVANCED_FACE('',(#1149),#66,.T.);
#1241=ADVANCED_FACE('',(#1150),#67,.T.);
#1242=ADVANCED_FACE('',(#1151),#68,.F.);
#1243=ADVANCED_FACE('',(#1152),#69,.F.);
#1244=ADVANCED_FACE('',(#1153),#70,.T.);
#1245=ADVANCED_FACE('',(#1154,#1155),#71,.T.);
#1246=ADVANCED_FACE('',(#1156,#1157),#1179,.F.);
#1247=ADVANCED_FACE('',(#1158,#1159),#72,.T.);
#1248=ADVANCED_FACE('',(#1160,#1161),#1180,.F.);
#1249=CLOSED_SHELL('',(#1181,#1182,#1183,#1184,#1185,#1186,#1187,#1188,
#1189,#1190,#1191,#1192,#1193,#1194,#1195,#1196,#1197,#1198,#1199,#1200,
#1201,#1202,#1203,#1204,#1205,#1206,#1207,#1208,#1209,#1210,#1211,#1212,
#1213,#1214,#1215,#1216,#1217,#1218,#1219,#1220,#1221,#1222,#1223,#1224,
#1225,#1226,#1227,#1228,#1229,#1230,#1231,#1232,#1233,#1234,#1235,#1236,
#1237,#1238,#1239,#1240,#1241,#1242,#1243,#1244,#1245,#1246,#1247,#1248));
#1250=STYLED_ITEM('',(#1251),#1258);
#1251=PRESENTATION_STYLE_ASSIGNMENT((#1252));
#1252=SURFACE_STYLE_USAGE(.BOTH.,#1253);
#1253=SURFACE_SIDE_STYLE('',(#1254));
#1254=SURFACE_STYLE_FILL_AREA(#1255);
#1255=FILL_AREA_STYLE('',(#1256));
#1256=FILL_AREA_STYLE_COLOUR('',#1257);
#1257=COLOUR_RGB('',0.262745098039216,0.282352941176471,0.301960784313725);
#1258=MANIFOLD_SOLID_BREP('Part 2',#1249);
#1259=SHAPE_DEFINITION_REPRESENTATION(#2118,#1260);
#1260=SHAPE_REPRESENTATION('Part 2',(#1261),#2113);
#1261=AXIS2_PLACEMENT_3D('',#1733,#1377,#1378);
#1262=AXIS2_PLACEMENT_3D('',#1734,#1379,#1380);
#1263=AXIS2_PLACEMENT_3D('',#1738,#1382,#1383);
#1264=AXIS2_PLACEMENT_3D('',#1742,#1385,#1386);
#1265=AXIS2_PLACEMENT_3D('',#1743,#1387,#1388);
#1266=AXIS2_PLACEMENT_3D('',#1745,#1389,#1390);
#1267=AXIS2_PLACEMENT_3D('',#1749,#1392,#1393);
#1268=AXIS2_PLACEMENT_3D('',#1753,#1395,#1396);
#1269=AXIS2_PLACEMENT_3D('',#1754,#1397,#1398);
#1270=AXIS2_PLACEMENT_3D('',#1756,#1399,#1400);
#1271=AXIS2_PLACEMENT_3D('',#1760,#1402,#1403);
#1272=AXIS2_PLACEMENT_3D('',#1764,#1405,#1406);
#1273=AXIS2_PLACEMENT_3D('',#1768,#1408,#1409);
#1274=AXIS2_PLACEMENT_3D('',#1772,#1411,#1412);
#1275=AXIS2_PLACEMENT_3D('',#1775,#1414,#1415);
#1276=AXIS2_PLACEMENT_3D('',#1779,#1417,#1418);
#1277=AXIS2_PLACEMENT_3D('',#1799,#1426,#1427);
#1278=AXIS2_PLACEMENT_3D('',#1815,#1436,#1437);
#1279=AXIS2_PLACEMENT_3D('',#1823,#1441,#1442);
#1280=AXIS2_PLACEMENT_3D('',#1827,#1444,#1445);
#1281=AXIS2_PLACEMENT_3D('',#1835,#1449,#1450);
#1282=AXIS2_PLACEMENT_3D('',#1839,#1452,#1453);
#1283=AXIS2_PLACEMENT_3D('',#1840,#1454,#1455);
#1284=AXIS2_PLACEMENT_3D('',#1873,#1472,#1473);
#1285=AXIS2_PLACEMENT_3D('',#1878,#1477,#1478);
#1286=AXIS2_PLACEMENT_3D('',#1884,#1482,#1483);
#1287=AXIS2_PLACEMENT_3D('',#1889,#1487,#1488);
#1288=AXIS2_PLACEMENT_3D('',#1893,#1490,#1491);
#1289=AXIS2_PLACEMENT_3D('',#1897,#1493,#1494);
#1290=AXIS2_PLACEMENT_3D('',#1901,#1496,#1497);
#1291=AXIS2_PLACEMENT_3D('',#1905,#1499,#1500);
#1292=AXIS2_PLACEMENT_3D('',#1919,#1505,#1506);
#1293=AXIS2_PLACEMENT_3D('',#1923,#1508,#1509);
#1294=AXIS2_PLACEMENT_3D('',#1924,#1510,#1511);
#1295=AXIS2_PLACEMENT_3D('',#1947,#1518,#1519);
#1296=AXIS2_PLACEMENT_3D('',#1956,#1524,#1525);
#1297=AXIS2_PLACEMENT_3D('',#1957,#1526,#1527);
#1298=AXIS2_PLACEMENT_3D('',#1958,#1528,#1529);
#1299=AXIS2_PLACEMENT_3D('',#1959,#1530,#1531);
#1300=AXIS2_PLACEMENT_3D('',#1960,#1532,#1533);
#1301=AXIS2_PLACEMENT_3D('',#1961,#1534,#1535);
#1302=AXIS2_PLACEMENT_3D('',#1962,#1536,#1537);
#1303=AXIS2_PLACEMENT_3D('',#1970,#1541,#1542);
#1304=AXIS2_PLACEMENT_3D('',#1971,#1543,#1544);
#1305=AXIS2_PLACEMENT_3D('',#1972,#1545,#1546);
#1306=AXIS2_PLACEMENT_3D('',#1981,#1551,#1552);
#1307=AXIS2_PLACEMENT_3D('',#1987,#1557,#1558);
#1308=AXIS2_PLACEMENT_3D('',#1993,#1563,#1564);
#1309=AXIS2_PLACEMENT_3D('',#1997,#1567,#1568);
#1310=AXIS2_PLACEMENT_3D('',#2002,#1572,#1573);
#1311=AXIS2_PLACEMENT_3D('',#2003,#1574,#1575);
#1312=AXIS2_PLACEMENT_3D('',#2008,#1579,#1580);
#1313=AXIS2_PLACEMENT_3D('',#2012,#1583,#1584);
#1314=AXIS2_PLACEMENT_3D('',#2015,#1587,#1588);
#1315=AXIS2_PLACEMENT_3D('',#2016,#1589,#1590);
#1316=AXIS2_PLACEMENT_3D('',#2017,#1591,#1592);
#1317=AXIS2_PLACEMENT_3D('',#2018,#1593,#1594);
#1318=AXIS2_PLACEMENT_3D('',#2019,#1595,#1596);
#1319=AXIS2_PLACEMENT_3D('',#2020,#1597,#1598);
#1320=AXIS2_PLACEMENT_3D('',#2024,#1601,#1602);
#1321=AXIS2_PLACEMENT_3D('',#2026,#1604,#1605);
#1322=AXIS2_PLACEMENT_3D('',#2027,#1606,#1607);
#1323=AXIS2_PLACEMENT_3D('',#2030,#1610,#1611);
#1324=AXIS2_PLACEMENT_3D('',#2033,#1614,#1615);
#1325=AXIS2_PLACEMENT_3D('',#2036,#1618,#1619);
#1326=AXIS2_PLACEMENT_3D('',#2037,#1620,#1621);
#1327=AXIS2_PLACEMENT_3D('',#2038,#1622,#1623);
#1328=AXIS2_PLACEMENT_3D('',#2039,#1624,#1625);
#1329=AXIS2_PLACEMENT_3D('',#2040,#1626,#1627);
#1330=AXIS2_PLACEMENT_3D('',#2041,#1628,#1629);
#1331=AXIS2_PLACEMENT_3D('',#2042,#1630,#1631);
#1332=AXIS2_PLACEMENT_3D('',#2043,#1632,#1633);
#1333=AXIS2_PLACEMENT_3D('',#2044,#1634,#1635);
#1334=AXIS2_PLACEMENT_3D('',#2045,#1636,#1637);
#1335=AXIS2_PLACEMENT_3D('',#2046,#1638,#1639);
#1336=AXIS2_PLACEMENT_3D('',#2047,#1640,#1641);
#1337=AXIS2_PLACEMENT_3D('',#2053,#1642,#1643);
#1338=AXIS2_PLACEMENT_3D('',#2059,#1644,#1645);
#1339=AXIS2_PLACEMENT_3D('',#2060,#1646,#1647);
#1340=AXIS2_PLACEMENT_3D('',#2061,#1648,#1649);
#1341=AXIS2_PLACEMENT_3D('',#2062,#1650,#1651);
#1342=AXIS2_PLACEMENT_3D('',#2063,#1652,#1653);
#1343=AXIS2_PLACEMENT_3D('',#2064,#1654,#1655);
#1344=AXIS2_PLACEMENT_3D('',#2065,#1656,#1657);
#1345=AXIS2_PLACEMENT_3D('',#2066,#1658,#1659);
#1346=AXIS2_PLACEMENT_3D('',#2067,#1660,#1661);
#1347=AXIS2_PLACEMENT_3D('',#2068,#1662,#1663);
#1348=AXIS2_PLACEMENT_3D('',#2069,#1664,#1665);
#1349=AXIS2_PLACEMENT_3D('',#2070,#1666,#1667);
#1350=AXIS2_PLACEMENT_3D('',#2071,#1668,#1669);
#1351=AXIS2_PLACEMENT_3D('',#2072,#1670,#1671);
#1352=AXIS2_PLACEMENT_3D('',#2073,#1672,#1673);
#1353=AXIS2_PLACEMENT_3D('',#2074,#1674,#1675);
#1354=AXIS2_PLACEMENT_3D('',#2075,#1676,#1677);
#1355=AXIS2_PLACEMENT_3D('',#2076,#1678,#1679);
#1356=AXIS2_PLACEMENT_3D('',#2077,#1680,#1681);
#1357=AXIS2_PLACEMENT_3D('',#2078,#1682,#1683);
#1358=AXIS2_PLACEMENT_3D('',#2080,#1684,#1685);
#1359=AXIS2_PLACEMENT_3D('',#2081,#1686,#1687);
#1360=AXIS2_PLACEMENT_3D('',#2083,#1689,#1690);
#1361=AXIS2_PLACEMENT_3D('',#2085,#1692,#1693);
#1362=AXIS2_PLACEMENT_3D('',#2087,#1695,#1696);
#1363=AXIS2_PLACEMENT_3D('',#2089,#1698,#1699);
#1364=AXIS2_PLACEMENT_3D('',#2091,#1701,#1702);
#1365=AXIS2_PLACEMENT_3D('',#2093,#1704,#1705);
#1366=AXIS2_PLACEMENT_3D('',#2095,#1707,#1708);
#1367=AXIS2_PLACEMENT_3D('',#2096,#1709,#1710);
#1368=AXIS2_PLACEMENT_3D('',#2099,#1713,#1714);
#1369=AXIS2_PLACEMENT_3D('',#2101,#1716,#1717);
#1370=AXIS2_PLACEMENT_3D('',#2103,#1719,#1720);
#1371=AXIS2_PLACEMENT_3D('',#2104,#1721,#1722);
#1372=AXIS2_PLACEMENT_3D('',#2105,#1723,#1724);
#1373=AXIS2_PLACEMENT_3D('',#2107,#1725,#1726);
#1374=AXIS2_PLACEMENT_3D('',#2108,#1727,#1728);
#1375=AXIS2_PLACEMENT_3D('',#2109,#1729,#1730);
#1376=AXIS2_PLACEMENT_3D('',#2111,#1731,#1732);
#1377=DIRECTION('',(0.,0.,1.));
#1378=DIRECTION('',(1.,0.,0.));
#1379=DIRECTION('',(-1.,-1.46118891170553E-16,0.));
#1380=DIRECTION('',(1.46118891170553E-16,-1.,0.));
#1381=DIRECTION('',(-1.,-1.46118891170553E-16,0.));
#1382=DIRECTION('',(-1.,-2.26022602733134E-16,0.));
#1383=DIRECTION('',(2.26022602733134E-16,-1.,0.));
#1384=DIRECTION('',(-1.,-1.46118891170553E-16,0.));
#1385=DIRECTION('',(1.,3.56517181519151E-16,0.));
#1386=DIRECTION('',(-3.56517181519151E-16,1.,0.));
#1387=DIRECTION('',(1.,1.46118891170553E-16,0.));
#1388=DIRECTION('',(-1.46118891170553E-16,1.,0.));
#1389=DIRECTION('',(-1.,-1.46118891170553E-16,0.));
#1390=DIRECTION('',(1.46118891170553E-16,-1.,0.));
#1391=DIRECTION('',(-1.,-1.46118891170553E-16,0.));
#1392=DIRECTION('',(-1.,-2.26022602733134E-16,0.));
#1393=DIRECTION('',(2.26022602733134E-16,-1.,0.));
#1394=DIRECTION('',(-1.,-1.46118891170553E-16,0.));
#1395=DIRECTION('',(1.,3.56517181519151E-16,0.));
#1396=DIRECTION('',(-3.56517181519151E-16,1.,0.));
#1397=DIRECTION('',(-1.,-1.46118891170553E-16,0.));
#1398=DIRECTION('',(1.46118891170553E-16,-1.,0.));
#1399=DIRECTION('',(-1.,-1.46118891170553E-16,0.));
#1400=DIRECTION('',(1.46118891170553E-16,-1.,0.));
#1401=DIRECTION('',(-1.46118891170553E-16,1.,0.));
#1402=DIRECTION('',(-1.,-1.46118891170553E-16,0.));
#1403=DIRECTION('',(1.46118891170553E-16,-1.,0.));
#1404=DIRECTION('',(5.28277800582942E-32,-3.61539699864219E-16,1.));
#1405=DIRECTION('',(-1.,-1.46118891170553E-16,0.));
#1406=DIRECTION('',(1.46118891170553E-16,-1.,0.));
#1407=DIRECTION('',(1.43899016886308E-16,-0.984807753012208,-0.17364817766693));
#1408=DIRECTION('',(-1.,-1.46118891170553E-16,0.));
#1409=DIRECTION('',(1.46118891170553E-16,-1.,0.));
#1410=DIRECTION('',(0.,0.,-1.));
#1411=DIRECTION('',(-1.,-1.46118891170553E-16,0.));
#1412=DIRECTION('',(1.46118891170553E-16,-1.,0.));
#1413=DIRECTION('',(0.,0.,-1.));
#1414=DIRECTION('',(-1.,-1.46118891170553E-16,0.));
#1415=DIRECTION('',(1.46118891170553E-16,-1.,0.));
#1416=DIRECTION('',(1.43899016886308E-16,-0.984807753012208,-0.17364817766693));
#1417=DIRECTION('',(-1.,-1.46118891170553E-16,0.));
#1418=DIRECTION('',(1.46118891170553E-16,-1.,0.));
#1419=DIRECTION('',(0.,0.,-1.));
#1420=DIRECTION('',(0.,0.,-1.));
#1421=DIRECTION('',(-1.46118891170553E-16,1.,0.));
#1422=DIRECTION('',(-1.46118891170553E-16,1.,0.));
#1423=DIRECTION('',(0.,0.,-1.));
#1424=DIRECTION('',(-1.46118891170553E-16,1.,0.));
#1425=DIRECTION('',(0.,0.,-1.));
#1426=DIRECTION('',(-1.,-2.26022602733134E-16,0.));
#1427=DIRECTION('',(2.26022602733134E-16,-1.,0.));
#1428=DIRECTION('',(0.,0.,-1.));
#1429=DIRECTION('',(-2.26022602733134E-16,1.,0.));
#1430=DIRECTION('',(0.,0.,-1.));
#1431=DIRECTION('',(-2.26022602733134E-16,1.,0.));
#1432=DIRECTION('',(0.,0.,-1.));
#1433=DIRECTION('',(-2.26022602733134E-16,1.,0.));
#1434=DIRECTION('',(0.,0.,-1.));
#1435=DIRECTION('',(-2.26022602733134E-16,1.,0.));
#1436=DIRECTION('',(0.,0.,-1.));
#1437=DIRECTION('',(1.,0.,0.));
#1438=DIRECTION('',(-1.46118891170553E-16,1.,0.));
#1439=DIRECTION('',(-1.,-2.12931151635051E-16,0.));
#1440=DIRECTION('',(-2.26022602733134E-16,1.,0.));
#1441=DIRECTION('',(0.,0.,-1.));
#1442=DIRECTION('',(-1.,0.,0.));
#1443=DIRECTION('',(-1.,3.03538665962696E-16,0.));
#1444=DIRECTION('',(0.,0.,-1.));
#1445=DIRECTION('',(-1.,0.,0.));
#1446=DIRECTION('',(-2.26022602733134E-16,1.,0.));
#1447=DIRECTION('',(-1.,-2.12931151635051E-16,0.));
#1448=DIRECTION('',(1.46118891170553E-16,-1.,0.));
#1449=DIRECTION('',(0.,0.,-1.));
#1450=DIRECTION('',(-1.,0.,0.));
#1451=DIRECTION('',(1.,1.06465575817526E-16,0.));
#1452=DIRECTION('',(0.,0.,-1.));
#1453=DIRECTION('',(-1.,0.,0.));
#1454=DIRECTION('',(-2.12931151635051E-16,1.,0.));
#1455=DIRECTION('',(-1.,-2.12931151635051E-16,0.));
#1456=DIRECTION('',(0.,0.,1.));
#1457=DIRECTION('',(1.,2.12931151635051E-16,0.));
#1458=DIRECTION('',(0.,0.,-1.));
#1459=DIRECTION('',(1.,2.12931151635051E-16,1.17808041620124E-17));
#1460=DIRECTION('',(0.,0.,-1.));
#1461=DIRECTION('',(1.,2.12931151635051E-16,0.));
#1462=DIRECTION('',(0.,0.,1.));
#1463=DIRECTION('',(-0.707106781186548,-1.50565061247005E-16,-0.707106781186548));
#1464=DIRECTION('',(0.,0.,1.));
#1465=DIRECTION('',(1.,2.12931151635051E-16,0.));
#1466=DIRECTION('',(0.,0.,-1.));
#1467=DIRECTION('',(-1.,-2.12931151635051E-16,0.));
#1468=DIRECTION('',(0.,0.,-1.));
#1469=DIRECTION('',(1.,2.12931151635051E-16,0.));
#1470=DIRECTION('',(0.,0.,-1.));
#1471=DIRECTION('',(-0.707106781186548,-1.50565061247006E-16,0.707106781186547));
#1472=DIRECTION('',(-1.,-2.26022602733134E-16,0.));
#1473=DIRECTION('',(2.26022602733134E-16,-1.,0.));
#1474=DIRECTION('',(-1.59822115094032E-16,0.707106781186548,-0.707106781186547));
#1475=DIRECTION('',(2.26022602733134E-16,-1.,7.41155478749033E-17));
#1476=DIRECTION('',(0.,0.,-1.));
#1477=DIRECTION('',(-3.03538665962696E-16,-1.,0.));
#1478=DIRECTION('',(1.,-3.03538665962696E-16,0.));
#1479=DIRECTION('',(1.,-3.03538665962696E-16,-2.67578959624077E-17));
#1480=DIRECTION('',(0.,0.,-1.));
#1481=DIRECTION('',(0.,0.,-1.));
#1482=DIRECTION('',(-1.,-2.26022602733134E-16,0.));
#1483=DIRECTION('',(2.26022602733134E-16,-1.,0.));
#1484=DIRECTION('',(1.59822115094032E-16,-0.707106781186548,0.707106781186548));
#1485=DIRECTION('',(0.,0.,-1.));
#1486=DIRECTION('',(2.26022602733134E-16,-1.,-7.41155478749034E-17));
#1487=DIRECTION('',(1.,1.46118891170553E-16,0.));
#1488=DIRECTION('',(-1.46118891170553E-16,1.,0.));
#1489=DIRECTION('',(1.46118891170553E-16,-1.,0.));
#1490=DIRECTION('',(1.,1.46118891170553E-16,0.));
#1491=DIRECTION('',(-1.46118891170553E-16,1.,0.));
#1492=DIRECTION('',(-1.43899016886308E-16,0.984807753012208,0.17364817766693));
#1493=DIRECTION('',(1.,1.46118891170553E-16,0.));
#1494=DIRECTION('',(-1.46118891170553E-16,1.,0.));
#1495=DIRECTION('',(-5.28277800582942E-32,3.61539699864219E-16,-1.));
#1496=DIRECTION('',(1.,1.46118891170553E-16,0.));
#1497=DIRECTION('',(-1.46118891170553E-16,1.,0.));
#1498=DIRECTION('',(0.,0.,-1.));
#1499=DIRECTION('',(1.,1.46118891170553E-16,0.));
#1500=DIRECTION('',(-1.46118891170553E-16,1.,0.));
#1501=DIRECTION('',(0.,0.,-1.));
#1502=DIRECTION('',(1.46118891170553E-16,-1.,0.));
#1503=DIRECTION('',(0.,0.,-1.));
#1504=DIRECTION('',(0.,0.,-1.));
#1505=DIRECTION('',(1.,1.46118891170553E-16,0.));
#1506=DIRECTION('',(-1.46118891170553E-16,1.,0.));
#1507=DIRECTION('',(1.43899016886308E-16,-0.984807753012208,-0.17364817766693));
#1508=DIRECTION('',(1.,1.46118891170553E-16,0.));
#1509=DIRECTION('',(-1.46118891170553E-16,1.,0.));
#1510=DIRECTION('',(1.06465575817526E-16,-1.,0.));
#1511=DIRECTION('',(1.,1.06465575817526E-16,0.));
#1512=DIRECTION('',(0.,0.,-1.));
#1513=DIRECTION('',(-1.,-1.06465575817526E-16,0.));
#1514=DIRECTION('',(0.,0.,-1.));
#1515=DIRECTION('',(0.,0.,-1.));
#1516=DIRECTION('',(-1.,-1.06465575817526E-16,6.99194937127997E-18));
#1517=DIRECTION('',(0.,0.,-1.));
#1518=DIRECTION('',(-2.53732791744791E-17,0.17364817766693,-0.984807753012208));
#1519=DIRECTION('',(0.,0.984807753012208,0.17364817766693));
#1520=DIRECTION('',(1.,2.12931151635051E-16,1.17808041620124E-17));
#1521=DIRECTION('',(1.43899016886308E-16,-0.984807753012208,-0.17364817766693));
#1522=DIRECTION('',(-1.,-1.06465575817526E-16,6.99194937127997E-18));
#1523=DIRECTION('',(1.43899016886308E-16,-0.984807753012208,-0.17364817766693));
#1524=DIRECTION('',(1.,2.12931151635051E-16,1.17808041620124E-17));
#1525=DIRECTION('',(-2.12931151635051E-16,1.,0.));
#1526=DIRECTION('',(1.,1.46118891170553E-16,0.));
#1527=DIRECTION('',(-1.46118891170553E-16,1.,0.));
#1528=DIRECTION('',(-1.,-1.46118891170553E-16,0.));
#1529=DIRECTION('',(1.46118891170553E-16,-1.,0.));
#1530=DIRECTION('',(-1.,-1.06465575817526E-16,6.99194937127997E-18));
#1531=DIRECTION('',(1.06465575817526E-16,-1.,0.));
#1532=DIRECTION('',(1.,1.46118891170553E-16,0.));
#1533=DIRECTION('',(-1.46118891170553E-16,1.,0.));
#1534=DIRECTION('',(-1.,-1.46118891170553E-16,0.));
#1535=DIRECTION('',(1.46118891170553E-16,-1.,0.));
#1536=DIRECTION('',(1.95713559369238E-16,0.707106781186548,-0.707106781186547));
#1537=DIRECTION('',(1.,-2.76780770000288E-16,0.));
#1538=DIRECTION('',(0.577350269189627,-0.577350269189625,-0.577350269189626));
#1539=DIRECTION('',(1.,-2.76780770000288E-16,0.));
#1540=DIRECTION('',(-0.577350269189626,-0.577350269189625,-0.577350269189626));
#1541=DIRECTION('',(1.95713559369238E-16,0.707106781186548,-0.707106781186547));
#1542=DIRECTION('',(1.95713559369238E-16,0.707106781186547,0.707106781186548));
#1543=DIRECTION('',(1.95713559369238E-16,0.707106781186548,-0.707106781186547));
#1544=DIRECTION('',(-1.95713559369238E-16,-0.707106781186547,-0.707106781186548));
#1545=DIRECTION('',(-3.03538665962696E-16,-1.,0.));
#1546=DIRECTION('',(1.,-3.03538665962696E-16,0.));
#1547=DIRECTION('',(0.,0.,-1.));
#1548=DIRECTION('',(-1.,3.03538665962696E-16,0.));
#1549=DIRECTION('',(0.,0.,-1.));
#1550=DIRECTION('',(-1.,3.03538665962696E-16,0.));
#1551=DIRECTION('',(1.,3.56517181519151E-16,0.));
#1552=DIRECTION('',(-3.56517181519151E-16,1.,0.));
#1553=DIRECTION('',(0.,0.,1.));
#1554=DIRECTION('',(3.56517181519151E-16,-1.,0.));
#1555=DIRECTION('',(3.56517181519151E-16,-1.,0.));
#1556=DIRECTION('',(3.56517181519151E-16,-1.,0.));
#1557=DIRECTION('',(1.,3.56517181519151E-16,0.));
#1558=DIRECTION('',(-3.56517181519151E-16,1.,0.));
#1559=DIRECTION('',(0.,0.,1.));
#1560=DIRECTION('',(3.56517181519151E-16,-1.,0.));
#1561=DIRECTION('',(3.56517181519151E-16,-1.,0.));
#1562=DIRECTION('',(3.56517181519151E-16,-1.,0.));
#1563=DIRECTION('',(0.,0.,1.));
#1564=DIRECTION('',(1.,0.,0.));
#1565=DIRECTION('',(-2.26022602733134E-16,1.,0.));
#1566=DIRECTION('',(-1.,3.03538665962696E-16,0.));
#1567=DIRECTION('',(2.30623810682417E-16,1.,0.));
#1568=DIRECTION('',(-1.,2.30623810682417E-16,0.));
#1569=DIRECTION('',(-1.,2.30623810682417E-16,0.));
#1570=DIRECTION('',(1.,-2.30623810682417E-16,0.));
#1571=DIRECTION('',(0.,0.,-1.));
#1572=DIRECTION('',(0.,0.,-1.));
#1573=DIRECTION('',(1.,0.,0.));
#1574=DIRECTION('',(-1.,-3.00138150608038E-16,0.));
#1575=DIRECTION('',(3.00138150608038E-16,-1.,0.));
#1576=DIRECTION('',(3.00138150608038E-16,-1.,0.));
#1577=DIRECTION('',(0.,0.,1.));
#1578=DIRECTION('',(3.00138150608038E-16,-1.,0.));
#1579=DIRECTION('',(-2.76780770000288E-16,-1.,0.));
#1580=DIRECTION('',(1.,-2.76780770000288E-16,0.));
#1581=DIRECTION('',(0.,0.,1.));
#1582=DIRECTION('',(1.,-2.76780770000288E-16,0.));
#1583=DIRECTION('',(1.,3.00138150608038E-16,0.));
#1584=DIRECTION('',(-3.00138150608038E-16,1.,0.));
#1585=DIRECTION('',(-3.00138150608038E-16,1.,0.));
#1586=DIRECTION('',(-3.00138150608038E-16,1.,0.));
#1587=DIRECTION('',(0.,0.,1.));
#1588=DIRECTION('',(1.,0.,0.));
#1589=DIRECTION('',(0.707106781186547,2.12229721587733E-16,-0.707106781186548));
#1590=DIRECTION('',(3.00138150608038E-16,-1.,0.));
#1591=DIRECTION('',(0.707106781186547,2.12229721587733E-16,-0.707106781186548));
#1592=DIRECTION('',(0.707106781186548,2.12229721587733E-16,0.707106781186548));
#1593=DIRECTION('',(-0.707106781186547,-2.12229721587732E-16,-0.707106781186548));
#1594=DIRECTION('',(-3.00138150608038E-16,1.,0.));
#1595=DIRECTION('',(-0.707106781186547,-2.12229721587732E-16,-0.707106781186548));
#1596=DIRECTION('',(0.707106781186548,2.12229721587733E-16,-0.707106781186547));
#1597=DIRECTION('',(0.,0.,-1.));
#1598=DIRECTION('',(1.,0.,0.));
#1599=DIRECTION('',(-1.,3.03538665962696E-16,0.));
#1600=DIRECTION('',(-2.26022602733134E-16,1.,0.));
#1601=DIRECTION('',(-3.03538665962696E-16,-1.,0.));
#1602=DIRECTION('',(1.,-3.03538665962696E-16,0.));
#1603=DIRECTION('',(0.,0.,-1.));
#1604=DIRECTION('',(-1.,-2.26022602733134E-16,0.));
#1605=DIRECTION('',(2.26022602733134E-16,-1.,0.));
#1606=DIRECTION('',(0.,0.,1.));
#1607=DIRECTION('',(1.,0.,0.));
#1608=DIRECTION('',(-1.,-1.46118891170553E-16,0.));
#1609=DIRECTION('',(-1.,-1.46118891170553E-16,0.));
#1610=DIRECTION('',(-2.53732791744791E-17,0.17364817766693,-0.984807753012208));
#1611=DIRECTION('',(0.,0.984807753012208,0.17364817766693));
#1612=DIRECTION('',(-1.,-1.46118891170553E-16,0.));
#1613=DIRECTION('',(-1.,-1.46118891170553E-16,0.));
#1614=DIRECTION('',(1.46118891170553E-16,-1.,-3.61539699864219E-16));
#1615=DIRECTION('',(0.,3.61539699864219E-16,-1.));
#1616=DIRECTION('',(-1.,-1.46118891170553E-16,0.));
#1617=DIRECTION('',(-1.,-1.46118891170553E-16,3.08148791101958E-33));
#1618=DIRECTION('',(1.,1.46118891170553E-16,0.));
#1619=DIRECTION('',(-1.46118891170553E-16,1.,0.));
#1620=DIRECTION('',(1.,1.46118891170553E-16,0.));
#1621=DIRECTION('',(-1.46118891170553E-16,1.,0.));
#1622=DIRECTION('',(1.,1.46118891170553E-16,-3.08148791101958E-33));
#1623=DIRECTION('',(-1.46118891170553E-16,1.,0.));
#1624=DIRECTION('',(0.,0.,1.));
#1625=DIRECTION('',(1.,0.,0.));
#1626=DIRECTION('',(0.,0.,-1.));
#1627=DIRECTION('',(-1.,0.,0.));
#1628=DIRECTION('',(0.,0.,-1.));
#1629=DIRECTION('',(-1.,0.,0.));
#1630=DIRECTION('',(0.,0.,-1.));
#1631=DIRECTION('',(-1.,0.,0.));
#1632=DIRECTION('',(0.,0.,1.));
#1633=DIRECTION('',(1.,0.,0.));
#1634=DIRECTION('',(0.,0.,-1.));
#1635=DIRECTION('',(-1.,0.,0.));
#1636=DIRECTION('',(0.,0.,-1.));
#1637=DIRECTION('',(-1.,0.,0.));
#1638=DIRECTION('',(0.,0.,1.));
#1639=DIRECTION('',(1.,0.,0.));
#1640=DIRECTION('',(0.,0.,1.));
#1641=DIRECTION('',(1.,0.,0.));
#1642=DIRECTION('',(0.,0.,1.));
#1643=DIRECTION('',(1.,0.,0.));
#1644=DIRECTION('',(0.,0.,-1.));
#1645=DIRECTION('',(-1.,0.,0.));
#1646=DIRECTION('',(0.,0.,-1.));
#1647=DIRECTION('',(-1.,0.,0.));
#1648=DIRECTION('',(1.,1.46118891170553E-16,0.));
#1649=DIRECTION('',(-1.46118891170553E-16,1.,0.));
#1650=DIRECTION('',(0.,0.984807753012208,0.17364817766693));
#1651=DIRECTION('',(0.,-0.17364817766693,0.984807753012208));
#1652=DIRECTION('',(1.43899016886308E-16,-0.984807753012208,-0.17364817766693));
#1653=DIRECTION('',(0.,0.17364817766693,-0.984807753012208));
#1654=DIRECTION('',(0.,0.984807753012207,0.173648177666935));
#1655=DIRECTION('',(0.,-0.173648177666935,0.984807753012207));
#1656=DIRECTION('',(1.,1.46118891170553E-16,0.));
#1657=DIRECTION('',(-1.46118891170553E-16,1.,0.));
#1658=DIRECTION('',(0.,0.,1.));
#1659=DIRECTION('',(1.,0.,0.));
#1660=DIRECTION('',(0.,0.,-1.));
#1661=DIRECTION('',(-1.,0.,0.));
#1662=DIRECTION('',(0.,0.,-1.));
#1663=DIRECTION('',(-1.,0.,0.));
#1664=DIRECTION('',(0.,0.,-1.));
#1665=DIRECTION('',(-1.,0.,0.));
#1666=DIRECTION('',(0.,0.,-1.));
#1667=DIRECTION('',(-1.,0.,0.));
#1668=DIRECTION('',(-1.,-1.46118891170553E-16,0.));
#1669=DIRECTION('',(1.46118891170553E-16,-1.,0.));
#1670=DIRECTION('',(1.70836912847425E-15,0.984807753012208,0.17364817766693));
#1671=DIRECTION('',(0.,-0.17364817766693,0.984807753012208));
#1672=DIRECTION('',(1.43899016886308E-16,-0.984807753012208,-0.17364817766693));
#1673=DIRECTION('',(0.,0.17364817766693,-0.984807753012208));
#1674=DIRECTION('',(-6.23101337317816E-15,0.984807753012208,0.173648177666928));
#1675=DIRECTION('',(0.,-0.173648177666928,0.984807753012208));
#1676=DIRECTION('',(-1.,-1.46118891170553E-16,0.));
#1677=DIRECTION('',(1.46118891170553E-16,-1.,0.));
#1678=DIRECTION('',(0.,0.,1.));
#1679=DIRECTION('',(1.,0.,0.));
#1680=DIRECTION('',(0.,0.,-1.));
#1681=DIRECTION('',(-1.,0.,0.));
#1682=DIRECTION('',(-0.707106781186548,-1.03321658806157E-16,0.707106781186548));
#1683=DIRECTION('',(-0.707106781186548,-1.03321658806157E-16,-0.707106781186548));
#1684=DIRECTION('',(-1.50565061247005E-16,0.707106781186548,0.707106781186548));
#1685=DIRECTION('',(-1.50565061247005E-16,0.707106781186548,-0.707106781186548));
#1686=DIRECTION('',(-1.50565061247005E-16,0.707106781186548,0.707106781186548));
#1687=DIRECTION('',(-1.,-2.12931151635051E-16,0.));
#1688=DIRECTION('',(0.577350269189626,-0.577350269189626,0.577350269189626));
#1689=DIRECTION('',(-0.707106781186548,-1.03321658806157E-16,0.707106781186548));
#1690=DIRECTION('',(1.46118891170553E-16,-1.,0.));
#1691=DIRECTION('',(-0.707106781186548,0.,-0.707106781186548));
#1692=DIRECTION('',(0.,0.,-1.));
#1693=DIRECTION('',(-1.,0.,0.));
#1694=DIRECTION('',(0.,-0.707106781186548,-0.707106781186547));
#1695=DIRECTION('',(7.52825306235028E-17,-0.707106781186547,0.707106781186548));
#1696=DIRECTION('',(1.,1.06465575817526E-16,0.));
#1697=DIRECTION('',(0.,-0.707106781186548,-0.707106781186547));
#1698=DIRECTION('',(0.,0.,-1.));
#1699=DIRECTION('',(-1.,0.,0.));
#1700=DIRECTION('',(0.707106781186548,0.,-0.707106781186548));
#1701=DIRECTION('',(0.707106781186548,1.03321658806157E-16,0.707106781186548));
#1702=DIRECTION('',(-1.46118891170553E-16,1.,0.));
#1703=DIRECTION('',(0.707106781186548,0.,-0.707106781186548));
#1704=DIRECTION('',(0.,0.,-1.));
#1705=DIRECTION('',(-1.,0.,0.));
#1706=DIRECTION('',(0.,0.707106781186548,-0.707106781186547));
#1707=DIRECTION('',(-1.50565061247005E-16,0.707106781186547,0.707106781186548));
#1708=DIRECTION('',(-1.,-2.12931151635051E-16,0.));
#1709=DIRECTION('',(-1.46118891170553E-16,1.,0.));
#1710=DIRECTION('',(-1.,-1.46118891170553E-16,0.));
#1711=DIRECTION('',(-1.,-1.46118891170553E-16,0.));
#1712=DIRECTION('',(-1.,-1.46118891170553E-16,0.));
#1713=DIRECTION('',(0.,0.,1.));
#1714=DIRECTION('',(1.,0.,0.));
#1715=DIRECTION('',(-1.,-1.46118891170553E-16,0.));
#1716=DIRECTION('',(-1.46118891170553E-16,1.,0.));
#1717=DIRECTION('',(-1.,-1.46118891170553E-16,0.));
#1718=DIRECTION('',(-1.,-1.46118891170553E-16,0.));
#1719=DIRECTION('',(0.,0.,1.));
#1720=DIRECTION('',(1.,0.,0.));
#1721=DIRECTION('',(-1.,-1.46118891170553E-16,0.));
#1722=DIRECTION('',(1.46118891170553E-16,-1.,0.));
#1723=DIRECTION('',(-1.,-1.46118891170553E-16,0.));
#1724=DIRECTION('',(1.46118891170553E-16,-1.,0.));
#1725=DIRECTION('',(-1.,-1.46118891170553E-16,0.));
#1726=DIRECTION('',(1.46118891170553E-16,-1.,0.));
#1727=DIRECTION('',(1.,1.46118891170553E-16,0.));
#1728=DIRECTION('',(-1.46118891170553E-16,1.,0.));
#1729=DIRECTION('',(1.,1.46118891170553E-16,0.));
#1730=DIRECTION('',(-1.46118891170553E-16,1.,0.));
#1731=DIRECTION('',(1.,1.46118891170553E-16,0.));
#1732=DIRECTION('',(-1.46118891170553E-16,1.,0.));
#1733=CARTESIAN_POINT('',(0.,0.,0.));
#1734=CARTESIAN_POINT('',(0.0408125,0.031463,-0.001));
#1735=CARTESIAN_POINT('',(0.0408125,0.032813,-0.00203319891598862));
#1736=CARTESIAN_POINT('',(0.0302375,0.032813,-0.00203319891598862));
#1737=CARTESIAN_POINT('',(0.0300875,0.032813,-0.00203319891598862));
#1738=CARTESIAN_POINT('',(0.0300875,0.031463,-0.001));
#1739=CARTESIAN_POINT('',(0.0300875,0.0299907568135665,-0.00015));
#1740=CARTESIAN_POINT('',(0.0408125,0.0299907568135665,-0.00015));
#1741=CARTESIAN_POINT('',(0.0302375,0.0299907568135665,-0.00015));
#1742=CARTESIAN_POINT('',(0.0302375,0.031463,-0.001));
#1743=CARTESIAN_POINT('',(0.0315875,0.031463,-0.001));
#1744=CARTESIAN_POINT('',(0.0315875,0.033163,-0.001));
#1745=CARTESIAN_POINT('',(0.0408125,0.031463,-0.001));
#1746=CARTESIAN_POINT('',(0.0408125,0.0299907568135665,-0.00015));
#1747=CARTESIAN_POINT('',(-0.0302375,0.0299907568135665,-0.00015));
#1748=CARTESIAN_POINT('',(-0.0300875,0.0299907568135665,-0.00015));
#1749=CARTESIAN_POINT('',(-0.0300875,0.031463,-0.001));
#1750=CARTESIAN_POINT('',(-0.0300875,0.032813,-0.00203319891598862));
#1751=CARTESIAN_POINT('',(0.0408125,0.032813,-0.00203319891598862));
#1752=CARTESIAN_POINT('',(-0.0302375,0.032813,-0.00203319891598862));
#1753=CARTESIAN_POINT('',(-0.0302375,0.031463,-0.001));
#1754=CARTESIAN_POINT('',(-0.0315875,0.031463,-0.001));
#1755=CARTESIAN_POINT('',(-0.0315875,0.029763,-0.001));
#1756=CARTESIAN_POINT('',(-0.0325875,0.011719,0.006));
#1757=CARTESIAN_POINT('',(-0.0325875,0.011719,-0.013));
#1758=CARTESIAN_POINT('',(-0.0325875,-0.008025,-0.013));
#1759=CARTESIAN_POINT('',(-0.0325875,0.0067566362478077,-0.013));
#1760=CARTESIAN_POINT('',(-0.0325875,-0.008025,-0.014));
#1761=CARTESIAN_POINT('',(-0.0325875,-0.009025,-0.014));
#1762=CARTESIAN_POINT('',(-0.0325875,-0.009025,-0.0153990774410505));
#1763=CARTESIAN_POINT('',(-0.0325875,-0.009025,-0.0166064012895067));
#1764=CARTESIAN_POINT('',(-0.0325875,-0.008025,-0.0166064012895067));
#1765=CARTESIAN_POINT('',(-0.0325875,-0.00785135182233307,-0.017591209042519));
#1766=CARTESIAN_POINT('',(-0.0325875,0.00458084427528451,-0.0153990774410505));
#1767=CARTESIAN_POINT('',(-0.0325875,0.00693028442547463,-0.0149848077530122));
#1768=CARTESIAN_POINT('',(-0.0325875,0.0067566362478077,-0.014));
#1769=CARTESIAN_POINT('',(-0.0325875,0.034463,0.006));
#1770=CARTESIAN_POINT('',(-0.0325875,0.034463,0.005));
#1771=CARTESIAN_POINT('',(-0.0325875,0.034463,-0.001));
#1772=CARTESIAN_POINT('',(-0.0325875,0.031463,-0.001));
#1773=CARTESIAN_POINT('',(-0.0325875,0.034463,0.006));
#1774=CARTESIAN_POINT('',(-0.0325875,0.034463,-0.0104827011064682));
#1775=CARTESIAN_POINT('',(-0.0325875,0.032463,-0.0104827011064682));
#1776=CARTESIAN_POINT('',(-0.0325875,0.0328102963553338,-0.0124523166124926));
#1777=CARTESIAN_POINT('',(-0.0325875,0.0155105123899566,-0.0155027352860163));
#1778=CARTESIAN_POINT('',(-0.0325875,-0.00867770364466614,-0.0197677703881254));
#1779=CARTESIAN_POINT('',(-0.0325875,-0.009025,-0.017798154882101));
#1780=CARTESIAN_POINT('',(-0.0325875,-0.011025,-0.017798154882101));
#1781=CARTESIAN_POINT('',(-0.0325875,-0.011025,0.006));
#1782=CARTESIAN_POINT('',(-0.0325875,-0.011025,-0.0113848630334075));
#1783=CARTESIAN_POINT('',(-0.0325875,-0.0110249999999996,-0.0113848630334085));
#1784=CARTESIAN_POINT('',(-0.0325875,-0.0104866579640449,-0.0110949845072574));
#1785=CARTESIAN_POINT('',(-0.0325875,-0.0100054418069707,-0.0107207635445118));
#1786=CARTESIAN_POINT('',(-0.0325875,-0.009525,-0.0103486161615757));
#1787=CARTESIAN_POINT('',(-0.0325875,-0.009525,-0.0103486161615757));
#1788=CARTESIAN_POINT('',(-0.0325875,-0.009525,0.006));
#1789=CARTESIAN_POINT('',(-0.0325875,-0.009525,0.005));
#1790=CARTESIAN_POINT('',(-0.0325875,0.034463,0.005));
#1791=CARTESIAN_POINT('',(-0.0325875,0.022813,-0.004));
#1792=CARTESIAN_POINT('',(-0.0325875,0.017813,-0.004));
#1793=CARTESIAN_POINT('',(-0.0325875,0.027813,-0.004));
#1794=CARTESIAN_POINT('',(-0.0325875,0.017813,-0.006));
#1795=CARTESIAN_POINT('',(-0.0325875,0.017813,-0.008));
#1796=CARTESIAN_POINT('',(-0.0325875,0.022813,-0.008));
#1797=CARTESIAN_POINT('',(-0.0325875,0.027813,-0.008));
#1798=CARTESIAN_POINT('',(-0.0325875,0.027813,-0.006));
#1799=CARTESIAN_POINT('',(-0.0300875,0.009938,0.006));
#1800=CARTESIAN_POINT('',(-0.0300875,0.032813,0.006));
#1801=CARTESIAN_POINT('',(-0.0300875,0.032813,-0.01));
#1802=CARTESIAN_POINT('',(-0.0300875,0.009938,-0.00015));
#1803=CARTESIAN_POINT('',(-0.0300875,-0.009525,-0.00015));
#1804=CARTESIAN_POINT('',(-0.0300875,-0.009525,0.006));
#1805=CARTESIAN_POINT('',(-0.0300875,-0.009525,-0.01));
#1806=CARTESIAN_POINT('',(-0.0300875,0.009938,-0.01));
#1807=CARTESIAN_POINT('',(-0.0300875,0.017813,0.006));
#1808=CARTESIAN_POINT('',(-0.0300875,0.017813,-0.004));
#1809=CARTESIAN_POINT('',(-0.0300875,0.017813,-0.008));
#1810=CARTESIAN_POINT('',(-0.0300875,0.009938,-0.004));
#1811=CARTESIAN_POINT('',(-0.0300875,0.027813,-0.004));
#1812=CARTESIAN_POINT('',(-0.0300875,0.027813,0.006));
#1813=CARTESIAN_POINT('',(-0.0300875,0.027813,-0.008));
#1814=CARTESIAN_POINT('',(-0.0300875,0.009938,-0.008));
#1815=CARTESIAN_POINT('',(0.,0.011719,0.006));
#1816=CARTESIAN_POINT('',(0.0315875,0.034463,0.006));
#1817=CARTESIAN_POINT('',(0.0315875,-0.009525,0.006));
#1818=CARTESIAN_POINT('',(0.0315875,0.034463,0.006));
#1819=CARTESIAN_POINT('',(0.0300875,0.034463,0.006));
#1820=CARTESIAN_POINT('',(0.0300875,0.034463,0.006));
#1821=CARTESIAN_POINT('',(0.0300875,0.009938,0.006));
#1822=CARTESIAN_POINT('',(0.0300875,-0.007025,0.006));
#1823=CARTESIAN_POINT('',(0.0275875,-0.007025,0.006));
#1824=CARTESIAN_POINT('',(0.0275875,-0.009525,0.006));
#1825=CARTESIAN_POINT('',(5.20417042793042E-18,-0.009525,0.006));
#1826=CARTESIAN_POINT('',(-0.0275875,-0.009525,0.006));
#1827=CARTESIAN_POINT('',(-0.0275875,-0.007025,0.006));
#1828=CARTESIAN_POINT('',(-0.0300875,-0.007025,0.006));
#1829=CARTESIAN_POINT('',(-0.0300875,0.009938,0.006));
#1830=CARTESIAN_POINT('',(-0.0300875,0.034463,0.006));
#1831=CARTESIAN_POINT('',(-0.0315875,0.034463,0.006));
#1832=CARTESIAN_POINT('',(-0.0315875,0.034463,0.006));
#1833=CARTESIAN_POINT('',(-0.0315875,-0.009525,0.006));
#1834=CARTESIAN_POINT('',(-0.0315875,-0.009525,0.006));
#1835=CARTESIAN_POINT('',(-0.0300875,-0.009525,0.006));
#1836=CARTESIAN_POINT('',(-0.0300875,-0.011025,0.006));
#1837=CARTESIAN_POINT('',(0.0300875,-0.011025,0.006));
#1838=CARTESIAN_POINT('',(0.0300875,-0.011025,0.006));
#1839=CARTESIAN_POINT('',(0.0300875,-0.009525,0.006));
#1840=CARTESIAN_POINT('',(-6.93889390390723E-18,0.035463,0.006));
#1841=CARTESIAN_POINT('',(0.0300875,0.035463,0.002));
#1842=CARTESIAN_POINT('',(0.0300875,0.035463,0.00296213203435596));
#1843=CARTESIAN_POINT('',(0.0300875,0.035463,0.005));
#1844=CARTESIAN_POINT('',(0.0315875,0.035463,0.005));
#1845=CARTESIAN_POINT('',(0.0315875,0.035463,0.005));
#1846=CARTESIAN_POINT('',(0.0315875,0.035463,0.006));
#1847=CARTESIAN_POINT('',(0.0315875,0.035463,-0.0104827011064682));
#1848=CARTESIAN_POINT('',(-6.74471443011094E-18,0.035463,-0.0104827011064682));
#1849=CARTESIAN_POINT('',(-0.0315875,0.035463,-0.0104827011064682));
#1850=CARTESIAN_POINT('',(-0.0315875,0.035463,0.006));
#1851=CARTESIAN_POINT('',(-0.0315875,0.035463,0.005));
#1852=CARTESIAN_POINT('',(-0.0300875,0.035463,0.005));
#1853=CARTESIAN_POINT('',(-0.0300875,0.035463,0.005));
#1854=CARTESIAN_POINT('',(-0.0300875,0.035463,0.002));
#1855=CARTESIAN_POINT('',(-0.0300875,0.035463,0.00296213203435597));
#1856=CARTESIAN_POINT('',(-0.013524816017178,0.035463,0.019524816017178));
#1857=CARTESIAN_POINT('',(-0.0314875,0.035463,0.00156213203435597));
#1858=CARTESIAN_POINT('',(-0.0314875,0.035463,0.006));
#1859=CARTESIAN_POINT('',(-0.0314875,0.035463,0.00085));
#1860=CARTESIAN_POINT('',(-6.93889390390723E-18,0.035463,0.00085));
#1861=CARTESIAN_POINT('',(-0.0302375,0.035463,0.00085));
#1862=CARTESIAN_POINT('',(-0.0302375,0.035463,0.006));
#1863=CARTESIAN_POINT('',(-0.0302375,0.035463,-0.01015));
#1864=CARTESIAN_POINT('',(-6.93889390390723E-18,0.035463,-0.01015));
#1865=CARTESIAN_POINT('',(0.0302375,0.035463,-0.01015));
#1866=CARTESIAN_POINT('',(0.0302375,0.035463,0.006));
#1867=CARTESIAN_POINT('',(0.0302375,0.035463,0.00085));
#1868=CARTESIAN_POINT('',(-6.93889390390723E-18,0.035463,0.00085));
#1869=CARTESIAN_POINT('',(0.0314875,0.035463,0.00085));
#1870=CARTESIAN_POINT('',(0.0314875,0.035463,0.006));
#1871=CARTESIAN_POINT('',(0.0314875,0.035463,0.00156213203435597));
#1872=CARTESIAN_POINT('',(0.0135248160171779,0.035463,0.019524816017178));
#1873=CARTESIAN_POINT('',(0.0300875,0.009938,0.006));
#1874=CARTESIAN_POINT('',(0.0300875,0.0222005,0.0182625));
#1875=CARTESIAN_POINT('',(0.0300875,0.009938,0.00296213203435596));
#1876=CARTESIAN_POINT('',(0.0300875,-0.007025,0.00296213203435596));
#1877=CARTESIAN_POINT('',(0.0300875,-0.007025,0.006));
#1878=CARTESIAN_POINT('',(5.20417042793042E-18,-0.009525,0.006));
#1879=CARTESIAN_POINT('',(5.12288347295819E-18,-0.009525,0.00296213203435596));
#1880=CARTESIAN_POINT('',(0.0275875,-0.009525,0.00296213203435596));
#1881=CARTESIAN_POINT('',(-0.0275875,-0.009525,0.00296213203435596));
#1882=CARTESIAN_POINT('',(-0.0275875,-0.009525,0.006));
#1883=CARTESIAN_POINT('',(0.0275875,-0.009525,0.006));
#1884=CARTESIAN_POINT('',(-0.0300875,0.009938,0.006));
#1885=CARTESIAN_POINT('',(-0.0300875,0.035463,0.005));
#1886=CARTESIAN_POINT('',(-0.0300875,-0.007025,0.00296213203435598));
#1887=CARTESIAN_POINT('',(-0.0300875,-0.007025,0.00296213203435597));
#1888=CARTESIAN_POINT('',(-0.0300875,0.009938,0.00296213203435597));
#1889=CARTESIAN_POINT('',(0.0325875,0.011719,0.006));
#1890=CARTESIAN_POINT('',(0.0325875,0.011719,-0.013));
#1891=CARTESIAN_POINT('',(0.0325875,0.00675663624780771,-0.013));
#1892=CARTESIAN_POINT('',(0.0325875,-0.008025,-0.013));
#1893=CARTESIAN_POINT('',(0.0325875,0.00675663624780771,-0.014));
#1894=CARTESIAN_POINT('',(0.0325875,0.00693028442547464,-0.0149848077530122));
#1895=CARTESIAN_POINT('',(0.0325875,0.0151632160346227,-0.0135331197799918));
#1896=CARTESIAN_POINT('',(0.0325875,-0.00785135182233307,-0.017591209042519));
#1897=CARTESIAN_POINT('',(0.0325875,-0.008025,-0.0166064012895067));
#1898=CARTESIAN_POINT('',(0.0325875,-0.009025,-0.0166064012895067));
#1899=CARTESIAN_POINT('',(0.0325875,-0.009025,0.006));
#1900=CARTESIAN_POINT('',(0.0325875,-0.009025,-0.014));
#1901=CARTESIAN_POINT('',(0.0325875,-0.008025,-0.014));
#1902=CARTESIAN_POINT('',(0.0325875,0.034463,0.006));
#1903=CARTESIAN_POINT('',(0.0325875,0.034463,-0.0104827011064682));
#1904=CARTESIAN_POINT('',(0.0325875,0.034463,-0.001));
#1905=CARTESIAN_POINT('',(0.0325875,0.031463,-0.001));
#1906=CARTESIAN_POINT('',(0.0325875,0.034463,0.006));
#1907=CARTESIAN_POINT('',(0.0325875,0.034463,0.005));
#1908=CARTESIAN_POINT('',(0.0325875,-0.009525,0.005));
#1909=CARTESIAN_POINT('',(0.0325875,-0.009525,0.005));
#1910=CARTESIAN_POINT('',(0.0325875,-0.009525,0.006));
#1911=CARTESIAN_POINT('',(0.0325875,-0.009525,-0.0103486161615757));
#1912=CARTESIAN_POINT('',(0.0325875,-0.0110249999999999,-0.0113848630334077));
#1913=CARTESIAN_POINT('',(0.0325875,-0.0104896353230897,-0.0110965877118996));
#1914=CARTESIAN_POINT('',(0.0325875,-0.0100031922569355,-0.010719021057992));
#1915=CARTESIAN_POINT('',(0.0325875,-0.009525,-0.0103486161615757));
#1916=CARTESIAN_POINT('',(0.0325875,-0.011025,-0.0113848630334075));
#1917=CARTESIAN_POINT('',(0.0325875,-0.011025,0.006));
#1918=CARTESIAN_POINT('',(0.0325875,-0.011025,-0.017798154882101));
#1919=CARTESIAN_POINT('',(0.0325875,-0.009025,-0.017798154882101));
#1920=CARTESIAN_POINT('',(0.0325875,-0.00867770364466613,-0.0197677703881254));
#1921=CARTESIAN_POINT('',(0.0325875,0.0155105123899566,-0.0155027352860163));
#1922=CARTESIAN_POINT('',(0.0325875,0.0328102963553338,-0.0124523166124926));
#1923=CARTESIAN_POINT('',(0.0325875,0.032463,-0.0104827011064682));
#1924=CARTESIAN_POINT('',(0.,-0.012025,0.006));
#1925=CARTESIAN_POINT('',(0.0300875,-0.012025,0.006));
#1926=CARTESIAN_POINT('',(0.0300875,-0.012025,-0.0103486161615757));
#1927=CARTESIAN_POINT('',(0.0300875,-0.012025,0.005));
#1928=CARTESIAN_POINT('',(-0.0300875,-0.012025,0.005));
#1929=CARTESIAN_POINT('',(-0.0300875,-0.012025,0.005));
#1930=CARTESIAN_POINT('',(-0.0300875,-0.012025,0.006));
#1931=CARTESIAN_POINT('',(-0.0300875,-0.012025,-0.0103486161615757));
#1932=CARTESIAN_POINT('',(-0.0315874999999999,-0.012025,-0.0113848630334077));
#1933=CARTESIAN_POINT('',(-0.0310521353230897,-0.012025,-0.0110965877118996));
#1934=CARTESIAN_POINT('',(-0.0305656922569212,-0.012025,-0.0107190210580105));
#1935=CARTESIAN_POINT('',(-0.0300875,-0.012025,-0.0103486161615757));
#1936=CARTESIAN_POINT('',(-0.0315875,-0.012025,-0.0113848630334075));
#1937=CARTESIAN_POINT('',(-0.0315875,-0.012025,0.006));
#1938=CARTESIAN_POINT('',(-0.0315875,-0.012025,-0.017798154882101));
#1939=CARTESIAN_POINT('',(-1.66395494065529E-19,-0.012025,-0.017798154882101));
#1940=CARTESIAN_POINT('',(0.0315875,-0.012025,-0.017798154882101));
#1941=CARTESIAN_POINT('',(0.0315875,-0.012025,0.006));
#1942=CARTESIAN_POINT('',(0.0315875,-0.012025,-0.0113848630334075));
#1943=CARTESIAN_POINT('',(0.0315874999999996,-0.012025,-0.0113848630334085));
#1944=CARTESIAN_POINT('',(0.0310491579640449,-0.012025,-0.0110949845072574));
#1945=CARTESIAN_POINT('',(0.0305679418069585,-0.012025,-0.0107207635445276));
#1946=CARTESIAN_POINT('',(0.0300875,-0.012025,-0.0103486161615757));
#1947=CARTESIAN_POINT('',(0.0325895,0.011719,-0.0171867078299418));
#1948=CARTESIAN_POINT('',(0.0325895,0.0329839445330008,-0.0134371243655048));
#1949=CARTESIAN_POINT('',(-0.0315875,0.0329839445330008,-0.0134371243655048));
#1950=CARTESIAN_POINT('',(0.0315875,0.0329839445330008,-0.0134371243655048));
#1951=CARTESIAN_POINT('',(0.0315875,0.011719,-0.0171867078299418));
#1952=CARTESIAN_POINT('',(0.0315875,-0.0085040554669992,-0.0207525781411375));
#1953=CARTESIAN_POINT('',(0.0325895,-0.0085040554669992,-0.0207525781411375));
#1954=CARTESIAN_POINT('',(-0.0315875,-0.00850405546699921,-0.0207525781411375));
#1955=CARTESIAN_POINT('',(-0.0315875,0.011719,-0.0171867078299418));
#1956=CARTESIAN_POINT('',(0.0325895,0.032463,-0.0104827011064682));
#1957=CARTESIAN_POINT('',(0.0315875,0.032463,-0.0104827011064682));
#1958=CARTESIAN_POINT('',(-0.0315875,0.032463,-0.0104827011064682));
#1959=CARTESIAN_POINT('',(0.0325895,-0.009025,-0.017798154882101));
#1960=CARTESIAN_POINT('',(0.0315875,-0.009025,-0.017798154882101));
#1961=CARTESIAN_POINT('',(-0.0315875,-0.009025,-0.017798154882101));
#1962=CARTESIAN_POINT('',(-1.22860398718282E-17,-0.00938106601717798,0.00310606601717798));
#1963=CARTESIAN_POINT('',(0.0235038773447853,-0.00294137734478534,0.00954575468957064));
#1964=CARTESIAN_POINT('',(0.0293552669529663,-0.00879276695296638,0.00369436508138959));
#1965=CARTESIAN_POINT('',(0.0314875,-0.010925,0.00156213203435597));
#1966=CARTESIAN_POINT('',(-4.15171155000432E-20,-0.010925,0.00156213203435597));
#1967=CARTESIAN_POINT('',(-0.0314875,-0.010925,0.00156213203435597));
#1968=CARTESIAN_POINT('',(-0.0199623773447853,0.000600122655214674,0.0130872546895706));
#1969=CARTESIAN_POINT('',(-0.0293552669529663,-0.00879276695296636,0.0036943650813896));
#1970=CARTESIAN_POINT('',(-0.0275875,-0.007025,0.00546213203435597));
#1971=CARTESIAN_POINT('',(0.0275875,-0.007025,0.00546213203435597));
#1972=CARTESIAN_POINT('',(5.15863962803602E-18,-0.009675,0.003));
#1973=CARTESIAN_POINT('',(0.0302375,-0.009675,0.003));
#1974=CARTESIAN_POINT('',(0.0302375,-0.009675,0.00085));
#1975=CARTESIAN_POINT('',(0.0302375,-0.009675,-0.00015));
#1976=CARTESIAN_POINT('',(5.15863962803602E-18,-0.009675,-0.00015));
#1977=CARTESIAN_POINT('',(-0.0302375,-0.009675,-0.00015));
#1978=CARTESIAN_POINT('',(-0.0302375,-0.009675,0.003));
#1979=CARTESIAN_POINT('',(-0.0302375,-0.009675,0.00085));
#1980=CARTESIAN_POINT('',(5.15863962803602E-18,-0.009675,0.00085));
#1981=CARTESIAN_POINT('',(0.0302375,0.009938,0.003));
#1982=CARTESIAN_POINT('',(0.0302375,0.032813,0.003));
#1983=CARTESIAN_POINT('',(0.0302375,0.032813,-0.01015));
#1984=CARTESIAN_POINT('',(0.0302375,0.009938,-0.00015));
#1985=CARTESIAN_POINT('',(0.0302375,0.009938,0.00085));
#1986=CARTESIAN_POINT('',(0.0302375,0.012969,-0.01015));
#1987=CARTESIAN_POINT('',(-0.0302375,0.009938,0.003));
#1988=CARTESIAN_POINT('',(-0.0302375,0.032813,0.003));
#1989=CARTESIAN_POINT('',(-0.0302375,0.032813,-0.01015));
#1990=CARTESIAN_POINT('',(-0.0302375,0.012969,-0.01015));
#1991=CARTESIAN_POINT('',(-0.0302375,0.009938,0.00085));
#1992=CARTESIAN_POINT('',(-0.0302375,0.009938,-0.00015));
#1993=CARTESIAN_POINT('',(-6.93889390390723E-18,0.009938,-0.00015));
#1994=CARTESIAN_POINT('',(0.0300875,0.009938,-0.00015));
#1995=CARTESIAN_POINT('',(0.0300875,-0.009525,-0.00015));
#1996=CARTESIAN_POINT('',(5.20417042793042E-18,-0.009525,-0.00015));
#1997=CARTESIAN_POINT('',(-1.39123813794168E-17,0.032813,-0.01));
#1998=CARTESIAN_POINT('',(-1.39123813794168E-17,0.032813,-0.01015));
#1999=CARTESIAN_POINT('',(-1.66337423454693E-18,0.032813,-0.01));
#2000=CARTESIAN_POINT('',(0.0300875,0.032813,-0.01));
#2001=CARTESIAN_POINT('',(0.0300875,0.032813,0.006));
#2002=CARTESIAN_POINT('',(-6.93889390390723E-18,0.012969,-0.01015));
#2003=CARTESIAN_POINT('',(-0.0314875,0.012344,0.001));
#2004=CARTESIAN_POINT('',(-0.0314875,0.012344,0.00156213203435597));
#2005=CARTESIAN_POINT('',(-0.0314875,-0.010925,0.001));
#2006=CARTESIAN_POINT('',(-0.0314875,-0.010925,0.00085));
#2007=CARTESIAN_POINT('',(-0.0314875,0.012344,0.00085));
#2008=CARTESIAN_POINT('',(-4.15171155000432E-20,-0.010925,0.001));
#2009=CARTESIAN_POINT('',(0.0314875,-0.010925,0.001));
#2010=CARTESIAN_POINT('',(0.0314875,-0.010925,0.00085));
#2011=CARTESIAN_POINT('',(-1.33793056410439E-17,-0.010925,0.00085));
#2012=CARTESIAN_POINT('',(0.0314875,0.012344,0.001));
#2013=CARTESIAN_POINT('',(0.0314875,0.012344,0.00085));
#2014=CARTESIAN_POINT('',(0.0314875,0.012344,0.00156213203435597));
#2015=CARTESIAN_POINT('',(-6.93889390390723E-18,0.012344,0.00085));
#2016=CARTESIAN_POINT('',(-0.029943566017178,0.009938,0.00310606601717799));
#2017=CARTESIAN_POINT('',(-0.0275875,-0.007025,0.00546213203435597));
#2018=CARTESIAN_POINT('',(0.029943566017178,0.009938,0.00310606601717799));
#2019=CARTESIAN_POINT('',(0.0275875,-0.007025,0.00546213203435596));
#2020=CARTESIAN_POINT('',(-6.93889390390723E-18,0.009938,-0.01));
#2021=CARTESIAN_POINT('',(5.20417042793042E-18,-0.009525,-0.01));
#2022=CARTESIAN_POINT('',(0.0300875,-0.009525,-0.01));
#2023=CARTESIAN_POINT('',(0.0300875,0.009938,-0.01));
#2024=CARTESIAN_POINT('',(5.20417042793042E-18,-0.009525,0.006));
#2025=CARTESIAN_POINT('',(0.0300875,-0.009525,0.006));
#2026=CARTESIAN_POINT('',(0.0300875,0.009938,0.006));
#2027=CARTESIAN_POINT('',(0.0508125,0.011719,-0.013));
#2028=CARTESIAN_POINT('',(-0.0325875,-0.008025,-0.013));
#2029=CARTESIAN_POINT('',(0.0325875,0.00675663624780771,-0.013));
#2030=CARTESIAN_POINT('',(0.0508125,0.00458084427528452,-0.0153990774410505));
#2031=CARTESIAN_POINT('',(-0.0325875,0.00693028442547463,-0.0149848077530122));
#2032=CARTESIAN_POINT('',(0.0325875,-0.00785135182233306,-0.017591209042519));
#2033=CARTESIAN_POINT('',(0.0508125,-0.009025,-0.0153990774410505));
#2034=CARTESIAN_POINT('',(0.0325875,-0.009025,-0.014));
#2035=CARTESIAN_POINT('',(-0.0325875,-0.009025,-0.0166064012895067));
#2036=CARTESIAN_POINT('',(0.0508125,-0.008025,-0.014));
#2037=CARTESIAN_POINT('',(0.0508125,0.00675663624780771,-0.014));
#2038=CARTESIAN_POINT('',(0.0508125,-0.008025,-0.0166064012895067));
#2039=CARTESIAN_POINT('',(-0.0275875,-0.007025,0.006));
#2040=CARTESIAN_POINT('',(0.0275875,-0.007025,0.006));
#2041=CARTESIAN_POINT('',(0.0300875,-0.009525,0.006));
#2042=CARTESIAN_POINT('',(0.0300875,-0.009525,0.005));
#2043=CARTESIAN_POINT('',(0.0300875,-0.009525,-0.0103486161615757));
#2044=CARTESIAN_POINT('',(-0.0300875,-0.009525,0.006));
#2045=CARTESIAN_POINT('',(-0.0300875,-0.009525,0.005));
#2046=CARTESIAN_POINT('',(-0.0300875,-0.009525,-0.0103486161615757));
#2047=CARTESIAN_POINT('',(-0.0300875,-0.009525,-0.0103486161615757));
#2048=CARTESIAN_POINT('',(-0.0325875,-0.011025,-0.0113848630334075));
#2049=CARTESIAN_POINT('',(-0.0325875,-0.0112659624017704,-0.0115146129344332));
#2050=CARTESIAN_POINT('',(-0.0323822191045564,-0.0118177368290526,-0.0116140111469172));
#2051=CARTESIAN_POINT('',(-0.0318284785798839,-0.012025,-0.0115146216457866));
#2052=CARTESIAN_POINT('',(-0.0315875,-0.012025,-0.0113848630334075));
#2053=CARTESIAN_POINT('',(0.0300875,-0.009525,-0.0103486161615757));
#2054=CARTESIAN_POINT('',(0.0315875,-0.012025,-0.0113848630334075));
#2055=CARTESIAN_POINT('',(0.0318284624017704,-0.012025,-0.0115146129344332));
#2056=CARTESIAN_POINT('',(0.0323802368290526,-0.0118197191045564,-0.0116140111469172));
#2057=CARTESIAN_POINT('',(0.0325875,-0.0112659785798839,-0.0115146216457866));
#2058=CARTESIAN_POINT('',(0.0325875,-0.011025,-0.0113848630334075));
#2059=CARTESIAN_POINT('',(0.0315875,-0.011025,0.006));
#2060=CARTESIAN_POINT('',(0.0315875,-0.011025,-0.017798154882101));
#2061=CARTESIAN_POINT('',(0.0315875,-0.009025,-0.017798154882101));
#2062=CARTESIAN_POINT('',(0.0315875,-0.00867770364466613,-0.0197677703881254));
#2063=CARTESIAN_POINT('',(0.0315875,0.0115453518223331,-0.0162019000769296));
#2064=CARTESIAN_POINT('',(0.0315875,0.0328102963553338,-0.0124523166124926));
#2065=CARTESIAN_POINT('',(0.0315875,0.032463,-0.0104827011064682));
#2066=CARTESIAN_POINT('',(0.0315875,0.034463,-0.0104827011064682));
#2067=CARTESIAN_POINT('',(0.0315875,0.034463,0.006));
#2068=CARTESIAN_POINT('',(0.0315875,0.034463,0.005));
#2069=CARTESIAN_POINT('',(-0.0315875,-0.011025,0.006));
#2070=CARTESIAN_POINT('',(-0.0315875,-0.011025,-0.017798154882101));
#2071=CARTESIAN_POINT('',(-0.0315875,-0.009025,-0.017798154882101));
#2072=CARTESIAN_POINT('',(-0.0315875,-0.00867770364466614,-0.0197677703881254));
#2073=CARTESIAN_POINT('',(-0.0315875,0.0155105123899566,-0.0155027352860163));
#2074=CARTESIAN_POINT('',(-0.0315875,0.0328102963553338,-0.0124523166124926));
#2075=CARTESIAN_POINT('',(-0.0315875,0.032463,-0.0104827011064682));
#2076=CARTESIAN_POINT('',(-0.0315875,0.034463,-0.0104827011064682));
#2077=CARTESIAN_POINT('',(-0.0315875,0.034463,0.006));
#2078=CARTESIAN_POINT('',(-0.0315875,0.034463,0.006));
#2079=CARTESIAN_POINT('',(-0.0322946067811865,0.0351701067811866,0.00529289321881346));
#2080=CARTESIAN_POINT('',(-0.0315875,0.034463,0.006));
#2081=CARTESIAN_POINT('',(-6.93889390390723E-18,0.035463,0.005));
#2082=CARTESIAN_POINT('',(-0.021725,0.0246005,0.0158625));
#2083=CARTESIAN_POINT('',(-0.0325875,0.011719,0.005));
#2084=CARTESIAN_POINT('',(-0.0315875,-0.009525,0.006));
#2085=CARTESIAN_POINT('',(-0.0300875,-0.009525,0.006));
#2086=CARTESIAN_POINT('',(-0.0300875,-0.011025,0.006));
#2087=CARTESIAN_POINT('',(0.,-0.012025,0.005));
#2088=CARTESIAN_POINT('',(0.0300875,-0.011025,0.006));
#2089=CARTESIAN_POINT('',(0.0300875,-0.009525,0.006));
#2090=CARTESIAN_POINT('',(0.0315875,-0.009525,0.006));
#2091=CARTESIAN_POINT('',(0.0325875,0.011719,0.005));
#2092=CARTESIAN_POINT('',(0.0315875,0.034463,0.006));
#2093=CARTESIAN_POINT('',(0.0315875,0.034463,0.005));
#2094=CARTESIAN_POINT('',(0.0315875,0.034463,0.006));
#2095=CARTESIAN_POINT('',(-6.93889390390723E-18,0.035463,0.005));
#2096=CARTESIAN_POINT('',(-0.0075875,0.017813,-0.006));
#2097=CARTESIAN_POINT('',(-0.0075875,0.017813,-0.008));
#2098=CARTESIAN_POINT('',(-0.0075875,0.017813,-0.004));
#2099=CARTESIAN_POINT('',(-0.0075875,0.022813,-0.004));
#2100=CARTESIAN_POINT('',(-0.0075875,0.027813,-0.004));
#2101=CARTESIAN_POINT('',(-0.0075875,0.027813,-0.006));
#2102=CARTESIAN_POINT('',(-0.0075875,0.027813,-0.008));
#2103=CARTESIAN_POINT('',(-0.0075875,0.022813,-0.008));
#2104=CARTESIAN_POINT('',(-0.0315875,0.011719,-0.00739907744105047));
#2105=CARTESIAN_POINT('',(-0.0315875,0.031463,-0.001));
#2106=CARTESIAN_POINT('',(-0.0315875,0.028463,-0.001));
#2107=CARTESIAN_POINT('',(-0.0315875,0.031463,-0.001));
#2108=CARTESIAN_POINT('',(0.0315875,0.011719,-0.00739907744105047));
#2109=CARTESIAN_POINT('',(0.0315875,0.031463,-0.001));
#2110=CARTESIAN_POINT('',(0.0315875,0.034463,-0.001));
#2111=CARTESIAN_POINT('',(0.0315875,0.031463,-0.001));
#2112=MECHANICAL_DESIGN_GEOMETRIC_PRESENTATION_REPRESENTATION('',(#1250),
#2113);
#2113=(
GEOMETRIC_REPRESENTATION_CONTEXT(3)
GLOBAL_UNCERTAINTY_ASSIGNED_CONTEXT((#2114))
GLOBAL_UNIT_ASSIGNED_CONTEXT((#2117,#2116,#2115))
REPRESENTATION_CONTEXT('Part 2','TOP_LEVEL_ASSEMBLY_PART')
);
#2114=UNCERTAINTY_MEASURE_WITH_UNIT(LENGTH_MEASURE(2.E-5),#2117,
'DISTANCE_ACCURACY_VALUE','Maximum Tolerance applied to model');
#2115=(
NAMED_UNIT(*)
SI_UNIT($,.STERADIAN.)
SOLID_ANGLE_UNIT()
);
#2116=(
NAMED_UNIT(*)
PLANE_ANGLE_UNIT()
SI_UNIT($,.RADIAN.)
);
#2117=(
LENGTH_UNIT()
NAMED_UNIT(*)
SI_UNIT($,.METRE.)
);
#2118=PRODUCT_DEFINITION_SHAPE('','',#2119);
#2119=PRODUCT_DEFINITION('','',#2121,#2120);
#2120=PRODUCT_DEFINITION_CONTEXT('',#2127,'design');
#2121=PRODUCT_DEFINITION_FORMATION_WITH_SPECIFIED_SOURCE('','',#2123,
 .NOT_KNOWN.);
#2122=PRODUCT_RELATED_PRODUCT_CATEGORY('','',(#2123));
#2123=PRODUCT('Part 2','Part 2','Part 2',(#2125));
#2124=PRODUCT_CATEGORY('','');
#2125=PRODUCT_CONTEXT('',#2127,'mechanical');
#2126=APPLICATION_PROTOCOL_DEFINITION('international standard',
'ap242_managed_model_based_3d_engineering',2020,#2127);
#2127=APPLICATION_CONTEXT('managed model based 3d engineering');
ENDSEC;
END-ISO-10303-21;
