ISO-10303-21;
HEADER;
/* Generated by software containing ST-Developer
 * from STEP Tools, Inc. (www.steptools.com) 
 */
/* OPTION: using custom renumber hook */

FILE_DESCRIPTION(
/* description */ ('STEP AP242 Edition 2',
'CAx-IF Rec.Pracs.---Representation and Presentation of Product Manufa
cturing Information (PMI)---4.0---2014-10-13',
'CAx-IF Rec.Pracs.---3D Tessellated Geometry---0.4---2014-09-14','2;1',
'CAx-IF Rec.Pracs.---User Defined Attributes---1.5---2016-08-15'),
/* implementation_level */ '2;1');

FILE_NAME(
/* name */ 'Part Studio 1 - Part 1',
/* time_stamp */ '2026-06-15T23:31:38Z',
/* author */ (''),
/* organization */ (''),
/* preprocessor_version */ 'ST-DEVELOPER v20',
/* originating_system */ 'ONSHAPE BY PTC INC, 1.216',
/* authorisation */ '  ');

FILE_SCHEMA (('AP242_MANAGED_MODEL_BASED_3D_ENGINEERING_MIM_LF { 1 0 10303 442 3 1 4 }'));
ENDSEC;

DATA;
#10=SHAPE_REPRESENTATION_RELATIONSHIP('','',#1234,#11);
#11=ADVANCED_BREP_SHAPE_REPRESENTATION('',(#1232),#2120);
#12=TOROIDAL_SURFACE('',#1325,0.007,0.002);
#13=TOROIDAL_SURFACE('',#1328,0.007,0.002);
#14=(
BOUNDED_SURFACE()
B_SPLINE_SURFACE(3,2,((#2027,#2028,#2029),(#2030,#2031,#2032),(#2033,#2034,
#2035),(#2036,#2037,#2038),(#2039,#2040,#2041),(#2042,#2043,#2044)),
 .UNSPECIFIED.,.F.,.F.,.F.)
B_SPLINE_SURFACE_WITH_KNOTS((4,1,1,4),(3,3),(0.00353527663195536,0.00500098778194688,
0.00646669893193841,0.00939812123192147),(0.,1.),.UNSPECIFIED.)
GEOMETRIC_REPRESENTATION_ITEM()
RATIONAL_B_SPLINE_SURFACE(((1.,0.707106781186547,1.),(1.,0.750577225407566,
1.),(1.,0.835576951737185,1.),(1.,0.961688615388607,1.),(1.,0.999999999998807,
1.),(1.,1.,1.)))
REPRESENTATION_ITEM('')
SURFACE()
);
#15=(
BOUNDED_SURFACE()
B_SPLINE_SURFACE(3,2,((#2048,#2049,#2050),(#2051,#2052,#2053),(#2054,#2055,
#2056),(#2057,#2058,#2059),(#2060,#2061,#2062),(#2063,#2064,#2065)),
 .UNSPECIFIED.,.F.,.F.,.F.)
B_SPLINE_SURFACE_WITH_KNOTS((4,1,1,4),(3,3),(0.0035352766319554,0.00500098778194691,
0.00646669893193842,0.00939812123192143),(0.,1.),.UNSPECIFIED.)
GEOMETRIC_REPRESENTATION_ITEM()
RATIONAL_B_SPLINE_SURFACE(((1.,0.707106781186548,1.),(1.,0.750577225407212,
1.),(1.,0.835576951737346,1.),(1.,0.96168861538851,1.),(1.,0.999999999998807,
1.),(1.,1.,1.)))
REPRESENTATION_ITEM('')
SURFACE()
);
#16=(
BOUNDED_SURFACE()
B_SPLINE_SURFACE(3,2,((#2066,#2067,#2068),(#2069,#2070,#2071),(#2072,#2073,
#2074),(#2075,#2076,#2077),(#2078,#2079,#2080),(#2081,#2082,#2083)),
 .UNSPECIFIED.,.F.,.F.,.F.)
B_SPLINE_SURFACE_WITH_KNOTS((4,1,1,4),(3,3),(0.00353527663195538,0.0050009877819469,
0.00646669893193842,0.00939812123192147),(0.,1.),.UNSPECIFIED.)
GEOMETRIC_REPRESENTATION_ITEM()
RATIONAL_B_SPLINE_SURFACE(((1.,0.707106781186547,1.),(1.,0.750577225407731,
1.),(1.,0.83557695173711,1.),(1.,0.961688615388654,1.),(1.,0.999999999998807,
1.),(1.,1.,1.)))
REPRESENTATION_ITEM('')
SURFACE()
);
#17=(
BOUNDED_SURFACE()
B_SPLINE_SURFACE(3,2,((#2087,#2088,#2089),(#2090,#2091,#2092),(#2093,#2094,
#2095),(#2096,#2097,#2098),(#2099,#2100,#2101),(#2102,#2103,#2104)),
 .UNSPECIFIED.,.F.,.F.,.F.)
B_SPLINE_SURFACE_WITH_KNOTS((4,1,1,4),(3,3),(0.00353527663195538,0.0050009877819469,
0.00646669893193843,0.00939812123192148),(0.,1.),.UNSPECIFIED.)
GEOMETRIC_REPRESENTATION_ITEM()
RATIONAL_B_SPLINE_SURFACE(((1.,0.707106781186547,1.),(1.,0.750577225408113,
1.),(1.,0.835576951736938,1.),(1.,0.961688615388755,1.),(1.,0.999999999998807,
1.),(1.,1.,1.)))
REPRESENTATION_ITEM('')
SURFACE()
);
#18=B_SPLINE_CURVE_WITH_KNOTS('',3,(#1995,#1996,#1997,#1998,#1999,#2000),
 .UNSPECIFIED.,.F.,.F.,(4,1,1,4),(1.30104260698261E-18,0.00110380826133944,
0.00220761652267889,0.00441523304535777),.UNSPECIFIED.);
#19=B_SPLINE_CURVE_WITH_KNOTS('',3,(#2004,#2005,#2006,#2007,#2008,#2009),
 .UNSPECIFIED.,.F.,.F.,(4,1,1,4),(0.,0.00110380826133943,0.00220761652267885,
0.00441523304535771),.UNSPECIFIED.);
#20=B_SPLINE_CURVE_WITH_KNOTS('',3,(#2010,#2011,#2012,#2013,#2014,#2015),
 .UNSPECIFIED.,.F.,.F.,(4,1,1,4),(0.,0.00110380826133944,0.00220761652267887,
0.00441523304535774),.UNSPECIFIED.);
#21=B_SPLINE_CURVE_WITH_KNOTS('',3,(#2019,#2020,#2021,#2022,#2023,#2024),
 .UNSPECIFIED.,.F.,.F.,(4,1,1,4),(0.,0.00110380826133943,0.00220761652267887,
0.00441523304535773),.UNSPECIFIED.);
#22=CYLINDRICAL_SURFACE('',#1273,0.005);
#23=CYLINDRICAL_SURFACE('',#1292,0.001);
#24=CYLINDRICAL_SURFACE('',#1293,0.001);
#25=CYLINDRICAL_SURFACE('',#1294,0.001);
#26=CYLINDRICAL_SURFACE('',#1295,0.001);
#27=CYLINDRICAL_SURFACE('',#1296,0.001);
#28=CYLINDRICAL_SURFACE('',#1297,0.001);
#29=CYLINDRICAL_SURFACE('',#1298,0.001);
#30=CYLINDRICAL_SURFACE('',#1299,0.001);
#31=CYLINDRICAL_SURFACE('',#1300,0.001);
#32=CYLINDRICAL_SURFACE('',#1301,0.001);
#33=CYLINDRICAL_SURFACE('',#1302,0.001);
#34=CYLINDRICAL_SURFACE('',#1303,0.001);
#35=CYLINDRICAL_SURFACE('',#1314,0.0025);
#36=CYLINDRICAL_SURFACE('',#1319,0.005);
#37=CYLINDRICAL_SURFACE('',#1330,0.00235);
#38=CYLINDRICAL_SURFACE('',#1333,0.0035);
#39=CYLINDRICAL_SURFACE('',#1336,0.00235);
#40=CYLINDRICAL_SURFACE('',#1338,0.0035);
#41=CIRCLE('',#1238,0.005);
#42=CIRCLE('',#1239,0.001);
#43=CIRCLE('',#1240,0.001);
#44=CIRCLE('',#1241,0.001);
#45=CIRCLE('',#1242,0.001);
#46=CIRCLE('',#1243,0.001);
#47=CIRCLE('',#1244,0.001);
#48=CIRCLE('',#1245,0.001);
#49=CIRCLE('',#1246,0.001);
#50=CIRCLE('',#1247,0.001);
#51=CIRCLE('',#1248,0.001);
#52=CIRCLE('',#1249,0.001);
#53=CIRCLE('',#1250,0.001);
#54=CIRCLE('',#1256,0.00235);
#55=CIRCLE('',#1257,0.0035);
#56=CIRCLE('',#1259,0.00235);
#57=CIRCLE('',#1260,0.0035);
#58=CIRCLE('',#1274,0.005);
#59=CIRCLE('',#1280,0.001);
#60=CIRCLE('',#1281,0.001);
#61=CIRCLE('',#1282,0.001);
#62=CIRCLE('',#1283,0.001);
#63=CIRCLE('',#1284,0.001);
#64=CIRCLE('',#1285,0.001);
#65=CIRCLE('',#1286,0.001);
#66=CIRCLE('',#1287,0.001);
#67=CIRCLE('',#1288,0.001);
#68=CIRCLE('',#1289,0.001);
#69=CIRCLE('',#1290,0.001);
#70=CIRCLE('',#1291,0.001);
#71=CIRCLE('',#1307,0.00235);
#72=CIRCLE('',#1310,0.00235);
#73=CIRCLE('',#1315,0.0025);
#74=CIRCLE('',#1316,0.0025);
#75=CIRCLE('',#1318,0.007);
#76=CIRCLE('',#1320,0.005);
#77=CIRCLE('',#1321,0.005);
#78=CIRCLE('',#1323,0.007);
#79=CIRCLE('',#1324,0.002);
#80=CIRCLE('',#1326,0.002);
#81=CIRCLE('',#1327,0.002);
#82=CIRCLE('',#1329,0.002);
#83=CIRCLE('',#1331,0.00235);
#84=CIRCLE('',#1334,0.0035);
#85=CIRCLE('',#1337,0.00235);
#86=CIRCLE('',#1339,0.0035);
#87=ORIENTED_EDGE('',*,*,#433,.T.);
#88=ORIENTED_EDGE('',*,*,#434,.T.);
#89=ORIENTED_EDGE('',*,*,#435,.F.);
#90=ORIENTED_EDGE('',*,*,#436,.T.);
#91=ORIENTED_EDGE('',*,*,#437,.T.);
#92=ORIENTED_EDGE('',*,*,#438,.T.);
#93=ORIENTED_EDGE('',*,*,#439,.F.);
#94=ORIENTED_EDGE('',*,*,#440,.F.);
#95=ORIENTED_EDGE('',*,*,#441,.T.);
#96=ORIENTED_EDGE('',*,*,#442,.F.);
#97=ORIENTED_EDGE('',*,*,#443,.T.);
#98=ORIENTED_EDGE('',*,*,#444,.T.);
#99=ORIENTED_EDGE('',*,*,#445,.T.);
#100=ORIENTED_EDGE('',*,*,#446,.T.);
#101=ORIENTED_EDGE('',*,*,#447,.T.);
#102=ORIENTED_EDGE('',*,*,#448,.F.);
#103=ORIENTED_EDGE('',*,*,#449,.T.);
#104=ORIENTED_EDGE('',*,*,#450,.F.);
#105=ORIENTED_EDGE('',*,*,#451,.T.);
#106=ORIENTED_EDGE('',*,*,#452,.T.);
#107=ORIENTED_EDGE('',*,*,#453,.T.);
#108=ORIENTED_EDGE('',*,*,#454,.T.);
#109=ORIENTED_EDGE('',*,*,#455,.T.);
#110=ORIENTED_EDGE('',*,*,#456,.F.);
#111=ORIENTED_EDGE('',*,*,#457,.T.);
#112=ORIENTED_EDGE('',*,*,#458,.F.);
#113=ORIENTED_EDGE('',*,*,#459,.T.);
#114=ORIENTED_EDGE('',*,*,#460,.T.);
#115=ORIENTED_EDGE('',*,*,#461,.T.);
#116=ORIENTED_EDGE('',*,*,#462,.T.);
#117=ORIENTED_EDGE('',*,*,#463,.T.);
#118=ORIENTED_EDGE('',*,*,#464,.F.);
#119=ORIENTED_EDGE('',*,*,#465,.T.);
#120=ORIENTED_EDGE('',*,*,#466,.F.);
#121=ORIENTED_EDGE('',*,*,#467,.T.);
#122=ORIENTED_EDGE('',*,*,#468,.T.);
#123=ORIENTED_EDGE('',*,*,#469,.T.);
#124=ORIENTED_EDGE('',*,*,#470,.T.);
#125=ORIENTED_EDGE('',*,*,#471,.F.);
#126=ORIENTED_EDGE('',*,*,#472,.T.);
#127=ORIENTED_EDGE('',*,*,#473,.T.);
#128=ORIENTED_EDGE('',*,*,#474,.T.);
#129=ORIENTED_EDGE('',*,*,#475,.T.);
#130=ORIENTED_EDGE('',*,*,#476,.F.);
#131=ORIENTED_EDGE('',*,*,#477,.F.);
#132=ORIENTED_EDGE('',*,*,#478,.T.);
#133=ORIENTED_EDGE('',*,*,#479,.F.);
#134=ORIENTED_EDGE('',*,*,#480,.T.);
#135=ORIENTED_EDGE('',*,*,#481,.T.);
#136=ORIENTED_EDGE('',*,*,#482,.F.);
#137=ORIENTED_EDGE('',*,*,#483,.T.);
#138=ORIENTED_EDGE('',*,*,#484,.T.);
#139=ORIENTED_EDGE('',*,*,#485,.F.);
#140=ORIENTED_EDGE('',*,*,#486,.F.);
#141=ORIENTED_EDGE('',*,*,#487,.F.);
#142=ORIENTED_EDGE('',*,*,#488,.F.);
#143=ORIENTED_EDGE('',*,*,#489,.F.);
#144=ORIENTED_EDGE('',*,*,#490,.F.);
#145=ORIENTED_EDGE('',*,*,#491,.F.);
#146=ORIENTED_EDGE('',*,*,#492,.T.);
#147=ORIENTED_EDGE('',*,*,#493,.F.);
#148=ORIENTED_EDGE('',*,*,#494,.F.);
#149=ORIENTED_EDGE('',*,*,#485,.T.);
#150=ORIENTED_EDGE('',*,*,#495,.T.);
#151=ORIENTED_EDGE('',*,*,#473,.F.);
#152=ORIENTED_EDGE('',*,*,#491,.T.);
#153=ORIENTED_EDGE('',*,*,#496,.T.);
#154=ORIENTED_EDGE('',*,*,#486,.T.);
#155=ORIENTED_EDGE('',*,*,#494,.T.);
#156=ORIENTED_EDGE('',*,*,#472,.F.);
#157=ORIENTED_EDGE('',*,*,#497,.F.);
#158=ORIENTED_EDGE('',*,*,#478,.F.);
#159=ORIENTED_EDGE('',*,*,#498,.F.);
#160=ORIENTED_EDGE('',*,*,#499,.F.);
#161=ORIENTED_EDGE('',*,*,#484,.F.);
#162=ORIENTED_EDGE('',*,*,#500,.F.);
#163=ORIENTED_EDGE('',*,*,#433,.F.);
#164=ORIENTED_EDGE('',*,*,#501,.T.);
#165=ORIENTED_EDGE('',*,*,#502,.T.);
#166=ORIENTED_EDGE('',*,*,#476,.T.);
#167=ORIENTED_EDGE('',*,*,#503,.T.);
#168=ORIENTED_EDGE('',*,*,#466,.T.);
#169=ORIENTED_EDGE('',*,*,#495,.F.);
#170=ORIENTED_EDGE('',*,*,#437,.F.);
#171=ORIENTED_EDGE('',*,*,#504,.F.);
#172=ORIENTED_EDGE('',*,*,#505,.T.);
#173=ORIENTED_EDGE('',*,*,#506,.T.);
#174=ORIENTED_EDGE('',*,*,#440,.T.);
#175=ORIENTED_EDGE('',*,*,#507,.F.);
#176=ORIENTED_EDGE('',*,*,#508,.F.);
#177=ORIENTED_EDGE('',*,*,#504,.T.);
#178=ORIENTED_EDGE('',*,*,#439,.T.);
#179=ORIENTED_EDGE('',*,*,#509,.F.);
#180=ORIENTED_EDGE('',*,*,#510,.F.);
#181=ORIENTED_EDGE('',*,*,#507,.T.);
#182=ORIENTED_EDGE('',*,*,#511,.T.);
#183=ORIENTED_EDGE('',*,*,#512,.T.);
#184=ORIENTED_EDGE('',*,*,#444,.F.);
#185=ORIENTED_EDGE('',*,*,#513,.T.);
#186=ORIENTED_EDGE('',*,*,#442,.T.);
#187=ORIENTED_EDGE('',*,*,#514,.T.);
#188=ORIENTED_EDGE('',*,*,#515,.F.);
#189=ORIENTED_EDGE('',*,*,#516,.T.);
#190=ORIENTED_EDGE('',*,*,#448,.T.);
#191=ORIENTED_EDGE('',*,*,#517,.T.);
#192=ORIENTED_EDGE('',*,*,#518,.F.);
#193=ORIENTED_EDGE('',*,*,#519,.T.);
#194=ORIENTED_EDGE('',*,*,#452,.F.);
#195=ORIENTED_EDGE('',*,*,#520,.T.);
#196=ORIENTED_EDGE('',*,*,#521,.T.);
#197=ORIENTED_EDGE('',*,*,#522,.T.);
#198=ORIENTED_EDGE('',*,*,#450,.T.);
#199=ORIENTED_EDGE('',*,*,#523,.T.);
#200=ORIENTED_EDGE('',*,*,#524,.F.);
#201=ORIENTED_EDGE('',*,*,#525,.T.);
#202=ORIENTED_EDGE('',*,*,#456,.T.);
#203=ORIENTED_EDGE('',*,*,#526,.T.);
#204=ORIENTED_EDGE('',*,*,#527,.F.);
#205=ORIENTED_EDGE('',*,*,#528,.T.);
#206=ORIENTED_EDGE('',*,*,#529,.T.);
#207=ORIENTED_EDGE('',*,*,#530,.T.);
#208=ORIENTED_EDGE('',*,*,#460,.F.);
#209=ORIENTED_EDGE('',*,*,#531,.T.);
#210=ORIENTED_EDGE('',*,*,#458,.T.);
#211=ORIENTED_EDGE('',*,*,#532,.T.);
#212=ORIENTED_EDGE('',*,*,#533,.F.);
#213=ORIENTED_EDGE('',*,*,#534,.T.);
#214=ORIENTED_EDGE('',*,*,#464,.T.);
#215=ORIENTED_EDGE('',*,*,#535,.T.);
#216=ORIENTED_EDGE('',*,*,#536,.F.);
#217=ORIENTED_EDGE('',*,*,#537,.T.);
#218=ORIENTED_EDGE('',*,*,#538,.T.);
#219=ORIENTED_EDGE('',*,*,#441,.F.);
#220=ORIENTED_EDGE('',*,*,#446,.F.);
#221=ORIENTED_EDGE('',*,*,#539,.T.);
#222=ORIENTED_EDGE('',*,*,#540,.T.);
#223=ORIENTED_EDGE('',*,*,#541,.T.);
#224=ORIENTED_EDGE('',*,*,#542,.T.);
#225=ORIENTED_EDGE('',*,*,#543,.T.);
#226=ORIENTED_EDGE('',*,*,#454,.F.);
#227=ORIENTED_EDGE('',*,*,#544,.T.);
#228=ORIENTED_EDGE('',*,*,#462,.F.);
#229=ORIENTED_EDGE('',*,*,#545,.T.);
#230=ORIENTED_EDGE('',*,*,#546,.T.);
#231=ORIENTED_EDGE('',*,*,#547,.T.);
#232=ORIENTED_EDGE('',*,*,#438,.F.);
#233=ORIENTED_EDGE('',*,*,#506,.F.);
#234=ORIENTED_EDGE('',*,*,#548,.T.);
#235=ORIENTED_EDGE('',*,*,#509,.T.);
#236=ORIENTED_EDGE('',*,*,#549,.T.);
#237=ORIENTED_EDGE('',*,*,#550,.T.);
#238=ORIENTED_EDGE('',*,*,#551,.T.);
#239=ORIENTED_EDGE('',*,*,#552,.T.);
#240=ORIENTED_EDGE('',*,*,#529,.F.);
#241=ORIENTED_EDGE('',*,*,#553,.T.);
#242=ORIENTED_EDGE('',*,*,#533,.T.);
#243=ORIENTED_EDGE('',*,*,#554,.T.);
#244=ORIENTED_EDGE('',*,*,#536,.T.);
#245=ORIENTED_EDGE('',*,*,#555,.T.);
#246=ORIENTED_EDGE('',*,*,#546,.F.);
#247=ORIENTED_EDGE('',*,*,#556,.T.);
#248=ORIENTED_EDGE('',*,*,#521,.F.);
#249=ORIENTED_EDGE('',*,*,#557,.T.);
#250=ORIENTED_EDGE('',*,*,#524,.T.);
#251=ORIENTED_EDGE('',*,*,#558,.T.);
#252=ORIENTED_EDGE('',*,*,#527,.T.);
#253=ORIENTED_EDGE('',*,*,#559,.T.);
#254=ORIENTED_EDGE('',*,*,#542,.F.);
#255=ORIENTED_EDGE('',*,*,#560,.T.);
#256=ORIENTED_EDGE('',*,*,#511,.F.);
#257=ORIENTED_EDGE('',*,*,#561,.T.);
#258=ORIENTED_EDGE('',*,*,#515,.T.);
#259=ORIENTED_EDGE('',*,*,#562,.T.);
#260=ORIENTED_EDGE('',*,*,#518,.T.);
#261=ORIENTED_EDGE('',*,*,#563,.T.);
#262=ORIENTED_EDGE('',*,*,#540,.F.);
#263=ORIENTED_EDGE('',*,*,#564,.T.);
#264=ORIENTED_EDGE('',*,*,#538,.F.);
#265=ORIENTED_EDGE('',*,*,#505,.F.);
#266=ORIENTED_EDGE('',*,*,#508,.T.);
#267=ORIENTED_EDGE('',*,*,#510,.T.);
#268=ORIENTED_EDGE('',*,*,#548,.F.);
#269=ORIENTED_EDGE('',*,*,#564,.F.);
#270=ORIENTED_EDGE('',*,*,#539,.F.);
#271=ORIENTED_EDGE('',*,*,#445,.F.);
#272=ORIENTED_EDGE('',*,*,#512,.F.);
#273=ORIENTED_EDGE('',*,*,#563,.F.);
#274=ORIENTED_EDGE('',*,*,#517,.F.);
#275=ORIENTED_EDGE('',*,*,#447,.F.);
#276=ORIENTED_EDGE('',*,*,#541,.F.);
#277=ORIENTED_EDGE('',*,*,#562,.F.);
#278=ORIENTED_EDGE('',*,*,#514,.F.);
#279=ORIENTED_EDGE('',*,*,#449,.F.);
#280=ORIENTED_EDGE('',*,*,#519,.F.);
#281=ORIENTED_EDGE('',*,*,#561,.F.);
#282=ORIENTED_EDGE('',*,*,#513,.F.);
#283=ORIENTED_EDGE('',*,*,#443,.F.);
#284=ORIENTED_EDGE('',*,*,#516,.F.);
#285=ORIENTED_EDGE('',*,*,#556,.F.);
#286=ORIENTED_EDGE('',*,*,#545,.F.);
#287=ORIENTED_EDGE('',*,*,#461,.F.);
#288=ORIENTED_EDGE('',*,*,#530,.F.);
#289=ORIENTED_EDGE('',*,*,#555,.F.);
#290=ORIENTED_EDGE('',*,*,#535,.F.);
#291=ORIENTED_EDGE('',*,*,#463,.F.);
#292=ORIENTED_EDGE('',*,*,#547,.F.);
#293=ORIENTED_EDGE('',*,*,#554,.F.);
#294=ORIENTED_EDGE('',*,*,#532,.F.);
#295=ORIENTED_EDGE('',*,*,#465,.F.);
#296=ORIENTED_EDGE('',*,*,#537,.F.);
#297=ORIENTED_EDGE('',*,*,#553,.F.);
#298=ORIENTED_EDGE('',*,*,#531,.F.);
#299=ORIENTED_EDGE('',*,*,#459,.F.);
#300=ORIENTED_EDGE('',*,*,#534,.F.);
#301=ORIENTED_EDGE('',*,*,#559,.F.);
#302=ORIENTED_EDGE('',*,*,#526,.F.);
#303=ORIENTED_EDGE('',*,*,#455,.F.);
#304=ORIENTED_EDGE('',*,*,#543,.F.);
#305=ORIENTED_EDGE('',*,*,#558,.F.);
#306=ORIENTED_EDGE('',*,*,#523,.F.);
#307=ORIENTED_EDGE('',*,*,#457,.F.);
#308=ORIENTED_EDGE('',*,*,#528,.F.);
#309=ORIENTED_EDGE('',*,*,#557,.F.);
#310=ORIENTED_EDGE('',*,*,#520,.F.);
#311=ORIENTED_EDGE('',*,*,#451,.F.);
#312=ORIENTED_EDGE('',*,*,#525,.F.);
#313=ORIENTED_EDGE('',*,*,#560,.F.);
#314=ORIENTED_EDGE('',*,*,#544,.F.);
#315=ORIENTED_EDGE('',*,*,#453,.F.);
#316=ORIENTED_EDGE('',*,*,#522,.F.);
#317=ORIENTED_EDGE('',*,*,#565,.T.);
#318=ORIENTED_EDGE('',*,*,#566,.T.);
#319=ORIENTED_EDGE('',*,*,#567,.T.);
#320=ORIENTED_EDGE('',*,*,#568,.T.);
#321=ORIENTED_EDGE('',*,*,#569,.T.);
#322=ORIENTED_EDGE('',*,*,#570,.T.);
#323=ORIENTED_EDGE('',*,*,#571,.T.);
#324=ORIENTED_EDGE('',*,*,#572,.F.);
#325=ORIENTED_EDGE('',*,*,#492,.F.);
#326=ORIENTED_EDGE('',*,*,#499,.T.);
#327=ORIENTED_EDGE('',*,*,#573,.F.);
#328=ORIENTED_EDGE('',*,*,#501,.F.);
#329=ORIENTED_EDGE('',*,*,#436,.F.);
#330=ORIENTED_EDGE('',*,*,#574,.T.);
#331=ORIENTED_EDGE('',*,*,#498,.T.);
#332=ORIENTED_EDGE('',*,*,#477,.T.);
#333=ORIENTED_EDGE('',*,*,#502,.F.);
#334=ORIENTED_EDGE('',*,*,#573,.T.);
#335=ORIENTED_EDGE('',*,*,#575,.F.);
#336=ORIENTED_EDGE('',*,*,#482,.T.);
#337=ORIENTED_EDGE('',*,*,#576,.T.);
#338=ORIENTED_EDGE('',*,*,#577,.T.);
#339=ORIENTED_EDGE('',*,*,#574,.F.);
#340=ORIENTED_EDGE('',*,*,#435,.T.);
#341=ORIENTED_EDGE('',*,*,#578,.T.);
#342=ORIENTED_EDGE('',*,*,#579,.T.);
#343=ORIENTED_EDGE('',*,*,#576,.F.);
#344=ORIENTED_EDGE('',*,*,#489,.T.);
#345=ORIENTED_EDGE('',*,*,#488,.T.);
#346=ORIENTED_EDGE('',*,*,#580,.T.);
#347=ORIENTED_EDGE('',*,*,#493,.T.);
#348=ORIENTED_EDGE('',*,*,#572,.T.);
#349=ORIENTED_EDGE('',*,*,#581,.T.);
#350=ORIENTED_EDGE('',*,*,#578,.F.);
#351=ORIENTED_EDGE('',*,*,#565,.F.);
#352=ORIENTED_EDGE('',*,*,#577,.F.);
#353=ORIENTED_EDGE('',*,*,#582,.F.);
#354=ORIENTED_EDGE('',*,*,#551,.F.);
#355=ORIENTED_EDGE('',*,*,#583,.F.);
#356=ORIENTED_EDGE('',*,*,#584,.F.);
#357=ORIENTED_EDGE('',*,*,#582,.T.);
#358=ORIENTED_EDGE('',*,*,#579,.F.);
#359=ORIENTED_EDGE('',*,*,#585,.F.);
#360=ORIENTED_EDGE('',*,*,#552,.F.);
#361=ORIENTED_EDGE('',*,*,#585,.T.);
#362=ORIENTED_EDGE('',*,*,#581,.F.);
#363=ORIENTED_EDGE('',*,*,#571,.F.);
#364=ORIENTED_EDGE('',*,*,#586,.F.);
#365=ORIENTED_EDGE('',*,*,#587,.F.);
#366=ORIENTED_EDGE('',*,*,#549,.F.);
#367=ORIENTED_EDGE('',*,*,#469,.F.);
#368=ORIENTED_EDGE('',*,*,#588,.T.);
#369=ORIENTED_EDGE('',*,*,#481,.F.);
#370=ORIENTED_EDGE('',*,*,#589,.T.);
#371=ORIENTED_EDGE('',*,*,#570,.F.);
#372=ORIENTED_EDGE('',*,*,#590,.T.);
#373=ORIENTED_EDGE('',*,*,#586,.T.);
#374=ORIENTED_EDGE('',*,*,#568,.F.);
#375=ORIENTED_EDGE('',*,*,#591,.T.);
#376=ORIENTED_EDGE('',*,*,#592,.T.);
#377=ORIENTED_EDGE('',*,*,#593,.T.);
#378=ORIENTED_EDGE('',*,*,#550,.F.);
#379=ORIENTED_EDGE('',*,*,#594,.T.);
#380=ORIENTED_EDGE('',*,*,#595,.T.);
#381=ORIENTED_EDGE('',*,*,#596,.T.);
#382=ORIENTED_EDGE('',*,*,#584,.T.);
#383=ORIENTED_EDGE('',*,*,#597,.T.);
#384=ORIENTED_EDGE('',*,*,#566,.F.);
#385=ORIENTED_EDGE('',*,*,#591,.F.);
#386=ORIENTED_EDGE('',*,*,#567,.F.);
#387=ORIENTED_EDGE('',*,*,#598,.F.);
#388=ORIENTED_EDGE('',*,*,#598,.T.);
#389=ORIENTED_EDGE('',*,*,#597,.F.);
#390=ORIENTED_EDGE('',*,*,#599,.F.);
#391=ORIENTED_EDGE('',*,*,#592,.F.);
#392=ORIENTED_EDGE('',*,*,#583,.T.);
#393=ORIENTED_EDGE('',*,*,#593,.F.);
#394=ORIENTED_EDGE('',*,*,#599,.T.);
#395=ORIENTED_EDGE('',*,*,#569,.F.);
#396=ORIENTED_EDGE('',*,*,#596,.F.);
#397=ORIENTED_EDGE('',*,*,#600,.F.);
#398=ORIENTED_EDGE('',*,*,#600,.T.);
#399=ORIENTED_EDGE('',*,*,#595,.F.);
#400=ORIENTED_EDGE('',*,*,#601,.F.);
#401=ORIENTED_EDGE('',*,*,#590,.F.);
#402=ORIENTED_EDGE('',*,*,#594,.F.);
#403=ORIENTED_EDGE('',*,*,#587,.T.);
#404=ORIENTED_EDGE('',*,*,#601,.T.);
#405=ORIENTED_EDGE('',*,*,#602,.T.);
#406=ORIENTED_EDGE('',*,*,#496,.F.);
#407=ORIENTED_EDGE('',*,*,#490,.T.);
#408=ORIENTED_EDGE('',*,*,#580,.F.);
#409=ORIENTED_EDGE('',*,*,#487,.T.);
#410=ORIENTED_EDGE('',*,*,#602,.F.);
#411=ORIENTED_EDGE('',*,*,#497,.T.);
#412=ORIENTED_EDGE('',*,*,#471,.T.);
#413=ORIENTED_EDGE('',*,*,#603,.F.);
#414=ORIENTED_EDGE('',*,*,#479,.T.);
#415=ORIENTED_EDGE('',*,*,#470,.F.);
#416=ORIENTED_EDGE('',*,*,#589,.F.);
#417=ORIENTED_EDGE('',*,*,#480,.F.);
#418=ORIENTED_EDGE('',*,*,#603,.T.);
#419=ORIENTED_EDGE('',*,*,#604,.F.);
#420=ORIENTED_EDGE('',*,*,#500,.T.);
#421=ORIENTED_EDGE('',*,*,#483,.F.);
#422=ORIENTED_EDGE('',*,*,#575,.T.);
#423=ORIENTED_EDGE('',*,*,#434,.F.);
#424=ORIENTED_EDGE('',*,*,#467,.F.);
#425=ORIENTED_EDGE('',*,*,#503,.F.);
#426=ORIENTED_EDGE('',*,*,#475,.F.);
#427=ORIENTED_EDGE('',*,*,#605,.T.);
#428=ORIENTED_EDGE('',*,*,#604,.T.);
#429=ORIENTED_EDGE('',*,*,#468,.F.);
#430=ORIENTED_EDGE('',*,*,#605,.F.);
#431=ORIENTED_EDGE('',*,*,#474,.F.);
#432=ORIENTED_EDGE('',*,*,#588,.F.);
#433=EDGE_CURVE('',#606,#607,#720,.T.);
#434=EDGE_CURVE('',#607,#608,#721,.T.);
#435=EDGE_CURVE('',#609,#608,#722,.T.);
#436=EDGE_CURVE('',#609,#606,#723,.T.);
#437=EDGE_CURVE('',#610,#611,#724,.T.);
#438=EDGE_CURVE('',#611,#612,#725,.T.);
#439=EDGE_CURVE('',#613,#612,#726,.T.);
#440=EDGE_CURVE('',#610,#613,#727,.T.);
#441=EDGE_CURVE('',#614,#614,#41,.T.);
#442=EDGE_CURVE('',#615,#616,#728,.T.);
#443=EDGE_CURVE('',#615,#617,#42,.T.);
#444=EDGE_CURVE('',#617,#618,#729,.T.);
#445=EDGE_CURVE('',#618,#619,#43,.T.);
#446=EDGE_CURVE('',#619,#620,#730,.T.);
#447=EDGE_CURVE('',#620,#621,#44,.T.);
#448=EDGE_CURVE('',#622,#621,#731,.T.);
#449=EDGE_CURVE('',#622,#616,#45,.T.);
#450=EDGE_CURVE('',#623,#624,#732,.T.);
#451=EDGE_CURVE('',#623,#625,#46,.T.);
#452=EDGE_CURVE('',#625,#626,#733,.T.);
#453=EDGE_CURVE('',#626,#627,#47,.T.);
#454=EDGE_CURVE('',#627,#628,#734,.T.);
#455=EDGE_CURVE('',#628,#629,#48,.T.);
#456=EDGE_CURVE('',#630,#629,#735,.T.);
#457=EDGE_CURVE('',#630,#624,#49,.T.);
#458=EDGE_CURVE('',#631,#632,#736,.T.);
#459=EDGE_CURVE('',#631,#633,#50,.T.);
#460=EDGE_CURVE('',#633,#634,#737,.T.);
#461=EDGE_CURVE('',#634,#635,#51,.T.);
#462=EDGE_CURVE('',#635,#636,#738,.T.);
#463=EDGE_CURVE('',#636,#637,#52,.T.);
#464=EDGE_CURVE('',#638,#637,#739,.T.);
#465=EDGE_CURVE('',#638,#632,#53,.T.);
#466=EDGE_CURVE('',#639,#640,#740,.T.);
#467=EDGE_CURVE('',#639,#641,#741,.F.);
#468=EDGE_CURVE('',#641,#642,#742,.T.);
#469=EDGE_CURVE('',#642,#643,#743,.F.);
#470=EDGE_CURVE('',#643,#644,#744,.T.);
#471=EDGE_CURVE('',#645,#644,#745,.F.);
#472=EDGE_CURVE('',#645,#646,#746,.T.);
#473=EDGE_CURVE('',#646,#640,#747,.T.);
#474=EDGE_CURVE('',#647,#648,#748,.T.);
#475=EDGE_CURVE('',#648,#649,#749,.T.);
#476=EDGE_CURVE('',#650,#649,#750,.T.);
#477=EDGE_CURVE('',#651,#650,#751,.T.);
#478=EDGE_CURVE('',#651,#652,#752,.T.);
#479=EDGE_CURVE('',#653,#652,#753,.T.);
#480=EDGE_CURVE('',#653,#654,#754,.T.);
#481=EDGE_CURVE('',#654,#647,#755,.T.);
#482=EDGE_CURVE('',#655,#656,#756,.T.);
#483=EDGE_CURVE('',#655,#657,#757,.F.);
#484=EDGE_CURVE('',#657,#658,#758,.T.);
#485=EDGE_CURVE('',#659,#658,#759,.T.);
#486=EDGE_CURVE('',#660,#659,#760,.T.);
#487=EDGE_CURVE('',#661,#660,#761,.F.);
#488=EDGE_CURVE('',#662,#661,#762,.T.);
#489=EDGE_CURVE('',#656,#662,#763,.T.);
#490=EDGE_CURVE('',#663,#664,#764,.T.);
#491=EDGE_CURVE('',#665,#663,#765,.T.);
#492=EDGE_CURVE('',#665,#666,#766,.T.);
#493=EDGE_CURVE('',#664,#666,#767,.T.);
#494=EDGE_CURVE('',#659,#646,#768,.T.);
#495=EDGE_CURVE('',#658,#640,#769,.T.);
#496=EDGE_CURVE('',#663,#660,#54,.F.);
#497=EDGE_CURVE('',#652,#645,#55,.T.);
#498=EDGE_CURVE('',#667,#651,#770,.T.);
#499=EDGE_CURVE('',#665,#667,#771,.T.);
#500=EDGE_CURVE('',#607,#657,#56,.T.);
#501=EDGE_CURVE('',#606,#668,#772,.T.);
#502=EDGE_CURVE('',#668,#650,#773,.T.);
#503=EDGE_CURVE('',#649,#639,#57,.T.);
#504=EDGE_CURVE('',#669,#610,#774,.T.);
#505=EDGE_CURVE('',#669,#670,#775,.T.);
#506=EDGE_CURVE('',#670,#611,#776,.T.);
#507=EDGE_CURVE('',#671,#613,#777,.T.);
#508=EDGE_CURVE('',#669,#671,#778,.T.);
#509=EDGE_CURVE('',#672,#612,#779,.T.);
#510=EDGE_CURVE('',#671,#672,#780,.T.);
#511=EDGE_CURVE('',#673,#674,#781,.T.);
#512=EDGE_CURVE('',#674,#618,#782,.T.);
#513=EDGE_CURVE('',#617,#673,#783,.F.);
#514=EDGE_CURVE('',#616,#675,#784,.F.);
#515=EDGE_CURVE('',#676,#675,#785,.T.);
#516=EDGE_CURVE('',#676,#615,#786,.T.);
#517=EDGE_CURVE('',#621,#677,#787,.F.);
#518=EDGE_CURVE('',#678,#677,#788,.T.);
#519=EDGE_CURVE('',#678,#622,#789,.T.);
#520=EDGE_CURVE('',#625,#679,#790,.F.);
#521=EDGE_CURVE('',#679,#680,#791,.T.);
#522=EDGE_CURVE('',#680,#626,#792,.T.);
#523=EDGE_CURVE('',#624,#681,#793,.F.);
#524=EDGE_CURVE('',#682,#681,#794,.T.);
#525=EDGE_CURVE('',#682,#623,#795,.T.);
#526=EDGE_CURVE('',#629,#683,#796,.F.);
#527=EDGE_CURVE('',#684,#683,#797,.T.);
#528=EDGE_CURVE('',#684,#630,#798,.T.);
#529=EDGE_CURVE('',#685,#686,#799,.T.);
#530=EDGE_CURVE('',#686,#634,#800,.T.);
#531=EDGE_CURVE('',#633,#685,#801,.F.);
#532=EDGE_CURVE('',#632,#687,#802,.F.);
#533=EDGE_CURVE('',#688,#687,#803,.T.);
#534=EDGE_CURVE('',#688,#631,#804,.T.);
#535=EDGE_CURVE('',#637,#689,#805,.F.);
#536=EDGE_CURVE('',#690,#689,#806,.T.);
#537=EDGE_CURVE('',#690,#638,#807,.T.);
#538=EDGE_CURVE('',#691,#691,#58,.T.);
#539=EDGE_CURVE('',#619,#692,#808,.F.);
#540=EDGE_CURVE('',#692,#693,#809,.T.);
#541=EDGE_CURVE('',#693,#620,#810,.T.);
#542=EDGE_CURVE('',#694,#695,#811,.T.);
#543=EDGE_CURVE('',#695,#628,#812,.T.);
#544=EDGE_CURVE('',#627,#694,#813,.F.);
#545=EDGE_CURVE('',#635,#696,#814,.F.);
#546=EDGE_CURVE('',#696,#697,#815,.T.);
#547=EDGE_CURVE('',#697,#636,#816,.T.);
#548=EDGE_CURVE('',#670,#672,#817,.T.);
#549=EDGE_CURVE('',#698,#699,#818,.T.);
#550=EDGE_CURVE('',#699,#700,#819,.F.);
#551=EDGE_CURVE('',#700,#701,#820,.T.);
#552=EDGE_CURVE('',#701,#698,#821,.T.);
#553=EDGE_CURVE('',#685,#688,#59,.F.);
#554=EDGE_CURVE('',#687,#690,#60,.F.);
#555=EDGE_CURVE('',#689,#697,#61,.F.);
#556=EDGE_CURVE('',#696,#686,#62,.F.);
#557=EDGE_CURVE('',#679,#682,#63,.F.);
#558=EDGE_CURVE('',#681,#684,#64,.F.);
#559=EDGE_CURVE('',#683,#695,#65,.F.);
#560=EDGE_CURVE('',#694,#680,#66,.F.);
#561=EDGE_CURVE('',#673,#676,#67,.F.);
#562=EDGE_CURVE('',#675,#678,#68,.F.);
#563=EDGE_CURVE('',#677,#693,#69,.F.);
#564=EDGE_CURVE('',#692,#674,#70,.F.);
#565=EDGE_CURVE('',#702,#703,#822,.F.);
#566=EDGE_CURVE('',#703,#704,#823,.T.);
#567=EDGE_CURVE('',#704,#705,#824,.T.);
#568=EDGE_CURVE('',#705,#706,#825,.T.);
#569=EDGE_CURVE('',#706,#707,#826,.T.);
#570=EDGE_CURVE('',#707,#708,#827,.T.);
#571=EDGE_CURVE('',#708,#709,#828,.F.);
#572=EDGE_CURVE('',#666,#709,#829,.T.);
#573=EDGE_CURVE('',#668,#667,#830,.T.);
#574=EDGE_CURVE('',#609,#702,#831,.T.);
#575=EDGE_CURVE('',#655,#608,#71,.T.);
#576=EDGE_CURVE('',#656,#710,#832,.T.);
#577=EDGE_CURVE('',#710,#702,#833,.T.);
#578=EDGE_CURVE('',#662,#711,#834,.T.);
#579=EDGE_CURVE('',#711,#710,#835,.T.);
#580=EDGE_CURVE('',#661,#664,#72,.F.);
#581=EDGE_CURVE('',#709,#711,#836,.T.);
#582=EDGE_CURVE('',#701,#710,#837,.F.);
#583=EDGE_CURVE('',#712,#700,#838,.T.);
#584=EDGE_CURVE('',#703,#712,#839,.T.);
#585=EDGE_CURVE('',#698,#711,#840,.F.);
#586=EDGE_CURVE('',#713,#708,#841,.T.);
#587=EDGE_CURVE('',#699,#713,#842,.T.);
#588=EDGE_CURVE('',#642,#647,#73,.F.);
#589=EDGE_CURVE('',#654,#643,#74,.F.);
#590=EDGE_CURVE('',#707,#713,#75,.F.);
#591=EDGE_CURVE('',#705,#714,#18,.F.);
#592=EDGE_CURVE('',#714,#715,#76,.T.);
#593=EDGE_CURVE('',#715,#700,#19,.T.);
#594=EDGE_CURVE('',#699,#716,#20,.F.);
#595=EDGE_CURVE('',#716,#717,#77,.T.);
#596=EDGE_CURVE('',#717,#706,#21,.T.);
#597=EDGE_CURVE('',#712,#704,#78,.F.);
#598=EDGE_CURVE('',#714,#704,#79,.F.);
#599=EDGE_CURVE('',#715,#712,#80,.T.);
#600=EDGE_CURVE('',#707,#717,#81,.F.);
#601=EDGE_CURVE('',#713,#716,#82,.T.);
#602=EDGE_CURVE('',#718,#718,#83,.T.);
#603=EDGE_CURVE('',#653,#644,#84,.T.);
#604=EDGE_CURVE('',#719,#719,#85,.T.);
#605=EDGE_CURVE('',#648,#641,#86,.T.);
#606=VERTEX_POINT('',#1682);
#607=VERTEX_POINT('',#1683);
#608=VERTEX_POINT('',#1685);
#609=VERTEX_POINT('',#1687);
#610=VERTEX_POINT('',#1691);
#611=VERTEX_POINT('',#1692);
#612=VERTEX_POINT('',#1694);
#613=VERTEX_POINT('',#1696);
#614=VERTEX_POINT('',#1699);
#615=VERTEX_POINT('',#1701);
#616=VERTEX_POINT('',#1702);
#617=VERTEX_POINT('',#1704);
#618=VERTEX_POINT('',#1706);
#619=VERTEX_POINT('',#1708);
#620=VERTEX_POINT('',#1710);
#621=VERTEX_POINT('',#1712);
#622=VERTEX_POINT('',#1714);
#623=VERTEX_POINT('',#1717);
#624=VERTEX_POINT('',#1718);
#625=VERTEX_POINT('',#1720);
#626=VERTEX_POINT('',#1722);
#627=VERTEX_POINT('',#1724);
#628=VERTEX_POINT('',#1726);
#629=VERTEX_POINT('',#1728);
#630=VERTEX_POINT('',#1730);
#631=VERTEX_POINT('',#1733);
#632=VERTEX_POINT('',#1734);
#633=VERTEX_POINT('',#1736);
#634=VERTEX_POINT('',#1738);
#635=VERTEX_POINT('',#1740);
#636=VERTEX_POINT('',#1742);
#637=VERTEX_POINT('',#1744);
#638=VERTEX_POINT('',#1746);
#639=VERTEX_POINT('',#1749);
#640=VERTEX_POINT('',#1750);
#641=VERTEX_POINT('',#1752);
#642=VERTEX_POINT('',#1754);
#643=VERTEX_POINT('',#1756);
#644=VERTEX_POINT('',#1758);
#645=VERTEX_POINT('',#1760);
#646=VERTEX_POINT('',#1762);
#647=VERTEX_POINT('',#1766);
#648=VERTEX_POINT('',#1767);
#649=VERTEX_POINT('',#1769);
#650=VERTEX_POINT('',#1771);
#651=VERTEX_POINT('',#1773);
#652=VERTEX_POINT('',#1775);
#653=VERTEX_POINT('',#1777);
#654=VERTEX_POINT('',#1779);
#655=VERTEX_POINT('',#1783);
#656=VERTEX_POINT('',#1784);
#657=VERTEX_POINT('',#1786);
#658=VERTEX_POINT('',#1788);
#659=VERTEX_POINT('',#1790);
#660=VERTEX_POINT('',#1792);
#661=VERTEX_POINT('',#1794);
#662=VERTEX_POINT('',#1796);
#663=VERTEX_POINT('',#1800);
#664=VERTEX_POINT('',#1801);
#665=VERTEX_POINT('',#1803);
#666=VERTEX_POINT('',#1805);
#667=VERTEX_POINT('',#1814);
#668=VERTEX_POINT('',#1819);
#669=VERTEX_POINT('',#1824);
#670=VERTEX_POINT('',#1826);
#671=VERTEX_POINT('',#1830);
#672=VERTEX_POINT('',#1834);
#673=VERTEX_POINT('',#1838);
#674=VERTEX_POINT('',#1839);
#675=VERTEX_POINT('',#1844);
#676=VERTEX_POINT('',#1846);
#677=VERTEX_POINT('',#1850);
#678=VERTEX_POINT('',#1852);
#679=VERTEX_POINT('',#1856);
#680=VERTEX_POINT('',#1858);
#681=VERTEX_POINT('',#1862);
#682=VERTEX_POINT('',#1864);
#683=VERTEX_POINT('',#1868);
#684=VERTEX_POINT('',#1870);
#685=VERTEX_POINT('',#1874);
#686=VERTEX_POINT('',#1875);
#687=VERTEX_POINT('',#1880);
#688=VERTEX_POINT('',#1882);
#689=VERTEX_POINT('',#1886);
#690=VERTEX_POINT('',#1888);
#691=VERTEX_POINT('',#1892);
#692=VERTEX_POINT('',#1895);
#693=VERTEX_POINT('',#1897);
#694=VERTEX_POINT('',#1901);
#695=VERTEX_POINT('',#1902);
#696=VERTEX_POINT('',#1907);
#697=VERTEX_POINT('',#1909);
#698=VERTEX_POINT('',#1915);
#699=VERTEX_POINT('',#1916);
#700=VERTEX_POINT('',#1918);
#701=VERTEX_POINT('',#1920);
#702=VERTEX_POINT('',#1948);
#703=VERTEX_POINT('',#1949);
#704=VERTEX_POINT('',#1951);
#705=VERTEX_POINT('',#1953);
#706=VERTEX_POINT('',#1955);
#707=VERTEX_POINT('',#1957);
#708=VERTEX_POINT('',#1959);
#709=VERTEX_POINT('',#1961);
#710=VERTEX_POINT('',#1969);
#711=VERTEX_POINT('',#1973);
#712=VERTEX_POINT('',#1981);
#713=VERTEX_POINT('',#1987);
#714=VERTEX_POINT('',#2001);
#715=VERTEX_POINT('',#2003);
#716=VERTEX_POINT('',#2016);
#717=VERTEX_POINT('',#2018);
#718=VERTEX_POINT('',#2107);
#719=VERTEX_POINT('',#2114);
#720=LINE('',#1681,#843);
#721=LINE('',#1684,#844);
#722=LINE('',#1686,#845);
#723=LINE('',#1688,#846);
#724=LINE('',#1690,#847);
#725=LINE('',#1693,#848);
#726=LINE('',#1695,#849);
#727=LINE('',#1697,#850);
#728=LINE('',#1700,#851);
#729=LINE('',#1705,#852);
#730=LINE('',#1709,#853);
#731=LINE('',#1713,#854);
#732=LINE('',#1716,#855);
#733=LINE('',#1721,#856);
#734=LINE('',#1725,#857);
#735=LINE('',#1729,#858);
#736=LINE('',#1732,#859);
#737=LINE('',#1737,#860);
#738=LINE('',#1741,#861);
#739=LINE('',#1745,#862);
#740=LINE('',#1748,#863);
#741=LINE('',#1751,#864);
#742=LINE('',#1753,#865);
#743=LINE('',#1755,#866);
#744=LINE('',#1757,#867);
#745=LINE('',#1759,#868);
#746=LINE('',#1761,#869);
#747=LINE('',#1763,#870);
#748=LINE('',#1765,#871);
#749=LINE('',#1768,#872);
#750=LINE('',#1770,#873);
#751=LINE('',#1772,#874);
#752=LINE('',#1774,#875);
#753=LINE('',#1776,#876);
#754=LINE('',#1778,#877);
#755=LINE('',#1780,#878);
#756=LINE('',#1782,#879);
#757=LINE('',#1785,#880);
#758=LINE('',#1787,#881);
#759=LINE('',#1789,#882);
#760=LINE('',#1791,#883);
#761=LINE('',#1793,#884);
#762=LINE('',#1795,#885);
#763=LINE('',#1797,#886);
#764=LINE('',#1799,#887);
#765=LINE('',#1802,#888);
#766=LINE('',#1804,#889);
#767=LINE('',#1806,#890);
#768=LINE('',#1808,#891);
#769=LINE('',#1809,#892);
#770=LINE('',#1813,#893);
#771=LINE('',#1815,#894);
#772=LINE('',#1818,#895);
#773=LINE('',#1820,#896);
#774=LINE('',#1823,#897);
#775=LINE('',#1825,#898);
#776=LINE('',#1827,#899);
#777=LINE('',#1829,#900);
#778=LINE('',#1831,#901);
#779=LINE('',#1833,#902);
#780=LINE('',#1835,#903);
#781=LINE('',#1837,#904);
#782=LINE('',#1840,#905);
#783=LINE('',#1841,#906);
#784=LINE('',#1843,#907);
#785=LINE('',#1845,#908);
#786=LINE('',#1847,#909);
#787=LINE('',#1849,#910);
#788=LINE('',#1851,#911);
#789=LINE('',#1853,#912);
#790=LINE('',#1855,#913);
#791=LINE('',#1857,#914);
#792=LINE('',#1859,#915);
#793=LINE('',#1861,#916);
#794=LINE('',#1863,#917);
#795=LINE('',#1865,#918);
#796=LINE('',#1867,#919);
#797=LINE('',#1869,#920);
#798=LINE('',#1871,#921);
#799=LINE('',#1873,#922);
#800=LINE('',#1876,#923);
#801=LINE('',#1877,#924);
#802=LINE('',#1879,#925);
#803=LINE('',#1881,#926);
#804=LINE('',#1883,#927);
#805=LINE('',#1885,#928);
#806=LINE('',#1887,#929);
#807=LINE('',#1889,#930);
#808=LINE('',#1894,#931);
#809=LINE('',#1896,#932);
#810=LINE('',#1898,#933);
#811=LINE('',#1900,#934);
#812=LINE('',#1903,#935);
#813=LINE('',#1904,#936);
#814=LINE('',#1906,#937);
#815=LINE('',#1908,#938);
#816=LINE('',#1910,#939);
#817=LINE('',#1912,#940);
#818=LINE('',#1914,#941);
#819=LINE('',#1917,#942);
#820=LINE('',#1919,#943);
#821=LINE('',#1921,#944);
#822=LINE('',#1947,#945);
#823=LINE('',#1950,#946);
#824=LINE('',#1952,#947);
#825=LINE('',#1954,#948);
#826=LINE('',#1956,#949);
#827=LINE('',#1958,#950);
#828=LINE('',#1960,#951);
#829=LINE('',#1962,#952);
#830=LINE('',#1963,#953);
#831=LINE('',#1964,#954);
#832=LINE('',#1968,#955);
#833=LINE('',#1970,#956);
#834=LINE('',#1972,#957);
#835=LINE('',#1974,#958);
#836=LINE('',#1977,#959);
#837=LINE('',#1979,#960);
#838=LINE('',#1980,#961);
#839=LINE('',#1982,#962);
#840=LINE('',#1984,#963);
#841=LINE('',#1986,#964);
#842=LINE('',#1988,#965);
#843=VECTOR('',#1346,1.);
#844=VECTOR('',#1347,1.);
#845=VECTOR('',#1348,1.);
#846=VECTOR('',#1349,1.);
#847=VECTOR('',#1352,1.);
#848=VECTOR('',#1353,1.);
#849=VECTOR('',#1354,1.);
#850=VECTOR('',#1355,1.);
#851=VECTOR('',#1358,1.);
#852=VECTOR('',#1361,1.);
#853=VECTOR('',#1364,1.);
#854=VECTOR('',#1367,1.);
#855=VECTOR('',#1370,1.);
#856=VECTOR('',#1373,1.);
#857=VECTOR('',#1376,1.);
#858=VECTOR('',#1379,1.);
#859=VECTOR('',#1382,1.);
#860=VECTOR('',#1385,1.);
#861=VECTOR('',#1388,1.);
#862=VECTOR('',#1391,1.);
#863=VECTOR('',#1394,1.);
#864=VECTOR('',#1395,1.);
#865=VECTOR('',#1396,1.);
#866=VECTOR('',#1397,1.);
#867=VECTOR('',#1398,1.);
#868=VECTOR('',#1399,1.);
#869=VECTOR('',#1400,1.);
#870=VECTOR('',#1401,1.);
#871=VECTOR('',#1404,1.);
#872=VECTOR('',#1405,1.);
#873=VECTOR('',#1406,1.);
#874=VECTOR('',#1407,1.);
#875=VECTOR('',#1408,1.);
#876=VECTOR('',#1409,1.);
#877=VECTOR('',#1410,1.);
#878=VECTOR('',#1411,1.);
#879=VECTOR('',#1414,1.);
#880=VECTOR('',#1415,1.);
#881=VECTOR('',#1416,1.);
#882=VECTOR('',#1417,1.);
#883=VECTOR('',#1418,1.);
#884=VECTOR('',#1419,1.);
#885=VECTOR('',#1420,1.);
#886=VECTOR('',#1421,1.);
#887=VECTOR('',#1424,1.);
#888=VECTOR('',#1425,1.);
#889=VECTOR('',#1426,1.);
#890=VECTOR('',#1427,1.);
#891=VECTOR('',#1430,1.);
#892=VECTOR('',#1431,1.);
#893=VECTOR('',#1438,1.);
#894=VECTOR('',#1439,1.);
#895=VECTOR('',#1444,1.);
#896=VECTOR('',#1445,1.);
#897=VECTOR('',#1450,1.);
#898=VECTOR('',#1451,1.);
#899=VECTOR('',#1452,1.);
#900=VECTOR('',#1455,1.);
#901=VECTOR('',#1456,1.);
#902=VECTOR('',#1459,1.);
#903=VECTOR('',#1460,1.);
#904=VECTOR('',#1463,1.);
#905=VECTOR('',#1464,1.);
#906=VECTOR('',#1465,1.);
#907=VECTOR('',#1468,1.);
#908=VECTOR('',#1469,1.);
#909=VECTOR('',#1470,1.);
#910=VECTOR('',#1473,1.);
#911=VECTOR('',#1474,1.);
#912=VECTOR('',#1475,1.);
#913=VECTOR('',#1478,1.);
#914=VECTOR('',#1479,1.);
#915=VECTOR('',#1480,1.);
#916=VECTOR('',#1483,1.);
#917=VECTOR('',#1484,1.);
#918=VECTOR('',#1485,1.);
#919=VECTOR('',#1488,1.);
#920=VECTOR('',#1489,1.);
#921=VECTOR('',#1490,1.);
#922=VECTOR('',#1493,1.);
#923=VECTOR('',#1494,1.);
#924=VECTOR('',#1495,1.);
#925=VECTOR('',#1498,1.);
#926=VECTOR('',#1499,1.);
#927=VECTOR('',#1500,1.);
#928=VECTOR('',#1503,1.);
#929=VECTOR('',#1504,1.);
#930=VECTOR('',#1505,1.);
#931=VECTOR('',#1512,1.);
#932=VECTOR('',#1513,1.);
#933=VECTOR('',#1514,1.);
#934=VECTOR('',#1517,1.);
#935=VECTOR('',#1518,1.);
#936=VECTOR('',#1519,1.);
#937=VECTOR('',#1522,1.);
#938=VECTOR('',#1523,1.);
#939=VECTOR('',#1524,1.);
#940=VECTOR('',#1527,1.);
#941=VECTOR('',#1530,1.);
#942=VECTOR('',#1531,1.);
#943=VECTOR('',#1532,1.);
#944=VECTOR('',#1533,1.);
#945=VECTOR('',#1584,1.);
#946=VECTOR('',#1585,1.);
#947=VECTOR('',#1586,1.);
#948=VECTOR('',#1587,1.);
#949=VECTOR('',#1588,1.);
#950=VECTOR('',#1589,1.);
#951=VECTOR('',#1590,1.);
#952=VECTOR('',#1591,1.);
#953=VECTOR('',#1592,1.);
#954=VECTOR('',#1593,1.);
#955=VECTOR('',#1600,1.);
#956=VECTOR('',#1601,1.);
#957=VECTOR('',#1604,1.);
#958=VECTOR('',#1605,1.);
#959=VECTOR('',#1610,1.);
#960=VECTOR('',#1613,1.);
#961=VECTOR('',#1614,1.);
#962=VECTOR('',#1615,1.);
#963=VECTOR('',#1618,1.);
#964=VECTOR('',#1621,1.);
#965=VECTOR('',#1622,1.);
#966=EDGE_LOOP('',(#87,#88,#89,#90));
#967=EDGE_LOOP('',(#91,#92,#93,#94));
#968=EDGE_LOOP('',(#95));
#969=EDGE_LOOP('',(#96,#97,#98,#99,#100,#101,#102,#103));
#970=EDGE_LOOP('',(#104,#105,#106,#107,#108,#109,#110,#111));
#971=EDGE_LOOP('',(#112,#113,#114,#115,#116,#117,#118,#119));
#972=EDGE_LOOP('',(#120,#121,#122,#123,#124,#125,#126,#127));
#973=EDGE_LOOP('',(#128,#129,#130,#131,#132,#133,#134,#135));
#974=EDGE_LOOP('',(#136,#137,#138,#139,#140,#141,#142,#143));
#975=EDGE_LOOP('',(#144,#145,#146,#147));
#976=EDGE_LOOP('',(#148,#149,#150,#151));
#977=EDGE_LOOP('',(#152,#153,#154,#155,#156,#157,#158,#159,#160));
#978=EDGE_LOOP('',(#161,#162,#163,#164,#165,#166,#167,#168,#169));
#979=EDGE_LOOP('',(#170,#171,#172,#173));
#980=EDGE_LOOP('',(#174,#175,#176,#177));
#981=EDGE_LOOP('',(#178,#179,#180,#181));
#982=EDGE_LOOP('',(#182,#183,#184,#185));
#983=EDGE_LOOP('',(#186,#187,#188,#189));
#984=EDGE_LOOP('',(#190,#191,#192,#193));
#985=EDGE_LOOP('',(#194,#195,#196,#197));
#986=EDGE_LOOP('',(#198,#199,#200,#201));
#987=EDGE_LOOP('',(#202,#203,#204,#205));
#988=EDGE_LOOP('',(#206,#207,#208,#209));
#989=EDGE_LOOP('',(#210,#211,#212,#213));
#990=EDGE_LOOP('',(#214,#215,#216,#217));
#991=EDGE_LOOP('',(#218));
#992=EDGE_LOOP('',(#219));
#993=EDGE_LOOP('',(#220,#221,#222,#223));
#994=EDGE_LOOP('',(#224,#225,#226,#227));
#995=EDGE_LOOP('',(#228,#229,#230,#231));
#996=EDGE_LOOP('',(#232,#233,#234,#235));
#997=EDGE_LOOP('',(#236,#237,#238,#239));
#998=EDGE_LOOP('',(#240,#241,#242,#243,#244,#245,#246,#247));
#999=EDGE_LOOP('',(#248,#249,#250,#251,#252,#253,#254,#255));
#1000=EDGE_LOOP('',(#256,#257,#258,#259,#260,#261,#262,#263));
#1001=EDGE_LOOP('',(#264));
#1002=EDGE_LOOP('',(#265,#266,#267,#268));
#1003=EDGE_LOOP('',(#269,#270,#271,#272));
#1004=EDGE_LOOP('',(#273,#274,#275,#276));
#1005=EDGE_LOOP('',(#277,#278,#279,#280));
#1006=EDGE_LOOP('',(#281,#282,#283,#284));
#1007=EDGE_LOOP('',(#285,#286,#287,#288));
#1008=EDGE_LOOP('',(#289,#290,#291,#292));
#1009=EDGE_LOOP('',(#293,#294,#295,#296));
#1010=EDGE_LOOP('',(#297,#298,#299,#300));
#1011=EDGE_LOOP('',(#301,#302,#303,#304));
#1012=EDGE_LOOP('',(#305,#306,#307,#308));
#1013=EDGE_LOOP('',(#309,#310,#311,#312));
#1014=EDGE_LOOP('',(#313,#314,#315,#316));
#1015=EDGE_LOOP('',(#317,#318,#319,#320,#321,#322,#323,#324,#325,#326,#327,
#328,#329,#330));
#1016=EDGE_LOOP('',(#331,#332,#333,#334));
#1017=EDGE_LOOP('',(#335,#336,#337,#338,#339,#340));
#1018=EDGE_LOOP('',(#341,#342,#343,#344));
#1019=EDGE_LOOP('',(#345,#346,#347,#348,#349,#350));
#1020=EDGE_LOOP('',(#351,#352,#353,#354,#355,#356));
#1021=EDGE_LOOP('',(#357,#358,#359,#360));
#1022=EDGE_LOOP('',(#361,#362,#363,#364,#365,#366));
#1023=EDGE_LOOP('',(#367,#368,#369,#370));
#1024=EDGE_LOOP('',(#371,#372,#373));
#1025=EDGE_LOOP('',(#374,#375,#376,#377,#378,#379,#380,#381));
#1026=EDGE_LOOP('',(#382,#383,#384));
#1027=EDGE_LOOP('',(#385,#386,#387));
#1028=EDGE_LOOP('',(#388,#389,#390,#391));
#1029=EDGE_LOOP('',(#392,#393,#394));
#1030=EDGE_LOOP('',(#395,#396,#397));
#1031=EDGE_LOOP('',(#398,#399,#400,#401));
#1032=EDGE_LOOP('',(#402,#403,#404));
#1033=EDGE_LOOP('',(#405));
#1034=EDGE_LOOP('',(#406,#407,#408,#409));
#1035=EDGE_LOOP('',(#410));
#1036=EDGE_LOOP('',(#411,#412,#413,#414));
#1037=EDGE_LOOP('',(#415,#416,#417,#418));
#1038=EDGE_LOOP('',(#419));
#1039=EDGE_LOOP('',(#420,#421,#422,#423));
#1040=EDGE_LOOP('',(#424,#425,#426,#427));
#1041=EDGE_LOOP('',(#428));
#1042=EDGE_LOOP('',(#429,#430,#431,#432));
#1043=FACE_BOUND('',#966,.T.);
#1044=FACE_BOUND('',#967,.T.);
#1045=FACE_BOUND('',#968,.T.);
#1046=FACE_BOUND('',#969,.T.);
#1047=FACE_BOUND('',#970,.T.);
#1048=FACE_BOUND('',#971,.T.);
#1049=FACE_BOUND('',#972,.T.);
#1050=FACE_BOUND('',#973,.T.);
#1051=FACE_BOUND('',#974,.T.);
#1052=FACE_BOUND('',#975,.T.);
#1053=FACE_BOUND('',#976,.T.);
#1054=FACE_BOUND('',#977,.T.);
#1055=FACE_BOUND('',#978,.T.);
#1056=FACE_BOUND('',#979,.T.);
#1057=FACE_BOUND('',#980,.T.);
#1058=FACE_BOUND('',#981,.T.);
#1059=FACE_BOUND('',#982,.T.);
#1060=FACE_BOUND('',#983,.T.);
#1061=FACE_BOUND('',#984,.T.);
#1062=FACE_BOUND('',#985,.T.);
#1063=FACE_BOUND('',#986,.T.);
#1064=FACE_BOUND('',#987,.T.);
#1065=FACE_BOUND('',#988,.T.);
#1066=FACE_BOUND('',#989,.T.);
#1067=FACE_BOUND('',#990,.T.);
#1068=FACE_BOUND('',#991,.T.);
#1069=FACE_BOUND('',#992,.T.);
#1070=FACE_BOUND('',#993,.T.);
#1071=FACE_BOUND('',#994,.T.);
#1072=FACE_BOUND('',#995,.T.);
#1073=FACE_BOUND('',#996,.T.);
#1074=FACE_BOUND('',#997,.T.);
#1075=FACE_BOUND('',#998,.T.);
#1076=FACE_BOUND('',#999,.T.);
#1077=FACE_BOUND('',#1000,.T.);
#1078=FACE_BOUND('',#1001,.T.);
#1079=FACE_BOUND('',#1002,.T.);
#1080=FACE_BOUND('',#1003,.T.);
#1081=FACE_BOUND('',#1004,.T.);
#1082=FACE_BOUND('',#1005,.T.);
#1083=FACE_BOUND('',#1006,.T.);
#1084=FACE_BOUND('',#1007,.T.);
#1085=FACE_BOUND('',#1008,.T.);
#1086=FACE_BOUND('',#1009,.T.);
#1087=FACE_BOUND('',#1010,.T.);
#1088=FACE_BOUND('',#1011,.T.);
#1089=FACE_BOUND('',#1012,.T.);
#1090=FACE_BOUND('',#1013,.T.);
#1091=FACE_BOUND('',#1014,.T.);
#1092=FACE_BOUND('',#1015,.T.);
#1093=FACE_BOUND('',#1016,.T.);
#1094=FACE_BOUND('',#1017,.T.);
#1095=FACE_BOUND('',#1018,.T.);
#1096=FACE_BOUND('',#1019,.T.);
#1097=FACE_BOUND('',#1020,.T.);
#1098=FACE_BOUND('',#1021,.T.);
#1099=FACE_BOUND('',#1022,.T.);
#1100=FACE_BOUND('',#1023,.T.);
#1101=FACE_BOUND('',#1024,.T.);
#1102=FACE_BOUND('',#1025,.T.);
#1103=FACE_BOUND('',#1026,.T.);
#1104=FACE_BOUND('',#1027,.T.);
#1105=FACE_BOUND('',#1028,.T.);
#1106=FACE_BOUND('',#1029,.T.);
#1107=FACE_BOUND('',#1030,.T.);
#1108=FACE_BOUND('',#1031,.T.);
#1109=FACE_BOUND('',#1032,.T.);
#1110=FACE_BOUND('',#1033,.T.);
#1111=FACE_BOUND('',#1034,.T.);
#1112=FACE_BOUND('',#1035,.T.);
#1113=FACE_BOUND('',#1036,.T.);
#1114=FACE_BOUND('',#1037,.T.);
#1115=FACE_BOUND('',#1038,.T.);
#1116=FACE_BOUND('',#1039,.T.);
#1117=FACE_BOUND('',#1040,.T.);
#1118=FACE_BOUND('',#1041,.T.);
#1119=FACE_BOUND('',#1042,.T.);
#1120=PLANE('',#1236);
#1121=PLANE('',#1237);
#1122=PLANE('',#1251);
#1123=PLANE('',#1252);
#1124=PLANE('',#1253);
#1125=PLANE('',#1254);
#1126=PLANE('',#1255);
#1127=PLANE('',#1258);
#1128=PLANE('',#1261);
#1129=PLANE('',#1262);
#1130=PLANE('',#1263);
#1131=PLANE('',#1264);
#1132=PLANE('',#1265);
#1133=PLANE('',#1266);
#1134=PLANE('',#1267);
#1135=PLANE('',#1268);
#1136=PLANE('',#1269);
#1137=PLANE('',#1270);
#1138=PLANE('',#1271);
#1139=PLANE('',#1272);
#1140=PLANE('',#1275);
#1141=PLANE('',#1276);
#1142=PLANE('',#1277);
#1143=PLANE('',#1278);
#1144=PLANE('',#1279);
#1145=PLANE('',#1304);
#1146=PLANE('',#1305);
#1147=PLANE('',#1306);
#1148=PLANE('',#1308);
#1149=PLANE('',#1309);
#1150=PLANE('',#1311);
#1151=PLANE('',#1312);
#1152=PLANE('',#1313);
#1153=PLANE('',#1317);
#1154=PLANE('',#1322);
#1155=PLANE('',#1332);
#1156=PLANE('',#1335);
#1157=PLANE('',#1340);
#1158=PLANE('',#1341);
#1159=ADVANCED_FACE('',(#1043),#1120,.F.);
#1160=ADVANCED_FACE('',(#1044,#1045,#1046,#1047,#1048,#1049),#1121,.F.);
#1161=ADVANCED_FACE('',(#1050),#1122,.F.);
#1162=ADVANCED_FACE('',(#1051),#1123,.F.);
#1163=ADVANCED_FACE('',(#1052),#1124,.F.);
#1164=ADVANCED_FACE('',(#1053),#1125,.T.);
#1165=ADVANCED_FACE('',(#1054),#1126,.T.);
#1166=ADVANCED_FACE('',(#1055),#1127,.F.);
#1167=ADVANCED_FACE('',(#1056),#1128,.T.);
#1168=ADVANCED_FACE('',(#1057),#1129,.F.);
#1169=ADVANCED_FACE('',(#1058),#1130,.F.);
#1170=ADVANCED_FACE('',(#1059),#1131,.T.);
#1171=ADVANCED_FACE('',(#1060),#1132,.F.);
#1172=ADVANCED_FACE('',(#1061),#1133,.F.);
#1173=ADVANCED_FACE('',(#1062),#1134,.T.);
#1174=ADVANCED_FACE('',(#1063),#1135,.F.);
#1175=ADVANCED_FACE('',(#1064),#1136,.F.);
#1176=ADVANCED_FACE('',(#1065),#1137,.T.);
#1177=ADVANCED_FACE('',(#1066),#1138,.F.);
#1178=ADVANCED_FACE('',(#1067),#1139,.F.);
#1179=ADVANCED_FACE('',(#1068,#1069),#22,.F.);
#1180=ADVANCED_FACE('',(#1070),#1140,.T.);
#1181=ADVANCED_FACE('',(#1071),#1141,.T.);
#1182=ADVANCED_FACE('',(#1072),#1142,.T.);
#1183=ADVANCED_FACE('',(#1073),#1143,.T.);
#1184=ADVANCED_FACE('',(#1074,#1075,#1076,#1077,#1078,#1079),#1144,.T.);
#1185=ADVANCED_FACE('',(#1080),#23,.F.);
#1186=ADVANCED_FACE('',(#1081),#24,.F.);
#1187=ADVANCED_FACE('',(#1082),#25,.F.);
#1188=ADVANCED_FACE('',(#1083),#26,.F.);
#1189=ADVANCED_FACE('',(#1084),#27,.F.);
#1190=ADVANCED_FACE('',(#1085),#28,.F.);
#1191=ADVANCED_FACE('',(#1086),#29,.F.);
#1192=ADVANCED_FACE('',(#1087),#30,.F.);
#1193=ADVANCED_FACE('',(#1088),#31,.F.);
#1194=ADVANCED_FACE('',(#1089),#32,.F.);
#1195=ADVANCED_FACE('',(#1090),#33,.F.);
#1196=ADVANCED_FACE('',(#1091),#34,.F.);
#1197=ADVANCED_FACE('',(#1092),#1145,.T.);
#1198=ADVANCED_FACE('',(#1093),#1146,.T.);
#1199=ADVANCED_FACE('',(#1094),#1147,.T.);
#1200=ADVANCED_FACE('',(#1095),#1148,.T.);
#1201=ADVANCED_FACE('',(#1096),#1149,.T.);
#1202=ADVANCED_FACE('',(#1097),#1150,.F.);
#1203=ADVANCED_FACE('',(#1098),#1151,.F.);
#1204=ADVANCED_FACE('',(#1099),#1152,.F.);
#1205=ADVANCED_FACE('',(#1100),#35,.F.);
#1206=ADVANCED_FACE('',(#1101),#1153,.T.);
#1207=ADVANCED_FACE('',(#1102),#36,.T.);
#1208=ADVANCED_FACE('',(#1103),#1154,.T.);
#1209=ADVANCED_FACE('',(#1104),#14,.F.);
#1210=ADVANCED_FACE('',(#1105),#12,.F.);
#1211=ADVANCED_FACE('',(#1106),#15,.F.);
#1212=ADVANCED_FACE('',(#1107),#16,.F.);
#1213=ADVANCED_FACE('',(#1108),#13,.F.);
#1214=ADVANCED_FACE('',(#1109),#17,.F.);
#1215=ADVANCED_FACE('',(#1110,#1111),#37,.F.);
#1216=ADVANCED_FACE('',(#1112),#1155,.F.);
#1217=ADVANCED_FACE('',(#1113),#38,.T.);
#1218=ADVANCED_FACE('',(#1114),#1156,.T.);
#1219=ADVANCED_FACE('',(#1115,#1116),#39,.F.);
#1220=ADVANCED_FACE('',(#1117),#40,.T.);
#1221=ADVANCED_FACE('',(#1118),#1157,.F.);
#1222=ADVANCED_FACE('',(#1119),#1158,.T.);
#1223=CLOSED_SHELL('',(#1159,#1160,#1161,#1162,#1163,#1164,#1165,#1166,
#1167,#1168,#1169,#1170,#1171,#1172,#1173,#1174,#1175,#1176,#1177,#1178,
#1179,#1180,#1181,#1182,#1183,#1184,#1185,#1186,#1187,#1188,#1189,#1190,
#1191,#1192,#1193,#1194,#1195,#1196,#1197,#1198,#1199,#1200,#1201,#1202,
#1203,#1204,#1205,#1206,#1207,#1208,#1209,#1210,#1211,#1212,#1213,#1214,
#1215,#1216,#1217,#1218,#1219,#1220,#1221,#1222));
#1224=STYLED_ITEM('',(#1225),#1232);
#1225=PRESENTATION_STYLE_ASSIGNMENT((#1226));
#1226=SURFACE_STYLE_USAGE(.BOTH.,#1227);
#1227=SURFACE_SIDE_STYLE('',(#1228));
#1228=SURFACE_STYLE_FILL_AREA(#1229);
#1229=FILL_AREA_STYLE('',(#1230));
#1230=FILL_AREA_STYLE_COLOUR('',#1231);
#1231=COLOUR_RGB('',0.901960784313726,0.901960784313726,0.901960784313726);
#1232=MANIFOLD_SOLID_BREP('Part 1',#1223);
#1233=SHAPE_DEFINITION_REPRESENTATION(#2125,#1234);
#1234=SHAPE_REPRESENTATION('Part 1',(#1235),#2120);
#1235=AXIS2_PLACEMENT_3D('',#1679,#1342,#1343);
#1236=AXIS2_PLACEMENT_3D('',#1680,#1344,#1345);
#1237=AXIS2_PLACEMENT_3D('',#1689,#1350,#1351);
#1238=AXIS2_PLACEMENT_3D('',#1698,#1356,#1357);
#1239=AXIS2_PLACEMENT_3D('',#1703,#1359,#1360);
#1240=AXIS2_PLACEMENT_3D('',#1707,#1362,#1363);
#1241=AXIS2_PLACEMENT_3D('',#1711,#1365,#1366);
#1242=AXIS2_PLACEMENT_3D('',#1715,#1368,#1369);
#1243=AXIS2_PLACEMENT_3D('',#1719,#1371,#1372);
#1244=AXIS2_PLACEMENT_3D('',#1723,#1374,#1375);
#1245=AXIS2_PLACEMENT_3D('',#1727,#1377,#1378);
#1246=AXIS2_PLACEMENT_3D('',#1731,#1380,#1381);
#1247=AXIS2_PLACEMENT_3D('',#1735,#1383,#1384);
#1248=AXIS2_PLACEMENT_3D('',#1739,#1386,#1387);
#1249=AXIS2_PLACEMENT_3D('',#1743,#1389,#1390);
#1250=AXIS2_PLACEMENT_3D('',#1747,#1392,#1393);
#1251=AXIS2_PLACEMENT_3D('',#1764,#1402,#1403);
#1252=AXIS2_PLACEMENT_3D('',#1781,#1412,#1413);
#1253=AXIS2_PLACEMENT_3D('',#1798,#1422,#1423);
#1254=AXIS2_PLACEMENT_3D('',#1807,#1428,#1429);
#1255=AXIS2_PLACEMENT_3D('',#1810,#1432,#1433);
#1256=AXIS2_PLACEMENT_3D('',#1811,#1434,#1435);
#1257=AXIS2_PLACEMENT_3D('',#1812,#1436,#1437);
#1258=AXIS2_PLACEMENT_3D('',#1816,#1440,#1441);
#1259=AXIS2_PLACEMENT_3D('',#1817,#1442,#1443);
#1260=AXIS2_PLACEMENT_3D('',#1821,#1446,#1447);
#1261=AXIS2_PLACEMENT_3D('',#1822,#1448,#1449);
#1262=AXIS2_PLACEMENT_3D('',#1828,#1453,#1454);
#1263=AXIS2_PLACEMENT_3D('',#1832,#1457,#1458);
#1264=AXIS2_PLACEMENT_3D('',#1836,#1461,#1462);
#1265=AXIS2_PLACEMENT_3D('',#1842,#1466,#1467);
#1266=AXIS2_PLACEMENT_3D('',#1848,#1471,#1472);
#1267=AXIS2_PLACEMENT_3D('',#1854,#1476,#1477);
#1268=AXIS2_PLACEMENT_3D('',#1860,#1481,#1482);
#1269=AXIS2_PLACEMENT_3D('',#1866,#1486,#1487);
#1270=AXIS2_PLACEMENT_3D('',#1872,#1491,#1492);
#1271=AXIS2_PLACEMENT_3D('',#1878,#1496,#1497);
#1272=AXIS2_PLACEMENT_3D('',#1884,#1501,#1502);
#1273=AXIS2_PLACEMENT_3D('',#1890,#1506,#1507);
#1274=AXIS2_PLACEMENT_3D('',#1891,#1508,#1509);
#1275=AXIS2_PLACEMENT_3D('',#1893,#1510,#1511);
#1276=AXIS2_PLACEMENT_3D('',#1899,#1515,#1516);
#1277=AXIS2_PLACEMENT_3D('',#1905,#1520,#1521);
#1278=AXIS2_PLACEMENT_3D('',#1911,#1525,#1526);
#1279=AXIS2_PLACEMENT_3D('',#1913,#1528,#1529);
#1280=AXIS2_PLACEMENT_3D('',#1922,#1534,#1535);
#1281=AXIS2_PLACEMENT_3D('',#1923,#1536,#1537);
#1282=AXIS2_PLACEMENT_3D('',#1924,#1538,#1539);
#1283=AXIS2_PLACEMENT_3D('',#1925,#1540,#1541);
#1284=AXIS2_PLACEMENT_3D('',#1926,#1542,#1543);
#1285=AXIS2_PLACEMENT_3D('',#1927,#1544,#1545);
#1286=AXIS2_PLACEMENT_3D('',#1928,#1546,#1547);
#1287=AXIS2_PLACEMENT_3D('',#1929,#1548,#1549);
#1288=AXIS2_PLACEMENT_3D('',#1930,#1550,#1551);
#1289=AXIS2_PLACEMENT_3D('',#1931,#1552,#1553);
#1290=AXIS2_PLACEMENT_3D('',#1932,#1554,#1555);
#1291=AXIS2_PLACEMENT_3D('',#1933,#1556,#1557);
#1292=AXIS2_PLACEMENT_3D('',#1934,#1558,#1559);
#1293=AXIS2_PLACEMENT_3D('',#1935,#1560,#1561);
#1294=AXIS2_PLACEMENT_3D('',#1936,#1562,#1563);
#1295=AXIS2_PLACEMENT_3D('',#1937,#1564,#1565);
#1296=AXIS2_PLACEMENT_3D('',#1938,#1566,#1567);
#1297=AXIS2_PLACEMENT_3D('',#1939,#1568,#1569);
#1298=AXIS2_PLACEMENT_3D('',#1940,#1570,#1571);
#1299=AXIS2_PLACEMENT_3D('',#1941,#1572,#1573);
#1300=AXIS2_PLACEMENT_3D('',#1942,#1574,#1575);
#1301=AXIS2_PLACEMENT_3D('',#1943,#1576,#1577);
#1302=AXIS2_PLACEMENT_3D('',#1944,#1578,#1579);
#1303=AXIS2_PLACEMENT_3D('',#1945,#1580,#1581);
#1304=AXIS2_PLACEMENT_3D('',#1946,#1582,#1583);
#1305=AXIS2_PLACEMENT_3D('',#1965,#1594,#1595);
#1306=AXIS2_PLACEMENT_3D('',#1966,#1596,#1597);
#1307=AXIS2_PLACEMENT_3D('',#1967,#1598,#1599);
#1308=AXIS2_PLACEMENT_3D('',#1971,#1602,#1603);
#1309=AXIS2_PLACEMENT_3D('',#1975,#1606,#1607);
#1310=AXIS2_PLACEMENT_3D('',#1976,#1608,#1609);
#1311=AXIS2_PLACEMENT_3D('',#1978,#1611,#1612);
#1312=AXIS2_PLACEMENT_3D('',#1983,#1616,#1617);
#1313=AXIS2_PLACEMENT_3D('',#1985,#1619,#1620);
#1314=AXIS2_PLACEMENT_3D('',#1989,#1623,#1624);
#1315=AXIS2_PLACEMENT_3D('',#1990,#1625,#1626);
#1316=AXIS2_PLACEMENT_3D('',#1991,#1627,#1628);
#1317=AXIS2_PLACEMENT_3D('',#1992,#1629,#1630);
#1318=AXIS2_PLACEMENT_3D('',#1993,#1631,#1632);
#1319=AXIS2_PLACEMENT_3D('',#1994,#1633,#1634);
#1320=AXIS2_PLACEMENT_3D('',#2002,#1635,#1636);
#1321=AXIS2_PLACEMENT_3D('',#2017,#1637,#1638);
#1322=AXIS2_PLACEMENT_3D('',#2025,#1639,#1640);
#1323=AXIS2_PLACEMENT_3D('',#2026,#1641,#1642);
#1324=AXIS2_PLACEMENT_3D('',#2045,#1643,#1644);
#1325=AXIS2_PLACEMENT_3D('',#2046,#1645,#1646);
#1326=AXIS2_PLACEMENT_3D('',#2047,#1647,#1648);
#1327=AXIS2_PLACEMENT_3D('',#2084,#1649,#1650);
#1328=AXIS2_PLACEMENT_3D('',#2085,#1651,#1652);
#1329=AXIS2_PLACEMENT_3D('',#2086,#1653,#1654);
#1330=AXIS2_PLACEMENT_3D('',#2105,#1655,#1656);
#1331=AXIS2_PLACEMENT_3D('',#2106,#1657,#1658);
#1332=AXIS2_PLACEMENT_3D('',#2108,#1659,#1660);
#1333=AXIS2_PLACEMENT_3D('',#2109,#1661,#1662);
#1334=AXIS2_PLACEMENT_3D('',#2110,#1663,#1664);
#1335=AXIS2_PLACEMENT_3D('',#2111,#1665,#1666);
#1336=AXIS2_PLACEMENT_3D('',#2112,#1667,#1668);
#1337=AXIS2_PLACEMENT_3D('',#2113,#1669,#1670);
#1338=AXIS2_PLACEMENT_3D('',#2115,#1671,#1672);
#1339=AXIS2_PLACEMENT_3D('',#2116,#1673,#1674);
#1340=AXIS2_PLACEMENT_3D('',#2117,#1675,#1676);
#1341=AXIS2_PLACEMENT_3D('',#2118,#1677,#1678);
#1342=DIRECTION('',(0.,0.,1.));
#1343=DIRECTION('',(1.,0.,0.));
#1344=DIRECTION('',(0.,0.,1.));
#1345=DIRECTION('',(1.,0.,0.));
#1346=DIRECTION('',(3.56517181519151E-16,-1.,0.));
#1347=DIRECTION('',(-1.,2.26022602733134E-16,0.));
#1348=DIRECTION('',(3.00138150608038E-16,-1.,0.));
#1349=DIRECTION('',(1.,0.,0.));
#1350=DIRECTION('',(0.,0.,1.));
#1351=DIRECTION('',(1.,0.,0.));
#1352=DIRECTION('',(1.,0.,0.));
#1353=DIRECTION('',(-1.94301464603137E-16,1.,0.));
#1354=DIRECTION('',(1.,0.,0.));
#1355=DIRECTION('',(0.,1.,0.));
#1356=DIRECTION('',(0.,0.,1.));
#1357=DIRECTION('',(1.,0.,0.));
#1358=DIRECTION('',(0.,-1.,0.));
#1359=DIRECTION('',(0.,0.,1.));
#1360=DIRECTION('',(1.,0.,0.));
#1361=DIRECTION('',(-1.,1.23908819712629E-16,0.));
#1362=DIRECTION('',(0.,0.,1.));
#1363=DIRECTION('',(1.,0.,0.));
#1364=DIRECTION('',(0.,-1.,0.));
#1365=DIRECTION('',(0.,0.,1.));
#1366=DIRECTION('',(1.,0.,0.));
#1367=DIRECTION('',(-1.,1.23908819712629E-16,0.));
#1368=DIRECTION('',(0.,0.,1.));
#1369=DIRECTION('',(1.,0.,0.));
#1370=DIRECTION('',(0.,-1.,0.));
#1371=DIRECTION('',(0.,0.,1.));
#1372=DIRECTION('',(1.,0.,0.));
#1373=DIRECTION('',(-1.,1.23908819712629E-16,0.));
#1374=DIRECTION('',(0.,0.,1.));
#1375=DIRECTION('',(1.,0.,0.));
#1376=DIRECTION('',(0.,-1.,0.));
#1377=DIRECTION('',(0.,0.,1.));
#1378=DIRECTION('',(1.,0.,0.));
#1379=DIRECTION('',(-1.,1.23908819712629E-16,0.));
#1380=DIRECTION('',(0.,0.,1.));
#1381=DIRECTION('',(1.,0.,0.));
#1382=DIRECTION('',(-1.85863229568943E-16,-1.,0.));
#1383=DIRECTION('',(0.,0.,1.));
#1384=DIRECTION('',(1.,0.,0.));
#1385=DIRECTION('',(-1.,1.23908819712629E-16,0.));
#1386=DIRECTION('',(0.,0.,1.));
#1387=DIRECTION('',(1.,0.,0.));
#1388=DIRECTION('',(-1.85863229568943E-16,-1.,0.));
#1389=DIRECTION('',(0.,0.,1.));
#1390=DIRECTION('',(1.,0.,0.));
#1391=DIRECTION('',(-1.,1.23908819712629E-16,0.));
#1392=DIRECTION('',(0.,0.,1.));
#1393=DIRECTION('',(1.,0.,0.));
#1394=DIRECTION('',(3.56517181519151E-16,-1.,0.));
#1395=DIRECTION('',(-1.,2.26022602733134E-16,0.));
#1396=DIRECTION('',(2.26022602733134E-16,1.,0.));
#1397=DIRECTION('',(-1.,2.30623810682417E-16,0.));
#1398=DIRECTION('',(2.26022602733134E-16,-1.,0.));
#1399=DIRECTION('',(1.,2.26022602733134E-16,0.));
#1400=DIRECTION('',(3.56517181519151E-16,-1.,0.));
#1401=DIRECTION('',(-1.,3.03538665962696E-16,0.));
#1402=DIRECTION('',(2.30623810682417E-16,1.,0.));
#1403=DIRECTION('',(-1.,2.30623810682417E-16,0.));
#1404=DIRECTION('',(0.,0.,-1.));
#1405=DIRECTION('',(-1.,2.26022602733134E-16,0.));
#1406=DIRECTION('',(0.,0.,1.));
#1407=DIRECTION('',(-1.,2.30623810682417E-16,0.));
#1408=DIRECTION('',(0.,0.,1.));
#1409=DIRECTION('',(1.,2.26022602733134E-16,0.));
#1410=DIRECTION('',(0.,0.,1.));
#1411=DIRECTION('',(-1.,2.30623810682417E-16,0.));
#1412=DIRECTION('',(0.,0.,1.));
#1413=DIRECTION('',(1.,0.,0.));
#1414=DIRECTION('',(3.00138150608038E-16,-1.,0.));
#1415=DIRECTION('',(-1.,2.26022602733134E-16,0.));
#1416=DIRECTION('',(3.56517181519151E-16,-1.,0.));
#1417=DIRECTION('',(-1.,3.03538665962696E-16,0.));
#1418=DIRECTION('',(3.56517181519151E-16,-1.,0.));
#1419=DIRECTION('',(1.,2.26022602733134E-16,0.));
#1420=DIRECTION('',(-3.00138150608038E-16,1.,0.));
#1421=DIRECTION('',(1.,-2.76780770000288E-16,0.));
#1422=DIRECTION('',(0.,0.,1.));
#1423=DIRECTION('',(1.,0.,0.));
#1424=DIRECTION('',(1.,2.26022602733134E-16,0.));
#1425=DIRECTION('',(3.56517181519151E-16,-1.,0.));
#1426=DIRECTION('',(1.,0.,0.));
#1427=DIRECTION('',(-3.00138150608038E-16,1.,0.));
#1428=DIRECTION('',(-3.03538665962696E-16,-1.,0.));
#1429=DIRECTION('',(1.,-3.03538665962696E-16,0.));
#1430=DIRECTION('',(0.,0.,-1.));
#1431=DIRECTION('',(0.,0.,-1.));
#1432=DIRECTION('',(1.,3.56517181519151E-16,0.));
#1433=DIRECTION('',(-3.56517181519151E-16,1.,0.));
#1434=DIRECTION('',(1.,3.56517181519151E-16,0.));
#1435=DIRECTION('',(-3.56517181519151E-16,1.,0.));
#1436=DIRECTION('',(-1.,-2.26022602733134E-16,0.));
#1437=DIRECTION('',(2.26022602733134E-16,-1.,0.));
#1438=DIRECTION('',(3.56517181519151E-16,-1.,0.));
#1439=DIRECTION('',(0.,0.,-1.));
#1440=DIRECTION('',(1.,3.56517181519151E-16,0.));
#1441=DIRECTION('',(-3.56517181519151E-16,1.,0.));
#1442=DIRECTION('',(-1.,2.26022602733134E-16,0.));
#1443=DIRECTION('',(-2.26022602733134E-16,-1.,0.));
#1444=DIRECTION('',(0.,0.,-1.));
#1445=DIRECTION('',(3.56517181519151E-16,-1.,0.));
#1446=DIRECTION('',(-1.,2.26022602733134E-16,0.));
#1447=DIRECTION('',(-2.26022602733134E-16,-1.,0.));
#1448=DIRECTION('',(0.,1.,0.));
#1449=DIRECTION('',(0.,0.,1.));
#1450=DIRECTION('',(0.,0.,-1.));
#1451=DIRECTION('',(1.,0.,0.));
#1452=DIRECTION('',(0.,0.,-1.));
#1453=DIRECTION('',(-1.,0.,0.));
#1454=DIRECTION('',(0.,0.,1.));
#1455=DIRECTION('',(0.,0.,-1.));
#1456=DIRECTION('',(0.,1.,0.));
#1457=DIRECTION('',(0.,1.,0.));
#1458=DIRECTION('',(0.,0.,1.));
#1459=DIRECTION('',(0.,0.,-1.));
#1460=DIRECTION('',(1.,0.,0.));
#1461=DIRECTION('',(-1.23908819712629E-16,-1.,0.));
#1462=DIRECTION('',(1.,-1.23908819712629E-16,0.));
#1463=DIRECTION('',(-1.,1.23908819712629E-16,0.));
#1464=DIRECTION('',(0.,0.,-1.));
#1465=DIRECTION('',(0.,0.,-1.));
#1466=DIRECTION('',(1.,0.,0.));
#1467=DIRECTION('',(0.,0.,-1.));
#1468=DIRECTION('',(0.,0.,-1.));
#1469=DIRECTION('',(0.,-1.,0.));
#1470=DIRECTION('',(0.,0.,-1.));
#1471=DIRECTION('',(-1.23908819712629E-16,-1.,0.));
#1472=DIRECTION('',(1.,-1.23908819712629E-16,0.));
#1473=DIRECTION('',(0.,0.,-1.));
#1474=DIRECTION('',(-1.,1.23908819712629E-16,0.));
#1475=DIRECTION('',(0.,0.,-1.));
#1476=DIRECTION('',(-1.23908819712629E-16,-1.,0.));
#1477=DIRECTION('',(1.,-1.23908819712629E-16,0.));
#1478=DIRECTION('',(0.,0.,-1.));
#1479=DIRECTION('',(-1.,1.23908819712629E-16,0.));
#1480=DIRECTION('',(0.,0.,-1.));
#1481=DIRECTION('',(1.,0.,0.));
#1482=DIRECTION('',(0.,0.,-1.));
#1483=DIRECTION('',(0.,0.,-1.));
#1484=DIRECTION('',(0.,-1.,0.));
#1485=DIRECTION('',(0.,0.,-1.));
#1486=DIRECTION('',(-1.23908819712629E-16,-1.,0.));
#1487=DIRECTION('',(1.,-1.23908819712629E-16,0.));
#1488=DIRECTION('',(0.,0.,-1.));
#1489=DIRECTION('',(-1.,1.23908819712629E-16,0.));
#1490=DIRECTION('',(0.,0.,-1.));
#1491=DIRECTION('',(-1.23908819712629E-16,-1.,0.));
#1492=DIRECTION('',(1.,-1.23908819712629E-16,0.));
#1493=DIRECTION('',(-1.,1.23908819712629E-16,0.));
#1494=DIRECTION('',(0.,0.,-1.));
#1495=DIRECTION('',(0.,0.,-1.));
#1496=DIRECTION('',(1.,-1.85863229568943E-16,0.));
#1497=DIRECTION('',(1.85863229568943E-16,1.,0.));
#1498=DIRECTION('',(0.,0.,-1.));
#1499=DIRECTION('',(-1.85863229568943E-16,-1.,0.));
#1500=DIRECTION('',(0.,0.,-1.));
#1501=DIRECTION('',(-1.23908819712629E-16,-1.,0.));
#1502=DIRECTION('',(1.,-1.23908819712629E-16,0.));
#1503=DIRECTION('',(0.,0.,-1.));
#1504=DIRECTION('',(-1.,1.23908819712629E-16,0.));
#1505=DIRECTION('',(0.,0.,-1.));
#1506=DIRECTION('',(0.,0.,-1.));
#1507=DIRECTION('',(-1.,0.,0.));
#1508=DIRECTION('',(0.,0.,1.));
#1509=DIRECTION('',(1.,0.,0.));
#1510=DIRECTION('',(1.,0.,0.));
#1511=DIRECTION('',(0.,0.,-1.));
#1512=DIRECTION('',(0.,0.,-1.));
#1513=DIRECTION('',(0.,-1.,0.));
#1514=DIRECTION('',(0.,0.,-1.));
#1515=DIRECTION('',(1.,0.,0.));
#1516=DIRECTION('',(0.,0.,-1.));
#1517=DIRECTION('',(0.,-1.,0.));
#1518=DIRECTION('',(0.,0.,-1.));
#1519=DIRECTION('',(0.,0.,-1.));
#1520=DIRECTION('',(1.,-1.85863229568943E-16,0.));
#1521=DIRECTION('',(1.85863229568943E-16,1.,0.));
#1522=DIRECTION('',(0.,0.,-1.));
#1523=DIRECTION('',(-1.85863229568943E-16,-1.,0.));
#1524=DIRECTION('',(0.,0.,-1.));
#1525=DIRECTION('',(-1.,-1.94301464603137E-16,0.));
#1526=DIRECTION('',(1.94301464603137E-16,-1.,0.));
#1527=DIRECTION('',(-1.94301464603137E-16,1.,0.));
#1528=DIRECTION('',(0.,0.,1.));
#1529=DIRECTION('',(1.,0.,0.));
#1530=DIRECTION('',(-3.00138150608038E-16,1.,0.));
#1531=DIRECTION('',(1.,2.12931151635051E-16,0.));
#1532=DIRECTION('',(3.00138150608038E-16,-1.,0.));
#1533=DIRECTION('',(1.,-2.76780770000288E-16,0.));
#1534=DIRECTION('',(0.,0.,1.));
#1535=DIRECTION('',(1.,0.,0.));
#1536=DIRECTION('',(0.,0.,1.));
#1537=DIRECTION('',(1.,0.,0.));
#1538=DIRECTION('',(0.,0.,1.));
#1539=DIRECTION('',(1.,0.,0.));
#1540=DIRECTION('',(0.,0.,1.));
#1541=DIRECTION('',(1.,0.,0.));
#1542=DIRECTION('',(0.,0.,1.));
#1543=DIRECTION('',(1.,0.,0.));
#1544=DIRECTION('',(0.,0.,1.));
#1545=DIRECTION('',(1.,0.,0.));
#1546=DIRECTION('',(0.,0.,1.));
#1547=DIRECTION('',(1.,0.,0.));
#1548=DIRECTION('',(0.,0.,1.));
#1549=DIRECTION('',(1.,0.,0.));
#1550=DIRECTION('',(0.,0.,1.));
#1551=DIRECTION('',(1.,0.,0.));
#1552=DIRECTION('',(0.,0.,1.));
#1553=DIRECTION('',(1.,0.,0.));
#1554=DIRECTION('',(0.,0.,1.));
#1555=DIRECTION('',(1.,0.,0.));
#1556=DIRECTION('',(0.,0.,1.));
#1557=DIRECTION('',(1.,0.,0.));
#1558=DIRECTION('',(0.,0.,1.));
#1559=DIRECTION('',(1.,0.,0.));
#1560=DIRECTION('',(0.,0.,-1.));
#1561=DIRECTION('',(-1.,0.,0.));
#1562=DIRECTION('',(0.,0.,1.));
#1563=DIRECTION('',(1.,0.,0.));
#1564=DIRECTION('',(0.,0.,-1.));
#1565=DIRECTION('',(-1.,0.,0.));
#1566=DIRECTION('',(0.,0.,1.));
#1567=DIRECTION('',(1.,0.,0.));
#1568=DIRECTION('',(0.,0.,-1.));
#1569=DIRECTION('',(-1.,0.,0.));
#1570=DIRECTION('',(0.,0.,1.));
#1571=DIRECTION('',(1.,0.,0.));
#1572=DIRECTION('',(0.,0.,-1.));
#1573=DIRECTION('',(-1.,0.,0.));
#1574=DIRECTION('',(0.,0.,-1.));
#1575=DIRECTION('',(-1.,0.,0.));
#1576=DIRECTION('',(0.,0.,1.));
#1577=DIRECTION('',(1.,0.,0.));
#1578=DIRECTION('',(0.,0.,-1.));
#1579=DIRECTION('',(-1.,0.,0.));
#1580=DIRECTION('',(0.,0.,1.));
#1581=DIRECTION('',(1.,0.,0.));
#1582=DIRECTION('',(-2.12931151635051E-16,1.,0.));
#1583=DIRECTION('',(-1.,-2.12931151635051E-16,0.));
#1584=DIRECTION('',(-0.707106781186548,-1.50565061247005E-16,-0.707106781186548));
#1585=DIRECTION('',(0.,0.,-1.));
#1586=DIRECTION('',(0.,0.,-1.));
#1587=DIRECTION('',(1.,2.12931151635051E-16,0.));
#1588=DIRECTION('',(0.,0.,1.));
#1589=DIRECTION('',(0.,0.,1.));
#1590=DIRECTION('',(-0.707106781186548,-1.50565061247006E-16,0.707106781186547));
#1591=DIRECTION('',(0.,0.,1.));
#1592=DIRECTION('',(1.,2.12931151635051E-16,0.));
#1593=DIRECTION('',(0.,0.,1.));
#1594=DIRECTION('',(0.,0.,-1.));
#1595=DIRECTION('',(1.,0.,0.));
#1596=DIRECTION('',(-1.,-3.00138150608038E-16,0.));
#1597=DIRECTION('',(3.00138150608038E-16,-1.,0.));
#1598=DIRECTION('',(-1.,-3.00138150608038E-16,0.));
#1599=DIRECTION('',(3.00138150608038E-16,-1.,0.));
#1600=DIRECTION('',(0.,0.,1.));
#1601=DIRECTION('',(-3.00138150608038E-16,1.,0.));
#1602=DIRECTION('',(-2.76780770000288E-16,-1.,0.));
#1603=DIRECTION('',(1.,-2.76780770000288E-16,0.));
#1604=DIRECTION('',(0.,0.,1.));
#1605=DIRECTION('',(-1.,2.76780770000288E-16,0.));
#1606=DIRECTION('',(1.,3.00138150608038E-16,0.));
#1607=DIRECTION('',(-3.00138150608038E-16,1.,0.));
#1608=DIRECTION('',(1.,3.00138150608038E-16,0.));
#1609=DIRECTION('',(-3.00138150608038E-16,1.,0.));
#1610=DIRECTION('',(3.00138150608038E-16,-1.,0.));
#1611=DIRECTION('',(0.707106781186547,2.12229721587733E-16,-0.707106781186548));
#1612=DIRECTION('',(3.00138150608038E-16,-1.,0.));
#1613=DIRECTION('',(0.577350269189626,0.577350269189625,0.577350269189626));
#1614=DIRECTION('',(3.00138150608038E-16,-1.,0.));
#1615=DIRECTION('',(3.00138150608038E-16,-1.,0.));
#1616=DIRECTION('',(1.95713559369238E-16,0.707106781186548,-0.707106781186547));
#1617=DIRECTION('',(1.,-2.76780770000288E-16,0.));
#1618=DIRECTION('',(-0.577350269189627,0.577350269189625,0.577350269189626));
#1619=DIRECTION('',(-0.707106781186547,-2.12229721587732E-16,-0.707106781186548));
#1620=DIRECTION('',(-3.00138150608038E-16,1.,0.));
#1621=DIRECTION('',(-3.00138150608038E-16,1.,0.));
#1622=DIRECTION('',(-3.00138150608038E-16,1.,0.));
#1623=DIRECTION('',(1.,-2.30623810682417E-16,0.));
#1624=DIRECTION('',(2.30623810682417E-16,1.,0.));
#1625=DIRECTION('',(1.,-2.26022602733134E-16,0.));
#1626=DIRECTION('',(2.26022602733134E-16,1.,0.));
#1627=DIRECTION('',(-1.,-2.26022602733134E-16,0.));
#1628=DIRECTION('',(2.26022602733134E-16,-1.,0.));
#1629=DIRECTION('',(-1.,-2.12931151635051E-16,0.));
#1630=DIRECTION('',(2.12931151635051E-16,-1.,0.));
#1631=DIRECTION('',(-1.,-2.12931151635051E-16,0.));
#1632=DIRECTION('',(2.12931151635051E-16,-1.,0.));
#1633=DIRECTION('',(1.,2.12931151635051E-16,0.));
#1634=DIRECTION('',(-2.12931151635051E-16,1.,0.));
#1635=DIRECTION('',(1.,2.12931151635051E-16,0.));
#1636=DIRECTION('',(-2.12931151635051E-16,1.,0.));
#1637=DIRECTION('',(-1.,-2.12931151635051E-16,0.));
#1638=DIRECTION('',(2.12931151635051E-16,-1.,0.));
#1639=DIRECTION('',(1.,2.12931151635051E-16,0.));
#1640=DIRECTION('',(-2.12931151635051E-16,1.,0.));
#1641=DIRECTION('',(1.,2.12931151635051E-16,0.));
#1642=DIRECTION('',(-2.12931151635051E-16,1.,0.));
#1643=DIRECTION('',(4.85621412682316E-15,-0.699854212223765,0.714285714285714));
#1644=DIRECTION('',(0.,-0.714285714285714,-0.699854212223765));
#1645=DIRECTION('',(1.,2.12931151635051E-16,0.));
#1646=DIRECTION('',(-2.12931151635051E-16,1.,0.));
#1647=DIRECTION('',(-3.38871654303195E-15,0.714285714285714,-0.699854212223766));
#1648=DIRECTION('',(0.,0.699854212223766,0.714285714285714));
#1649=DIRECTION('',(-7.28432119023473E-15,-0.699854212223764,0.714285714285715));
#1650=DIRECTION('',(0.,-0.714285714285715,-0.699854212223764));
#1651=DIRECTION('',(-1.,-2.12931151635051E-16,0.));
#1652=DIRECTION('',(2.12931151635051E-16,-1.,0.));
#1653=DIRECTION('',(0.,0.714285714285714,-0.699854212223766));
#1654=DIRECTION('',(0.,0.699854212223766,0.714285714285714));
#1655=DIRECTION('',(1.,2.26022602733134E-16,0.));
#1656=DIRECTION('',(-2.26022602733134E-16,1.,0.));
#1657=DIRECTION('',(-1.,-2.26022602733134E-16,0.));
#1658=DIRECTION('',(2.26022602733134E-16,-1.,0.));
#1659=DIRECTION('',(-1.,-2.26022602733134E-16,0.));
#1660=DIRECTION('',(2.26022602733134E-16,-1.,0.));
#1661=DIRECTION('',(1.,2.26022602733134E-16,0.));
#1662=DIRECTION('',(-2.26022602733134E-16,1.,0.));
#1663=DIRECTION('',(-1.,-2.26022602733134E-16,0.));
#1664=DIRECTION('',(2.26022602733134E-16,-1.,0.));
#1665=DIRECTION('',(-1.,-2.26022602733134E-16,0.));
#1666=DIRECTION('',(2.26022602733134E-16,-1.,0.));
#1667=DIRECTION('',(-1.,2.26022602733134E-16,0.));
#1668=DIRECTION('',(-2.26022602733134E-16,-1.,0.));
#1669=DIRECTION('',(-1.,2.26022602733134E-16,0.));
#1670=DIRECTION('',(-2.26022602733134E-16,-1.,0.));
#1671=DIRECTION('',(-1.,2.26022602733134E-16,0.));
#1672=DIRECTION('',(-2.26022602733134E-16,-1.,0.));
#1673=DIRECTION('',(-1.,2.26022602733134E-16,0.));
#1674=DIRECTION('',(-2.26022602733134E-16,-1.,0.));
#1675=DIRECTION('',(1.,-2.26022602733134E-16,0.));
#1676=DIRECTION('',(-2.26022602733134E-16,-1.,0.));
#1677=DIRECTION('',(1.,-2.26022602733134E-16,0.));
#1678=DIRECTION('',(-2.26022602733134E-16,-1.,0.));
#1679=CARTESIAN_POINT('',(0.,0.,0.));
#1680=CARTESIAN_POINT('',(-6.93889390390723E-18,0.012344,0.001));
#1681=CARTESIAN_POINT('',(-0.0300875,0.009938,0.001));
#1682=CARTESIAN_POINT('',(-0.0300875,0.035463,0.001));
#1683=CARTESIAN_POINT('',(-0.0300875,0.0326968962679253,0.001));
#1684=CARTESIAN_POINT('',(-0.0250875,0.0326968962679253,0.001));
#1685=CARTESIAN_POINT('',(-0.0313375,0.0326968962679253,0.001));
#1686=CARTESIAN_POINT('',(-0.0313375,0.012344,0.001));
#1687=CARTESIAN_POINT('',(-0.0313375,0.035463,0.001));
#1688=CARTESIAN_POINT('',(-1.38777878078145E-17,0.035463,0.001));
#1689=CARTESIAN_POINT('',(-6.93889390390723E-18,0.009938,0.));
#1690=CARTESIAN_POINT('',(-0.01281,0.019246,0.));
#1691=CARTESIAN_POINT('',(-0.024,0.019246,0.));
#1692=CARTESIAN_POINT('',(-0.00162,0.019246,0.));
#1693=CARTESIAN_POINT('',(-0.00162,0.022036,0.));
#1694=CARTESIAN_POINT('',(-0.00162,0.024826,0.));
#1695=CARTESIAN_POINT('',(-0.01281,0.024826,0.));
#1696=CARTESIAN_POINT('',(-0.024,0.024826,0.));
#1697=CARTESIAN_POINT('',(-0.024,0.022036,0.));
#1698=CARTESIAN_POINT('',(0.01905,0.022326,0.));
#1699=CARTESIAN_POINT('',(0.02405,0.022326,0.));
#1700=CARTESIAN_POINT('',(-0.01205,-2.60208521396521E-18,0.));
#1701=CARTESIAN_POINT('',(-0.01205,0.006,0.));
#1702=CARTESIAN_POINT('',(-0.01205,-0.006,0.));
#1703=CARTESIAN_POINT('',(-0.01305,0.006,0.));
#1704=CARTESIAN_POINT('',(-0.01305,0.007,0.));
#1705=CARTESIAN_POINT('',(-0.01905,0.007,0.));
#1706=CARTESIAN_POINT('',(-0.02505,0.007,0.));
#1707=CARTESIAN_POINT('',(-0.02505,0.006,0.));
#1708=CARTESIAN_POINT('',(-0.02605,0.006,0.));
#1709=CARTESIAN_POINT('',(-0.02605,-2.60208521396521E-18,0.));
#1710=CARTESIAN_POINT('',(-0.02605,-0.006,0.));
#1711=CARTESIAN_POINT('',(-0.02505,-0.006,0.));
#1712=CARTESIAN_POINT('',(-0.02505,-0.007,0.));
#1713=CARTESIAN_POINT('',(-0.01905,-0.007,0.));
#1714=CARTESIAN_POINT('',(-0.01305,-0.007,0.));
#1715=CARTESIAN_POINT('',(-0.01305,-0.006,0.));
#1716=CARTESIAN_POINT('',(0.02605,-2.60208521396521E-18,0.));
#1717=CARTESIAN_POINT('',(0.02605,0.006,0.));
#1718=CARTESIAN_POINT('',(0.02605,-0.006,0.));
#1719=CARTESIAN_POINT('',(0.02505,0.006,0.));
#1720=CARTESIAN_POINT('',(0.02505,0.007,0.));
#1721=CARTESIAN_POINT('',(0.01905,0.007,0.));
#1722=CARTESIAN_POINT('',(0.01305,0.007,0.));
#1723=CARTESIAN_POINT('',(0.01305,0.006,0.));
#1724=CARTESIAN_POINT('',(0.01205,0.006,0.));
#1725=CARTESIAN_POINT('',(0.01205,-2.60208521396521E-18,0.));
#1726=CARTESIAN_POINT('',(0.01205,-0.006,0.));
#1727=CARTESIAN_POINT('',(0.01305,-0.006,0.));
#1728=CARTESIAN_POINT('',(0.01305,-0.007,0.));
#1729=CARTESIAN_POINT('',(0.01905,-0.007,0.));
#1730=CARTESIAN_POINT('',(0.02505,-0.007,0.));
#1731=CARTESIAN_POINT('',(0.02505,-0.006,0.));
#1732=CARTESIAN_POINT('',(0.007,-2.60208521396521E-18,0.));
#1733=CARTESIAN_POINT('',(0.007,0.006,0.));
#1734=CARTESIAN_POINT('',(0.007,-0.006,0.));
#1735=CARTESIAN_POINT('',(0.006,0.006,0.));
#1736=CARTESIAN_POINT('',(0.006,0.007,0.));
#1737=CARTESIAN_POINT('',(-1.7347234759768E-18,0.007,0.));
#1738=CARTESIAN_POINT('',(-0.006,0.007,0.));
#1739=CARTESIAN_POINT('',(-0.006,0.006,0.));
#1740=CARTESIAN_POINT('',(-0.007,0.006,0.));
#1741=CARTESIAN_POINT('',(-0.007,0.,0.));
#1742=CARTESIAN_POINT('',(-0.007,-0.006,0.));
#1743=CARTESIAN_POINT('',(-0.006,-0.006,0.));
#1744=CARTESIAN_POINT('',(-0.006,-0.007,0.));
#1745=CARTESIAN_POINT('',(-8.67361737988404E-19,-0.007,0.));
#1746=CARTESIAN_POINT('',(0.006,-0.007,0.));
#1747=CARTESIAN_POINT('',(0.006,-0.006,0.));
#1748=CARTESIAN_POINT('',(-0.0300875,0.009938,0.));
#1749=CARTESIAN_POINT('',(-0.0300875,0.0281088980337503,0.));
#1750=CARTESIAN_POINT('',(-0.0300875,-0.009525,0.));
#1751=CARTESIAN_POINT('',(-0.0250875,0.0281088980337503,0.));
#1752=CARTESIAN_POINT('',(-0.0240875,0.0281088980337503,0.));
#1753=CARTESIAN_POINT('',(-0.0240875,0.009938,0.));
#1754=CARTESIAN_POINT('',(-0.0240875,0.030463,-4.33680868994202E-19));
#1755=CARTESIAN_POINT('',(0.0300875,0.030463,0.));
#1756=CARTESIAN_POINT('',(0.0240875,0.030463,0.));
#1757=CARTESIAN_POINT('',(0.0240875,0.009938,0.));
#1758=CARTESIAN_POINT('',(0.0240875,0.0281088980337503,0.));
#1759=CARTESIAN_POINT('',(0.0250875,0.0281088980337503,0.));
#1760=CARTESIAN_POINT('',(0.0300875,0.0281088980337503,0.));
#1761=CARTESIAN_POINT('',(0.0300875,0.009938,0.));
#1762=CARTESIAN_POINT('',(0.0300875,-0.009525,0.));
#1763=CARTESIAN_POINT('',(5.20417042793042E-18,-0.009525,0.));
#1764=CARTESIAN_POINT('',(-1.38777878078145E-17,0.032963,-0.01));
#1765=CARTESIAN_POINT('',(-0.0240875,0.032963,-0.01));
#1766=CARTESIAN_POINT('',(-0.0240875,0.032963,-0.0025));
#1767=CARTESIAN_POINT('',(-0.0240875,0.032963,-0.00416227766016837));
#1768=CARTESIAN_POINT('',(-0.0250875,0.032963,-0.00416227766016837));
#1769=CARTESIAN_POINT('',(-0.0300875,0.032963,-0.00416227766016837));
#1770=CARTESIAN_POINT('',(-0.0300875,0.032963,-0.01));
#1771=CARTESIAN_POINT('',(-0.0300875,0.032963,-0.01));
#1772=CARTESIAN_POINT('',(-1.38777878078145E-17,0.032963,-0.01));
#1773=CARTESIAN_POINT('',(0.0300875,0.032963,-0.01));
#1774=CARTESIAN_POINT('',(0.0300875,0.032963,-0.01));
#1775=CARTESIAN_POINT('',(0.0300875,0.032963,-0.00416227766016839));
#1776=CARTESIAN_POINT('',(0.0250875,0.032963,-0.00416227766016839));
#1777=CARTESIAN_POINT('',(0.0240875,0.032963,-0.00416227766016839));
#1778=CARTESIAN_POINT('',(0.0240875,0.032963,-0.01));
#1779=CARTESIAN_POINT('',(0.0240875,0.032963,-0.0025));
#1780=CARTESIAN_POINT('',(-0.0300875,0.032963,-0.0025));
#1781=CARTESIAN_POINT('',(-6.93889390390723E-18,0.012344,0.001));
#1782=CARTESIAN_POINT('',(-0.0313375,0.012344,0.001));
#1783=CARTESIAN_POINT('',(-0.0313375,0.0302291037320747,0.001));
#1784=CARTESIAN_POINT('',(-0.0313375,-0.010775,0.001));
#1785=CARTESIAN_POINT('',(-0.0250875,0.0302291037320747,0.001));
#1786=CARTESIAN_POINT('',(-0.0300875,0.0302291037320747,0.001));
#1787=CARTESIAN_POINT('',(-0.0300875,0.009938,0.001));
#1788=CARTESIAN_POINT('',(-0.0300875,-0.009525,0.001));
#1789=CARTESIAN_POINT('',(5.20417042793042E-18,-0.009525,0.001));
#1790=CARTESIAN_POINT('',(0.0300875,-0.009525,0.001));
#1791=CARTESIAN_POINT('',(0.0300875,0.009938,0.001));
#1792=CARTESIAN_POINT('',(0.0300875,0.0302291037320747,0.001));
#1793=CARTESIAN_POINT('',(0.0250875,0.0302291037320747,0.001));
#1794=CARTESIAN_POINT('',(0.0313375,0.0302291037320747,0.001));
#1795=CARTESIAN_POINT('',(0.0313375,0.012344,0.001));
#1796=CARTESIAN_POINT('',(0.0313375,-0.010775,0.001));
#1797=CARTESIAN_POINT('',(0.,-0.010775,0.001));
#1798=CARTESIAN_POINT('',(-6.93889390390723E-18,0.012344,0.001));
#1799=CARTESIAN_POINT('',(0.0250875,0.0326968962679253,0.001));
#1800=CARTESIAN_POINT('',(0.0300875,0.0326968962679253,0.001));
#1801=CARTESIAN_POINT('',(0.0313375,0.0326968962679253,0.001));
#1802=CARTESIAN_POINT('',(0.0300875,0.009938,0.001));
#1803=CARTESIAN_POINT('',(0.0300875,0.035463,0.001));
#1804=CARTESIAN_POINT('',(-1.38777878078145E-17,0.035463,0.001));
#1805=CARTESIAN_POINT('',(0.0313375,0.035463,0.001));
#1806=CARTESIAN_POINT('',(0.0313375,0.012344,0.001));
#1807=CARTESIAN_POINT('',(5.20417042793042E-18,-0.009525,0.003));
#1808=CARTESIAN_POINT('',(0.0300875,-0.009525,0.003));
#1809=CARTESIAN_POINT('',(-0.0300875,-0.009525,0.003));
#1810=CARTESIAN_POINT('',(0.0300875,0.009938,0.003));
#1811=CARTESIAN_POINT('',(0.0300875,0.031463,-0.001));
#1812=CARTESIAN_POINT('',(0.0300875,0.031463,-0.001));
#1813=CARTESIAN_POINT('',(0.0300875,0.009938,-0.01));
#1814=CARTESIAN_POINT('',(0.0300875,0.035463,-0.01));
#1815=CARTESIAN_POINT('',(0.0300875,0.035463,0.003));
#1816=CARTESIAN_POINT('',(-0.0300875,0.009938,0.003));
#1817=CARTESIAN_POINT('',(-0.0300875,0.031463,-0.001));
#1818=CARTESIAN_POINT('',(-0.0300875,0.035463,0.003));
#1819=CARTESIAN_POINT('',(-0.0300875,0.035463,-0.01));
#1820=CARTESIAN_POINT('',(-0.0300875,0.009938,-0.01));
#1821=CARTESIAN_POINT('',(-0.0300875,0.031463,-0.001));
#1822=CARTESIAN_POINT('',(-0.01281,0.019246,0.003));
#1823=CARTESIAN_POINT('',(-0.024,0.019246,0.003));
#1824=CARTESIAN_POINT('',(-0.024,0.019246,0.003));
#1825=CARTESIAN_POINT('',(-0.01281,0.019246,0.003));
#1826=CARTESIAN_POINT('',(-0.00162,0.019246,0.003));
#1827=CARTESIAN_POINT('',(-0.00162,0.019246,0.003));
#1828=CARTESIAN_POINT('',(-0.024,0.022036,0.003));
#1829=CARTESIAN_POINT('',(-0.024,0.024826,0.003));
#1830=CARTESIAN_POINT('',(-0.024,0.024826,0.003));
#1831=CARTESIAN_POINT('',(-0.024,0.022036,0.003));
#1832=CARTESIAN_POINT('',(-0.01281,0.024826,0.003));
#1833=CARTESIAN_POINT('',(-0.00162,0.024826,0.003));
#1834=CARTESIAN_POINT('',(-0.00162,0.024826,0.003));
#1835=CARTESIAN_POINT('',(-0.01281,0.024826,0.003));
#1836=CARTESIAN_POINT('',(-0.01905,0.007,0.003));
#1837=CARTESIAN_POINT('',(-0.01905,0.007,0.003));
#1838=CARTESIAN_POINT('',(-0.01305,0.007,0.003));
#1839=CARTESIAN_POINT('',(-0.02505,0.007,0.003));
#1840=CARTESIAN_POINT('',(-0.02505,0.007,0.));
#1841=CARTESIAN_POINT('',(-0.01305,0.007,0.003));
#1842=CARTESIAN_POINT('',(-0.01205,-2.60208521396521E-18,0.003));
#1843=CARTESIAN_POINT('',(-0.01205,-0.006,0.003));
#1844=CARTESIAN_POINT('',(-0.01205,-0.006,0.003));
#1845=CARTESIAN_POINT('',(-0.01205,-2.60208521396521E-18,0.003));
#1846=CARTESIAN_POINT('',(-0.01205,0.006,0.003));
#1847=CARTESIAN_POINT('',(-0.01205,0.006,0.003));
#1848=CARTESIAN_POINT('',(-0.01905,-0.007,0.003));
#1849=CARTESIAN_POINT('',(-0.02505,-0.007,0.003));
#1850=CARTESIAN_POINT('',(-0.02505,-0.007,0.003));
#1851=CARTESIAN_POINT('',(-0.01905,-0.007,0.003));
#1852=CARTESIAN_POINT('',(-0.01305,-0.007,0.003));
#1853=CARTESIAN_POINT('',(-0.01305,-0.007,0.));
#1854=CARTESIAN_POINT('',(0.01905,0.007,0.003));
#1855=CARTESIAN_POINT('',(0.02505,0.007,0.003));
#1856=CARTESIAN_POINT('',(0.02505,0.007,0.003));
#1857=CARTESIAN_POINT('',(0.01905,0.007,0.003));
#1858=CARTESIAN_POINT('',(0.01305,0.007,0.003));
#1859=CARTESIAN_POINT('',(0.01305,0.007,0.));
#1860=CARTESIAN_POINT('',(0.02605,-2.60208521396521E-18,0.003));
#1861=CARTESIAN_POINT('',(0.02605,-0.006,0.003));
#1862=CARTESIAN_POINT('',(0.02605,-0.006,0.003));
#1863=CARTESIAN_POINT('',(0.02605,-2.60208521396521E-18,0.003));
#1864=CARTESIAN_POINT('',(0.02605,0.006,0.003));
#1865=CARTESIAN_POINT('',(0.02605,0.006,0.003));
#1866=CARTESIAN_POINT('',(0.01905,-0.007,0.003));
#1867=CARTESIAN_POINT('',(0.01305,-0.007,0.003));
#1868=CARTESIAN_POINT('',(0.01305,-0.007,0.003));
#1869=CARTESIAN_POINT('',(0.01905,-0.007,0.003));
#1870=CARTESIAN_POINT('',(0.02505,-0.007,0.003));
#1871=CARTESIAN_POINT('',(0.02505,-0.007,0.));
#1872=CARTESIAN_POINT('',(-1.7347234759768E-18,0.007,0.003));
#1873=CARTESIAN_POINT('',(-1.7347234759768E-18,0.007,0.003));
#1874=CARTESIAN_POINT('',(0.006,0.007,0.003));
#1875=CARTESIAN_POINT('',(-0.006,0.007,0.003));
#1876=CARTESIAN_POINT('',(-0.006,0.007,0.));
#1877=CARTESIAN_POINT('',(0.006,0.007,0.003));
#1878=CARTESIAN_POINT('',(0.007,-2.60208521396521E-18,0.003));
#1879=CARTESIAN_POINT('',(0.007,-0.006,0.003));
#1880=CARTESIAN_POINT('',(0.007,-0.006,0.003));
#1881=CARTESIAN_POINT('',(0.007,-2.60208521396521E-18,0.003));
#1882=CARTESIAN_POINT('',(0.007,0.006,0.003));
#1883=CARTESIAN_POINT('',(0.007,0.006,0.003));
#1884=CARTESIAN_POINT('',(-8.67361737988404E-19,-0.007,0.003));
#1885=CARTESIAN_POINT('',(-0.006,-0.007,0.003));
#1886=CARTESIAN_POINT('',(-0.006,-0.007,0.003));
#1887=CARTESIAN_POINT('',(-8.67361737988404E-19,-0.007,0.003));
#1888=CARTESIAN_POINT('',(0.006,-0.007,0.003));
#1889=CARTESIAN_POINT('',(0.006,-0.007,0.));
#1890=CARTESIAN_POINT('',(0.01905,0.022326,0.003));
#1891=CARTESIAN_POINT('',(0.01905,0.022326,0.003));
#1892=CARTESIAN_POINT('',(0.02405,0.022326,0.003));
#1893=CARTESIAN_POINT('',(-0.02605,-2.60208521396521E-18,0.003));
#1894=CARTESIAN_POINT('',(-0.02605,0.006,0.003));
#1895=CARTESIAN_POINT('',(-0.02605,0.006,0.003));
#1896=CARTESIAN_POINT('',(-0.02605,-2.60208521396521E-18,0.003));
#1897=CARTESIAN_POINT('',(-0.02605,-0.006,0.003));
#1898=CARTESIAN_POINT('',(-0.02605,-0.006,0.003));
#1899=CARTESIAN_POINT('',(0.01205,-2.60208521396521E-18,0.003));
#1900=CARTESIAN_POINT('',(0.01205,-2.60208521396521E-18,0.003));
#1901=CARTESIAN_POINT('',(0.01205,0.006,0.003));
#1902=CARTESIAN_POINT('',(0.01205,-0.006,0.003));
#1903=CARTESIAN_POINT('',(0.01205,-0.006,0.003));
#1904=CARTESIAN_POINT('',(0.01205,0.006,0.003));
#1905=CARTESIAN_POINT('',(-0.007,0.,0.003));
#1906=CARTESIAN_POINT('',(-0.007,0.006,0.003));
#1907=CARTESIAN_POINT('',(-0.007,0.006,0.003));
#1908=CARTESIAN_POINT('',(-0.007,0.,0.003));
#1909=CARTESIAN_POINT('',(-0.007,-0.006,0.003));
#1910=CARTESIAN_POINT('',(-0.007,-0.006,0.003));
#1911=CARTESIAN_POINT('',(-0.00162,0.022036,0.003));
#1912=CARTESIAN_POINT('',(-0.00162,0.022036,0.003));
#1913=CARTESIAN_POINT('',(-6.93889390390723E-18,0.009938,0.003));
#1914=CARTESIAN_POINT('',(0.0298375,0.009938,0.003));
#1915=CARTESIAN_POINT('',(0.0298375,-0.009275,0.003));
#1916=CARTESIAN_POINT('',(0.0298375,0.030463,0.003));
#1917=CARTESIAN_POINT('',(-1.13093057912166E-17,0.030463,0.003));
#1918=CARTESIAN_POINT('',(-0.0298375,0.030463,0.003));
#1919=CARTESIAN_POINT('',(-0.0298375,0.009938,0.003));
#1920=CARTESIAN_POINT('',(-0.0298375,-0.009275,0.003));
#1921=CARTESIAN_POINT('',(-1.22566828379228E-17,-0.009275,0.003));
#1922=CARTESIAN_POINT('',(0.006,0.006,0.003));
#1923=CARTESIAN_POINT('',(0.006,-0.006,0.003));
#1924=CARTESIAN_POINT('',(-0.006,-0.006,0.003));
#1925=CARTESIAN_POINT('',(-0.006,0.006,0.003));
#1926=CARTESIAN_POINT('',(0.02505,0.006,0.003));
#1927=CARTESIAN_POINT('',(0.02505,-0.006,0.003));
#1928=CARTESIAN_POINT('',(0.01305,-0.006,0.003));
#1929=CARTESIAN_POINT('',(0.01305,0.006,0.003));
#1930=CARTESIAN_POINT('',(-0.01305,0.006,0.003));
#1931=CARTESIAN_POINT('',(-0.01305,-0.006,0.003));
#1932=CARTESIAN_POINT('',(-0.02505,-0.006,0.003));
#1933=CARTESIAN_POINT('',(-0.02505,0.006,0.003));
#1934=CARTESIAN_POINT('',(-0.02505,0.006,0.003));
#1935=CARTESIAN_POINT('',(-0.02505,-0.006,0.003));
#1936=CARTESIAN_POINT('',(-0.01305,-0.006,0.003));
#1937=CARTESIAN_POINT('',(-0.01305,0.006,0.003));
#1938=CARTESIAN_POINT('',(-0.006,0.006,0.003));
#1939=CARTESIAN_POINT('',(-0.006,-0.006,0.003));
#1940=CARTESIAN_POINT('',(0.006,-0.006,0.003));
#1941=CARTESIAN_POINT('',(0.006,0.006,0.003));
#1942=CARTESIAN_POINT('',(0.01305,-0.006,0.003));
#1943=CARTESIAN_POINT('',(0.02505,-0.006,0.003));
#1944=CARTESIAN_POINT('',(0.02505,0.006,0.003));
#1945=CARTESIAN_POINT('',(0.01305,0.006,0.003));
#1946=CARTESIAN_POINT('',(-6.93889390390723E-18,0.035463,0.006));
#1947=CARTESIAN_POINT('',(-0.01341875,0.035463,0.01941875));
#1948=CARTESIAN_POINT('',(-0.0313375,0.035463,0.0015));
#1949=CARTESIAN_POINT('',(-0.0298375,0.035463,0.003));
#1950=CARTESIAN_POINT('',(-0.0298375,0.035463,0.006));
#1951=CARTESIAN_POINT('',(-0.0298375,0.035463,0.00289897948556636));
#1952=CARTESIAN_POINT('',(-0.0298375,0.035463,0.006));
#1953=CARTESIAN_POINT('',(-0.0298375,0.035463,-0.002));
#1954=CARTESIAN_POINT('',(-6.93889390390723E-18,0.035463,-0.002));
#1955=CARTESIAN_POINT('',(0.0298375,0.035463,-0.002));
#1956=CARTESIAN_POINT('',(0.0298375,0.035463,0.006));
#1957=CARTESIAN_POINT('',(0.0298375,0.035463,0.00289897948556636));
#1958=CARTESIAN_POINT('',(0.0298375,0.035463,0.006));
#1959=CARTESIAN_POINT('',(0.0298375,0.035463,0.003));
#1960=CARTESIAN_POINT('',(0.01341875,0.035463,0.01941875));
#1961=CARTESIAN_POINT('',(0.0313375,0.035463,0.0015));
#1962=CARTESIAN_POINT('',(0.0313375,0.035463,0.001));
#1963=CARTESIAN_POINT('',(-3.46902108965034E-18,0.035463,-0.01));
#1964=CARTESIAN_POINT('',(-0.0313375,0.035463,0.001));
#1965=CARTESIAN_POINT('',(-6.93889390390723E-18,0.012969,-0.01));
#1966=CARTESIAN_POINT('',(-0.0313375,0.012344,0.001));
#1967=CARTESIAN_POINT('',(-0.0313375,0.031463,-0.001));
#1968=CARTESIAN_POINT('',(-0.0313375,-0.010775,0.001));
#1969=CARTESIAN_POINT('',(-0.0313375,-0.010775,0.0015));
#1970=CARTESIAN_POINT('',(-0.0313375,0.012344,0.0015));
#1971=CARTESIAN_POINT('',(0.,-0.010775,0.001));
#1972=CARTESIAN_POINT('',(0.0313375,-0.010775,0.001));
#1973=CARTESIAN_POINT('',(0.0313375,-0.010775,0.0015));
#1974=CARTESIAN_POINT('',(0.,-0.010775,0.0015));
#1975=CARTESIAN_POINT('',(0.0313375,0.012344,0.001));
#1976=CARTESIAN_POINT('',(0.0313375,0.031463,-0.001));
#1977=CARTESIAN_POINT('',(0.0313375,0.012344,0.0015));
#1978=CARTESIAN_POINT('',(-0.0298375,0.009938,0.003));
#1979=CARTESIAN_POINT('',(-0.0234331666666667,-0.00287066666666668,0.00940433333333333));
#1980=CARTESIAN_POINT('',(-0.0298375,0.009938,0.003));
#1981=CARTESIAN_POINT('',(-0.0298375,0.0353619794855664,0.003));
#1982=CARTESIAN_POINT('',(-0.0298375,0.009938,0.003));
#1983=CARTESIAN_POINT('',(-1.22566828379228E-17,-0.009275,0.003));
#1984=CARTESIAN_POINT('',(0.0198916666666667,0.000670833333333332,0.0129458333333334));
#1985=CARTESIAN_POINT('',(0.0298375,0.009938,0.003));
#1986=CARTESIAN_POINT('',(0.0298375,0.009938,0.003));
#1987=CARTESIAN_POINT('',(0.0298375,0.0353619794855664,0.003));
#1988=CARTESIAN_POINT('',(0.0298375,0.009938,0.003));
#1989=CARTESIAN_POINT('',(-1.44543473345205E-17,0.030463,-0.0025));
#1990=CARTESIAN_POINT('',(-0.0240875,0.030463,-0.0025));
#1991=CARTESIAN_POINT('',(0.0240875,0.030463,-0.0025));
#1992=CARTESIAN_POINT('',(0.0298375,0.030463,-0.002));
#1993=CARTESIAN_POINT('',(0.0298375,0.030463,-0.002));
#1994=CARTESIAN_POINT('',(-5.87423814573197E-18,0.030463,-0.002));
#1995=CARTESIAN_POINT('',(-0.0278375,0.0340344285714285,0.00149927106111883));
#1996=CARTESIAN_POINT('',(-0.0278375,0.0342976179196395,0.0012306545574303));
#1997=CARTESIAN_POINT('',(-0.0280306057128677,0.0347413008819434,0.000655174512934956));
#1998=CARTESIAN_POINT('',(-0.0287241711616822,0.0353112595907828,-0.000519742393280171));
#1999=CARTESIAN_POINT('',(-0.0293966063680173,0.035463,-0.00141083015194348));
#2000=CARTESIAN_POINT('',(-0.0298375,0.035463,-0.002));
#2001=CARTESIAN_POINT('',(-0.0278375,0.0340344285714285,0.00149927106111883));
#2002=CARTESIAN_POINT('',(-0.0278375,0.030463,-0.002));
#2003=CARTESIAN_POINT('',(-0.0278375,0.0339622710611188,0.00157142857142857));
#2004=CARTESIAN_POINT('',(-0.0278375,0.0339622710611188,0.00157142857142857));
#2005=CARTESIAN_POINT('',(-0.0278375,0.0336936545574303,0.0018346179196395));
#2006=CARTESIAN_POINT('',(-0.0280306057128657,0.0331181745129334,0.00227830088194342));
#2007=CARTESIAN_POINT('',(-0.0287241711616926,0.0319432576067276,0.00284825959078279));
#2008=CARTESIAN_POINT('',(-0.0293966063679718,0.0310521698480224,0.003));
#2009=CARTESIAN_POINT('',(-0.0298375,0.030463,0.003));
#2010=CARTESIAN_POINT('',(0.0278375,0.0339622710611189,0.00157142857142857));
#2011=CARTESIAN_POINT('',(0.0278375,0.0336936545574303,0.0018346179196395));
#2012=CARTESIAN_POINT('',(0.0280306057128649,0.0331181745129328,0.0022783008819434));
#2013=CARTESIAN_POINT('',(0.0287241711616964,0.0319432576067304,0.0028482595907828));
#2014=CARTESIAN_POINT('',(0.0293966063679552,0.03105216984801,0.003));
#2015=CARTESIAN_POINT('',(0.0298375,0.030463,0.003));
#2016=CARTESIAN_POINT('',(0.0278375,0.0339622710611189,0.00157142857142857));
#2017=CARTESIAN_POINT('',(0.0278375,0.030463,-0.002));
#2018=CARTESIAN_POINT('',(0.0278375,0.0340344285714286,0.00149927106111883));
#2019=CARTESIAN_POINT('',(0.0278375,0.0340344285714286,0.00149927106111883));
#2020=CARTESIAN_POINT('',(0.0278375,0.0342976179196395,0.0012306545574303));
#2021=CARTESIAN_POINT('',(0.0280306057128671,0.0347413008819434,0.000655174512934449));
#2022=CARTESIAN_POINT('',(0.0287241711616855,0.0353112595907828,-0.000519742393277729));
#2023=CARTESIAN_POINT('',(0.0293966063680031,0.035463,-0.00141083015195416));
#2024=CARTESIAN_POINT('',(0.0298375,0.035463,-0.002));
#2025=CARTESIAN_POINT('',(-0.0298375,0.030463,-0.002));
#2026=CARTESIAN_POINT('',(-0.0298375,0.030463,-0.002));
#2027=CARTESIAN_POINT('',(-0.0298375,0.035463,0.00289897948556637));
#2028=CARTESIAN_POINT('',(-0.0298375,0.0340344285714286,0.00149927106111883));
#2029=CARTESIAN_POINT('',(-0.0278375,0.0340344285714286,0.00149927106111883));
#2030=CARTESIAN_POINT('',(-0.0298375,0.035463,0.00254761208082978));
#2031=CARTESIAN_POINT('',(-0.0296058359036517,0.0341072373151509,0.00142496098962327));
#2032=CARTESIAN_POINT('',(-0.0278375000229359,0.0342803345281309,0.00124829434502228));
#2033=CARTESIAN_POINT('',(-0.0298375,0.035463,0.00178466003578293));
#2034=CARTESIAN_POINT('',(-0.0292776611724893,0.0344617477343906,0.00108002235824673));
#2035=CARTESIAN_POINT('',(-0.0280083623581976,0.0347094400034083,0.000703328596273083));
#2036=CARTESIAN_POINT('',(-0.0298375,0.035463,0.000147692644010702));
#2037=CARTESIAN_POINT('',(-0.0292451179825716,0.0351863903091646,-8.69277985225915E-5));
#2038=CARTESIAN_POINT('',(-0.028684920633115,0.0352964863481173,-0.000465933825277855));
#2039=CARTESIAN_POINT('',(-0.0298375,0.035463,-0.00113824220682499));
#2040=CARTESIAN_POINT('',(-0.0296071858577381,0.0354630000000084,-0.00126135044980087));
#2041=CARTESIAN_POINT('',(-0.0293768717236995,0.035463,-0.00138445871916046));
#2042=CARTESIAN_POINT('',(-0.0298375,0.035463,-0.002));
#2043=CARTESIAN_POINT('',(-0.0298375,0.035463,-0.002));
#2044=CARTESIAN_POINT('',(-0.0298375,0.035463,-0.002));
#2045=CARTESIAN_POINT('',(-0.0278375,0.035463,0.00289897948556637));
#2046=CARTESIAN_POINT('',(-0.0278375,0.030463,-0.002));
#2047=CARTESIAN_POINT('',(-0.0278375,0.0353619794855664,0.003));
#2048=CARTESIAN_POINT('',(-0.0278375,0.0339622710611188,0.00157142857142858));
#2049=CARTESIAN_POINT('',(-0.0298375,0.0339622710611188,0.00157142857142858));
#2050=CARTESIAN_POINT('',(-0.0298375,0.0353619794855664,0.003));
#2051=CARTESIAN_POINT('',(-0.0278375000229359,0.0337112943450233,0.00181733452812988));
#2052=CARTESIAN_POINT('',(-0.0296058359036521,0.033887960989628,0.00164423731515249));
#2053=CARTESIAN_POINT('',(-0.0298375,0.0350106120808313,0.003));
#2054=CARTESIAN_POINT('',(-0.0280083623581966,0.033166328596272,0.00224644000340876));
#2055=CARTESIAN_POINT('',(-0.0292776611724884,0.0335430223582438,0.00199874773438922));
#2056=CARTESIAN_POINT('',(-0.0298375,0.0342476600357813,0.00300000000000001));
#2057=CARTESIAN_POINT('',(-0.02868492063312,0.0319970661747255,0.002833486348117));
#2058=CARTESIAN_POINT('',(-0.0292451179825752,0.0323760722014828,0.00272339030916787));
#2059=CARTESIAN_POINT('',(-0.0298375,0.032610692644016,0.003));
#2060=CARTESIAN_POINT('',(-0.0293768717236774,0.0310785412808262,0.003));
#2061=CARTESIAN_POINT('',(-0.0296071858577228,0.03120164955018,0.00299999999999638));
#2062=CARTESIAN_POINT('',(-0.0298375,0.0313247577931536,0.003));
#2063=CARTESIAN_POINT('',(-0.0298375,0.030463,0.003));
#2064=CARTESIAN_POINT('',(-0.0298375,0.030463,0.003));
#2065=CARTESIAN_POINT('',(-0.0298375,0.030463,0.003));
#2066=CARTESIAN_POINT('',(0.0278375,0.0340344285714286,0.00149927106111883));
#2067=CARTESIAN_POINT('',(0.0298375,0.0340344285714286,0.00149927106111883));
#2068=CARTESIAN_POINT('',(0.0298375,0.035463,0.00289897948556636));
#2069=CARTESIAN_POINT('',(0.0278375000229359,0.0342803345281366,0.00124829434501652));
#2070=CARTESIAN_POINT('',(0.0296058359036464,0.0341072373151594,0.00142496098962026));
#2071=CARTESIAN_POINT('',(0.0298375,0.035463,0.0025476120808285));
#2072=CARTESIAN_POINT('',(0.0280083623581968,0.0347094400034057,0.00070332859627509));
#2073=CARTESIAN_POINT('',(0.0292776611724909,0.034461747734387,0.00108002235824707));
#2074=CARTESIAN_POINT('',(0.0298375,0.035463,0.00178466003578271));
#2075=CARTESIAN_POINT('',(0.0286849206331193,0.0352964863481188,-0.00046593382527639));
#2076=CARTESIAN_POINT('',(0.0292451179825728,0.0351863903091671,-8.69277985194515E-5));
#2077=CARTESIAN_POINT('',(0.0298375,0.035463,0.000147692644014399));
#2078=CARTESIAN_POINT('',(0.0293768717236808,0.035463,-0.00138445871917381));
#2079=CARTESIAN_POINT('',(0.0296071858577279,0.035463000000005,-0.00126135044981655));
#2080=CARTESIAN_POINT('',(0.0298375,0.035463,-0.00113824220684279));
#2081=CARTESIAN_POINT('',(0.0298375,0.035463,-0.002));
#2082=CARTESIAN_POINT('',(0.0298375,0.035463,-0.002));
#2083=CARTESIAN_POINT('',(0.0298375,0.035463,-0.002));
#2084=CARTESIAN_POINT('',(0.0278375,0.035463,0.00289897948556637));
#2085=CARTESIAN_POINT('',(0.0278375,0.030463,-0.002));
#2086=CARTESIAN_POINT('',(0.0278375,0.0353619794855664,0.003));
#2087=CARTESIAN_POINT('',(0.0298375,0.0353619794855664,0.003));
#2088=CARTESIAN_POINT('',(0.0298375,0.0339622710611188,0.00157142857142857));
#2089=CARTESIAN_POINT('',(0.0278375,0.0339622710611188,0.00157142857142856));
#2090=CARTESIAN_POINT('',(0.0298375,0.0350106120808245,0.003));
#2091=CARTESIAN_POINT('',(0.0296058359036484,0.0338879609896203,0.00164423731515491));
#2092=CARTESIAN_POINT('',(0.0278375000229359,0.0337112943450167,0.00181733452813636));
#2093=CARTESIAN_POINT('',(0.0298375,0.0342476600357836,0.003));
#2094=CARTESIAN_POINT('',(0.0292776611724893,0.0335430223582459,0.00199874773438841));
#2095=CARTESIAN_POINT('',(0.0280083623581956,0.0331663285962744,0.00224644000340581));
#2096=CARTESIAN_POINT('',(0.0298375,0.032610692644018,0.003));
#2097=CARTESIAN_POINT('',(0.0292451179825765,0.0323760722014855,0.00272339030916806));
#2098=CARTESIAN_POINT('',(0.028684920633125,0.0319970661747268,0.00283348634811877));
#2099=CARTESIAN_POINT('',(0.0298375,0.0313247577931367,0.003));
#2100=CARTESIAN_POINT('',(0.0296071858577143,0.0312016495501631,0.00299999999999659));
#2101=CARTESIAN_POINT('',(0.0293768717236554,0.0310785412808126,0.003));
#2102=CARTESIAN_POINT('',(0.0298375,0.030463,0.003));
#2103=CARTESIAN_POINT('',(0.0298375,0.030463,0.003));
#2104=CARTESIAN_POINT('',(0.0298375,0.030463,0.003));
#2105=CARTESIAN_POINT('',(0.0250875,0.031463,-0.001));
#2106=CARTESIAN_POINT('',(0.0250875,0.031463,-0.001));
#2107=CARTESIAN_POINT('',(0.0250875,0.029113,-0.001));
#2108=CARTESIAN_POINT('',(0.0250875,0.012719,-0.00375));
#2109=CARTESIAN_POINT('',(0.0250875,0.031463,-0.001));
#2110=CARTESIAN_POINT('',(0.0240875,0.031463,-0.001));
#2111=CARTESIAN_POINT('',(0.0240875,0.031463,-0.001));
#2112=CARTESIAN_POINT('',(-0.0250875,0.031463,-0.001));
#2113=CARTESIAN_POINT('',(-0.0250875,0.031463,-0.001));
#2114=CARTESIAN_POINT('',(-0.0250875,0.029113,-0.001));
#2115=CARTESIAN_POINT('',(-0.0250875,0.031463,-0.001));
#2116=CARTESIAN_POINT('',(-0.0240875,0.031463,-0.001));
#2117=CARTESIAN_POINT('',(-0.0250875,0.031463,-0.001));
#2118=CARTESIAN_POINT('',(-0.0240875,0.031463,-0.001));
#2119=MECHANICAL_DESIGN_GEOMETRIC_PRESENTATION_REPRESENTATION('',(#1224),
#2120);
#2120=(
GEOMETRIC_REPRESENTATION_CONTEXT(3)
GLOBAL_UNCERTAINTY_ASSIGNED_CONTEXT((#2121))
GLOBAL_UNIT_ASSIGNED_CONTEXT((#2124,#2123,#2122))
REPRESENTATION_CONTEXT('Part 1','TOP_LEVEL_ASSEMBLY_PART')
);
#2121=UNCERTAINTY_MEASURE_WITH_UNIT(LENGTH_MEASURE(2.E-5),#2124,
'DISTANCE_ACCURACY_VALUE','Maximum Tolerance applied to model');
#2122=(
NAMED_UNIT(*)
SI_UNIT($,.STERADIAN.)
SOLID_ANGLE_UNIT()
);
#2123=(
NAMED_UNIT(*)
PLANE_ANGLE_UNIT()
SI_UNIT($,.RADIAN.)
);
#2124=(
LENGTH_UNIT()
NAMED_UNIT(*)
SI_UNIT($,.METRE.)
);
#2125=PRODUCT_DEFINITION_SHAPE('','',#2126);
#2126=PRODUCT_DEFINITION('','',#2128,#2127);
#2127=PRODUCT_DEFINITION_CONTEXT('',#2134,'design');
#2128=PRODUCT_DEFINITION_FORMATION_WITH_SPECIFIED_SOURCE('','',#2130,
 .NOT_KNOWN.);
#2129=PRODUCT_RELATED_PRODUCT_CATEGORY('','',(#2130));
#2130=PRODUCT('Part 1','Part 1','Part 1',(#2132));
#2131=PRODUCT_CATEGORY('','');
#2132=PRODUCT_CONTEXT('',#2134,'mechanical');
#2133=APPLICATION_PROTOCOL_DEFINITION('international standard',
'ap242_managed_model_based_3d_engineering',2020,#2134);
#2134=APPLICATION_CONTEXT('managed model based 3d engineering');
ENDSEC;
END-ISO-10303-21;
